<svg version="1.1" xmlns="http://www.w3.org/2000/svg" viewBox="0 0 365.1510864257813 300.08094787597656" width="730.3021728515625" height="600.1618957519531">
  <!-- svg-source:excalidraw -->
  
  <defs>
    <style>
      @font-face {
        font-family: "Virgil";
        src: url("https://excalidraw.com/Virgil.woff2");
      }
      @font-face {
        font-family: "Cascadia";
        src: url("https://excalidraw.com/Cascadia.woff2");
      }
    </style>
  </defs>
  <rect x="0" y="0" width="365.1510864257813" height="300.08094787597656" fill="#FFF"></rect><g stroke-linecap="round" transform="translate(10 210) rotate(0 20 20)"><path d="M0 0 C0 0, 0 0, 0 0 M0 0 C0 0, 0 0, 0 0 M-0.35 6.79 C0.9 4.17, 4.04 1.66, 5.38 0.8 M-0.58 6.64 C1.06 4.69, 2.74 3.12, 4.97 0.71 M0.03 10.64 C2.53 8.24, 7.49 1.77, 11.17 0.66 M-0.16 11.96 C3.11 10.05, 4.66 7.95, 10.94 -0.57 M0.37 18.3 C3.76 13.05, 6.17 7.5, 14.6 2.3 M-0.75 18.51 C4.48 13.31, 7.91 8.39, 16.08 -0.23 M1.94 25.34 C6.11 18.93, 11.35 10.02, 19.48 -1.43 M0.84 23.44 C8.84 14.77, 15.81 4.87, 21.22 -0.53 M0.31 28.75 C9.14 19.62, 17.75 11.6, 26.27 -1.6 M-0.95 30.4 C8.85 20.89, 16.48 11.93, 25.86 -0.67 M-1.06 38.13 C7.16 26.21, 14.46 18.54, 32.2 0.58 M0.05 37.13 C9.08 26.49, 17.2 17.43, 32.03 -0.12 M3.36 40.11 C14.32 24.4, 27.41 13.29, 35.12 2.01 M2.11 41.7 C10.27 31.91, 16.25 22.03, 37.18 -0.33 M8.18 42.7 C18.6 27.41, 30.37 11.95, 40.35 1.29 M5.59 41.25 C14.79 32.31, 20.29 25.58, 41.12 2.3 M12.72 39.13 C19.36 33.89, 24.3 27.59, 41.01 6.03 M12.73 41.2 C20.02 32.14, 29.4 22.44, 41.46 6.11 M15.23 39.83 C27.23 29.37, 33.76 22.77, 42.84 13.59 M16.94 41.7 C24.21 32.32, 32.4 23.64, 40.53 14.36 M21.12 39.06 C27.3 37.02, 33.5 31.38, 39.93 19.73 M23.1 41.6 C28.82 33.6, 37.31 24.86, 40.16 20.25 M26.63 42.93 C29.42 37.51, 35.04 33.97, 40.26 23.64 M28.39 40.91 C30.59 37.72, 34.01 34.51, 41.36 25.37 M34.38 40.07 C36.93 38.03, 38.2 34.62, 40.91 32.1 M32.86 40.55 C35.07 38.99, 37.25 37.01, 40.73 32.2 M37.86 41.66 C39.51 40.58, 39.53 40, 41.85 37.89 M38.4 41.34 C39.02 40.59, 40.01 39.39, 41.81 37.49" stroke="#228be6" stroke-width="0.5" fill="none"></path><path d="M0.05 -1.14 C10.2 -1.51, 20.68 -0.07, 38.18 1.64 M0.15 -0.01 C10.05 -0.66, 21.25 -0.4, 40.71 0.85 M39.56 -1.16 C41.66 13.11, 42.1 24.22, 39.47 41.9 M39.21 -0.8 C39.21 14.67, 39.46 30.76, 39.66 39.77 M40.36 40.37 C27.27 39.7, 12.4 42.22, -0.64 41.03 M39.1 40.04 C28.04 39.5, 16.28 39.44, -0.15 40.01 M1.97 41.67 C-1.53 29.64, 0.92 15.77, 1.47 -0.78 M-1 39.3 C0.03 28.74, 0.59 19.24, 0.69 -0.64" stroke="#000000" stroke-width="1" fill="none"></path></g><g stroke-linecap="round" transform="translate(50 210) rotate(0 20 20)"><path d="M0 0 C0 0, 0 0, 0 0 M0 0 C0 0, 0 0, 0 0 M0.13 6.84 C1.07 4.59, 2.14 2.48, 5.48 -0.1 M-0.28 6.74 C1.6 4.72, 3.32 2.64, 4.64 0.03 M0.67 12.74 C2.1 6.95, 6.97 3.36, 10.48 1.55 M0.44 11.5 C3.37 8.38, 7.46 3.68, 10.57 0.01 M-1.14 20.41 C3.11 13.94, 7.28 8.05, 15.76 1.57 M0.33 17.88 C3.21 14.97, 7.19 10.73, 16.24 0.63 M-1.51 22.72 C9.21 14.39, 13.88 8.48, 19.98 0.71 M0.23 23.62 C6.68 18.47, 12.98 10.86, 20.4 0.23 M0.02 28.59 C7.64 20.54, 13.57 11.74, 26.08 0.55 M-0.38 29.52 C7.78 20.86, 16.14 11.24, 26.87 0.02 M0.05 37.56 C6.4 28.18, 12.11 21.38, 32.39 0.88 M-0.11 36.86 C7.89 27.9, 15.49 20.36, 31.44 -0.01 M-0.3 42.76 C6.98 31.96, 16.68 25.31, 38.26 2.2 M1.75 40.42 C12.76 29.67, 23.33 18.03, 37.54 0.41 M5.58 41.29 C15.15 28.94, 25.56 15.75, 40.97 3.22 M6.35 42.3 C12.9 32.48, 21.63 25.36, 40.28 1.78 M11.49 39.99 C21.23 30.24, 30.53 20.47, 42.06 6.26 M11.94 40.07 C23.53 27.99, 33.11 14.62, 40.85 7.59 M18.57 41.51 C22.7 34.48, 27.84 29.2, 42.08 11.95 M16.26 42.29 C23.9 33.61, 32.4 23.88, 40.4 13.45 M21.56 40.86 C31.3 33.56, 35.08 25.6, 42.39 17.85 M21.79 41.38 C28.83 32.97, 36.25 24.39, 41.9 19.13 M26.48 39.49 C29.6 35.85, 36.92 33.61, 40.69 25.54 M27.58 41.22 C32.07 37.25, 35.79 33.62, 40.77 26 M33.04 41.15 C35.48 36.56, 38.09 33.62, 40.49 31.29 M32.85 41.25 C35.54 37.98, 39.24 34.12, 41.68 32.43 M38.57 41.66 C39.12 40.3, 40.95 38.87, 41.76 37.36 M38.53 41.26 C39.65 39.67, 41.12 38.23, 41.37 37.32" stroke="#228be6" stroke-width="0.5" fill="none"></path><path d="M-1.82 1.64 C8.46 0.79, 19.79 0.31, 39.98 -1.8 M0.71 0.85 C11.07 0.46, 20.61 -0.21, 39.42 0.74 M39.47 1.9 C42.21 12.26, 42.06 22.62, 38.41 38.35 M39.66 -0.23 C40.18 8.34, 40.37 16.27, 40.19 40.45 M39.36 41.03 C28.85 40.89, 17.71 38.6, 0.07 39.18 M39.85 40.01 C29.48 39.98, 19.35 40.8, 0.84 39.27 M1.47 39.22 C-1.05 25.67, -0.21 9.83, -1.39 -0.03 M0.69 39.36 C-0.92 31.18, -0.46 22.85, 0.52 0.93" stroke="#000000" stroke-width="1" fill="none"></path></g><g stroke-linecap="round" transform="translate(50 170) rotate(0 20 20)"><path d="M0 0 C0 0, 0 0, 0 0 M0 0 C0 0, 0 0, 0 0 M-0.69 5.76 C2.1 3.81, 3.53 1.95, 5.45 0.33 M0.09 6.37 C1.38 3.71, 3.92 1.67, 4.61 0.49 M-0.16 11.45 C3.71 9.55, 8.28 4.3, 12.08 0.58 M0.14 12.24 C2.58 9.19, 4.73 5.77, 9.87 -0.44 M-0.92 17.19 C6.37 12.46, 11.3 4.13, 13.75 1.25 M-0.36 19.27 C4.42 14.21, 8.15 9.7, 14.77 -0.56 M-0.78 25.23 C3.66 19.4, 9.42 11.7, 19.53 -0.14 M1.03 24.24 C4.64 18.05, 10.57 11.82, 22.08 -0.06 M-0.81 28.56 C5.16 24.71, 10.89 16.76, 28.05 -0.48 M-0.26 30.08 C6.15 24.07, 10.07 17.59, 26.15 0.45 M-2.14 37.49 C11.09 25.61, 20.02 12.04, 32.55 0.19 M0.35 37.83 C8.66 26.01, 17.74 15.23, 32.65 -0.98 M2.25 42.33 C16.9 27.23, 29.18 7.86, 34.91 0.87 M1.96 41.88 C10.48 31.18, 18.38 21.23, 36.09 -0.17 M4.54 39.67 C16.85 31.49, 25.4 16.05, 42.59 1.19 M7.29 41.69 C19.52 26.28, 34.29 9.91, 41.84 1.08 M11.66 42.28 C19.99 31.67, 28.37 25.18, 42.88 6.74 M11.38 40.06 C17.29 34.48, 23.32 26.14, 42.54 7.77 M17.54 41.07 C25.24 31.34, 31.95 23.57, 41.77 11.79 M17.88 40.54 C25.85 30.19, 37.17 19.93, 41.98 12.84 M21.34 41.72 C29.27 32.66, 34.95 29.03, 41.65 17.96 M22.44 40.41 C30 32.97, 35.38 26.96, 40.97 19.2 M29.1 42.69 C29.95 38.14, 33.04 36.09, 40.88 25.22 M28.43 42.17 C30.89 37.21, 36.08 31.2, 41.93 25.2 M32.54 39.95 C35.19 37.52, 38.91 35.14, 42.14 30.88 M33.89 40.34 C36.7 38.22, 39.25 34.13, 41.71 32.14 M38.74 41.42 C39.75 39.69, 41.33 38.69, 41.48 37.9 M38.53 41.23 C39.06 39.99, 40.23 39.22, 41.66 37.73" stroke="#228be6" stroke-width="0.5" fill="none"></path><path d="M1.81 0.3 C15.27 -1.95, 29.98 -1.45, 39.93 1.42 M-0.99 -0.22 C14.82 0.56, 30.82 0.78, 39.04 -0.27 M41.67 -1.57 C38.77 14.15, 38.39 30.47, 38.88 39.33 M40.6 0.18 C40.35 11.55, 39.89 22.02, 40.99 39.68 M39.56 38.21 C26.02 39.27, 11.07 38.82, -0.94 39.71 M40.08 40.98 C28.78 39.33, 16.42 40.56, -0.71 40.73 M-0.01 38 C-1.22 29.53, -1.77 20.21, -0.37 1.37 M-0.24 39.07 C0.8 31.49, 0.98 20.88, 0.67 0.03" stroke="#000000" stroke-width="1" fill="none"></path></g><g stroke-linecap="round" transform="translate(90 210) rotate(0 20 20)"><path d="M0 0 C0 0, 0 0, 0 0 M0 0 C0 0, 0 0, 0 0 M0.09 5.6 C0.78 4.47, 2.57 2.77, 5.78 0.76 M-0.53 6.2 C1.75 4.38, 3.26 2.36, 5.01 0.19 M1.71 11.29 C2.66 8.68, 4.08 6.65, 11.62 -0.99 M-0.31 11.7 C4.05 8.11, 7.35 5.09, 10.88 0.37 M-1.49 20.08 C3.7 11.69, 11.34 5.6, 16.39 -0.06 M-0.59 18.8 C4.69 14.98, 7.53 9.12, 15.92 0.08 M-1.62 24.56 C5.35 15.55, 11.56 8.49, 21.52 0.09 M-0.69 23.55 C4.7 18.45, 9.12 13.89, 20.99 -0.89 M0.69 29.91 C5.72 21.26, 13.34 16.34, 27.23 -1.01 M-0.02 31.04 C7.27 22.35, 15.98 12.6, 26.34 -0.65 M1.5 35.26 C9.75 25.66, 22.17 13.93, 33.83 -0.17 M-0.84 37.34 C7.55 29.21, 15.04 21.27, 32.04 -0.08 M1.37 39.21 C11.87 26.94, 21.48 16.29, 38.73 -1.72 M2.38 40.13 C8.08 33.25, 16.53 22.81, 37.29 0.44 M5.45 41.04 C16.01 30.05, 26.61 19.93, 40.46 2.81 M5.54 42.06 C18.64 26.18, 30.54 11.59, 41.79 0.46 M12.26 41.37 C17.94 33.19, 25.47 25.42, 40.14 6.96 M13.03 40.51 C20.59 32.88, 27.12 21.97, 41.64 7.8 M16.99 43.14 C26.88 29.46, 36.17 21.5, 39.38 14.97 M17.51 40.59 C25.15 31.98, 32.64 23.76, 40.66 13.28 M20.9 38.98 C28.37 34.91, 37.25 25.17, 41.17 19.23 M22.62 41.68 C29.73 33.93, 37.14 24.73, 41.63 20.29 M28.11 40.18 C28.66 36.58, 31.98 33.3, 40.54 26.25 M28.28 40.5 C32.02 37.62, 34.81 32.78, 42.44 25.79 M34.29 40.15 C36.06 39.55, 37.66 36.6, 40.9 33.04 M33.33 41 C35.96 38.06, 38.96 33.74, 40.8 31.74 M38.41 41.16 C39.59 39.83, 40.46 38.51, 41.61 37.81 M38.44 41.4 C39.08 40.52, 39.67 39.72, 41.46 37.47" stroke="#228be6" stroke-width="0.5" fill="none"></path><path d="M1.9 1.83 C16.01 1.78, 30.12 -1.49, 38.35 -1.98 M-0.23 0.41 C9.99 0.73, 19.58 0.32, 40.45 -0.27 M41.03 -0.23 C40.89 10.89, 38.6 22.74, 39.18 39.18 M40.01 -0.15 C39.98 9.53, 40.8 19.73, 39.27 40.52 M39.22 39.14 C25.79 40.28, 10.06 38.9, -0.03 38.05 M39.36 39.3 C25.1 40.04, 10.7 40.8, 0.93 40.7 M-0.63 39.26 C0.57 30.69, 0.95 18.59, -0.74 -0.27 M0.38 40.37 C-1.04 27.63, -0.21 15.91, -0.82 -0.25" stroke="#000000" stroke-width="1" fill="none"></path></g><g stroke-linecap="round" transform="translate(90 170) rotate(0 20 20)"><path d="M0 0 C0 0, 0 0, 0 0 M0 0 C0 0, 0 0, 0 0 M-1.06 5.85 C0.66 4.83, 1.81 4.67, 5.39 0.61 M-0.46 6.73 C1.77 4.17, 3.79 1.74, 4.81 0.08 M-0.61 12.04 C1.71 8.46, 4.61 7.98, 9.67 0.07 M-0.21 12.62 C2.06 10.27, 4.91 7.36, 11.03 0.15 M1.51 17.04 C2.39 15.79, 5.55 11.5, 15.23 -1.01 M0.24 19.42 C4.01 14.8, 5.73 11.08, 15.37 0.52 M0.74 22.66 C7.47 13.14, 16.13 6.09, 21.42 -1.55 M-0.27 24 C8.29 14.46, 17.37 5.17, 20.44 -0.65 M-0.57 29.82 C5.7 22.23, 15.7 13.83, 24.94 0.05 M0.57 30.29 C9.3 21.39, 16.98 10.48, 25.3 0.62 M-1.87 36.47 C12.95 24.01, 25.62 10.74, 31.83 -1.73 M0.2 37.29 C6.64 30.47, 13.28 22.29, 31.91 -0.08 M-0.35 40.4 C7.56 30.31, 17.06 24.85, 34.9 -1.5 M0.57 40.4 C15.41 25.96, 26.71 11.02, 37.06 0.01 M6.1 41.63 C18.75 28.32, 32.26 11.75, 42.64 2.64 M7.13 41.19 C18.44 26.21, 31.05 13.15, 40.29 0.74 M12.48 40.17 C23.92 27.32, 35.8 12.75, 41.55 6.4 M11.61 41.61 C22.67 28.98, 30.4 18.89, 42.39 7.83 M18.87 42.08 C24.7 31.95, 36.22 19.04, 42.9 14.08 M16.32 41.4 C25.03 31.52, 34.09 22.19, 41.21 13.98 M20.74 40.02 C29.55 36.4, 32.66 29, 40.5 21.16 M23.45 41.14 C28.43 36.11, 31.97 30.08, 41.56 18.97 M26.58 39.36 C31.17 34.2, 36.07 29.38, 42.27 25.39 M26.89 41.65 C33.94 34.29, 39.01 30.21, 41.81 25.01 M32.58 41.68 C37.31 37.74, 39.69 33.6, 42.4 32.58 M33.43 40.66 C35.91 38.34, 37.02 35.54, 41.1 32.29 M38.22 41.31 C39.34 39.74, 40.48 38.86, 41.92 37.08 M38.45 41.31 C39.45 39.95, 40.53 38.67, 41.58 37.51" stroke="#228be6" stroke-width="0.5" fill="none"></path><path d="M1.83 0.16 C9.84 -1.95, 14.75 -2.03, 38.02 -1.15 M0.41 0.29 C10.37 0.27, 19.72 0.54, 39.73 -0.17 M39.77 0.49 C39.43 14.17, 39.95 31.09, 39.18 38.72 M39.85 0.16 C40.03 11.11, 40.78 19.52, 40.52 40.49 M39.14 39.76 C30.83 37.85, 20.3 39.82, -1.95 41.09 M39.3 39.29 C28.49 38.81, 17.99 40.68, 0.7 39.77 M-0.74 40.84 C1.75 26.53, 0.73 9.86, -0.27 0.15 M0.37 39.06 C-0.23 26.92, 0.35 13.24, -0.25 0.88" stroke="#000000" stroke-width="1" fill="none"></path></g><g stroke-linecap="round" transform="translate(90 130) rotate(0 20 20)"><path d="M0 0 C0 0, 0 0, 0 0 M0 0 C0 0, 0 0, 0 0 M-0.81 6.25 C1.17 4.36, 4 2.83, 5.23 1.09 M0.07 6.4 C1.65 4.35, 3.35 2.17, 4.71 -0.02 M0.14 11.4 C1.63 9.19, 6.24 5.11, 10.74 -1.53 M0.71 11.86 C4.5 8.41, 7.71 4.13, 10.81 -0.71 M-1.53 17.39 C4.47 13.21, 7.41 10.28, 14.29 -1.41 M0.86 19.21 C4.77 12.15, 9.59 7.4, 15.81 1.14 M-1.16 23.27 C4.89 16.6, 13.39 9.65, 19.77 1.73 M0.18 23.82 C5.59 18.5, 11.21 10.74, 20.68 -0.16 M-0.65 28.6 C8.8 21.53, 17.45 10.2, 26.01 0.95 M-0.19 31.08 C9.22 20.39, 16.61 10.4, 26.57 1.05 M-0.67 37.68 C7.56 30.67, 15.01 21.37, 30.26 -2.07 M0.15 37.39 C11.45 25.18, 21.36 12.32, 31.91 -0.89 M0.84 39.11 C8.87 30.62, 21.53 18.4, 35.12 1.64 M0.84 41.87 C11.7 28.54, 22.09 17.8, 36.63 0.89 M6.7 40.95 C17.34 31.07, 24.69 21.23, 42.48 2.65 M6.26 40.67 C15.83 28.93, 27.28 17.32, 40.57 2.31 M11.27 41.45 C22.86 28.91, 32.73 15.39, 40.99 7.45 M12.71 41.79 C17.43 32.73, 24.73 27.02, 42.41 7.66 M17.81 39.96 C23.74 35.66, 26.88 29.14, 42.01 13.98 M17.14 41.07 C21.45 36.54, 26.34 29.79, 41.91 13.3 M21.79 42.35 C28.68 35.29, 31.77 30.44, 42.43 19.22 M22.91 41.67 C28.89 34.02, 33.86 29.1, 40.24 20.27 M25.76 39.97 C29.86 35.83, 34.3 33.47, 41.41 27.01 M28.05 42.22 C29.68 38.73, 34.59 34.82, 41.04 26.28 M34.12 41.91 C36.37 38.17, 38.43 35.85, 41.94 31.54 M33.09 41.39 C36.26 36.87, 38.95 33.86, 41.65 31.97 M38.37 41.27 C39.3 39.88, 40.91 38.62, 41.2 37.61 M38.37 41.37 C39.5 39.91, 40.71 38.29, 41.62 37.36" stroke="#228be6" stroke-width="0.5" fill="none"></path><path d="M0.16 1.67 C9.36 -1.96, 20.21 -2.34, 38.85 -1.12 M0.29 0.6 C10.83 0.02, 21.75 -0.43, 39.83 0.99 M40.49 -0.44 C38.41 10.8, 39.38 20.63, 38.72 39.06 M40.16 0.08 C40.99 12.25, 39.27 23.36, 40.49 39.29 M39.76 39.99 C23.07 38.44, 10.1 37.88, 1.09 39.63 M39.29 39.76 C24.32 40.24, 11.44 40.42, -0.23 40.67 M0.84 41.77 C1.35 28.63, -0.62 15.51, 0.15 0.48 M-0.94 39.92 C-0.27 27.01, -0.98 12.79, 0.88 -0.84" stroke="#000000" stroke-width="1" fill="none"></path></g><g stroke-linecap="round" transform="translate(130 210) rotate(0 20 20)"><path d="M0 0 C0 0, 0 0, 0 0 M0 0 C0 0, 0 0, 0 0 M-0.32 6.44 C1.4 3.51, 3.01 1.35, 5.77 -0.01 M-0.23 6.65 C1.1 4.64, 2.54 2.99, 4.76 0.19 M1.14 12.53 C4.88 7.82, 6.64 1.53, 9.54 1.28 M-0.38 12.35 C2.45 8.67, 4.33 6.4, 10.26 0.26 M-1.86 19.04 C5.51 11.58, 13.92 3.99, 13.73 0.8 M-0.21 18.57 C3.63 13.7, 8.06 9.91, 14.66 -0.21 M1.52 23.54 C4.82 15.96, 12.39 10.39, 21.94 -0.64 M0.51 24.57 C5.45 17.45, 12.03 11.26, 21.24 0.49 M-0.89 30.66 C5.3 22.4, 16.08 11.52, 28 -1.33 M0.7 31.45 C7.18 21.06, 13.57 13.74, 25.66 0.75 M1.08 37.18 C10.56 24.03, 19.9 10.52, 31.81 -1.9 M-0.37 37.8 C7.78 26.3, 18.12 17.11, 32.82 -0.98 M-0.4 41.83 C9.94 30.64, 19.32 20.8, 35.89 -0.08 M1.68 40.64 C13.35 28.65, 24.36 15.12, 35.98 0.95 M4.93 42.53 C14.71 29.13, 28.22 20.61, 41.39 1.77 M6.81 40.64 C15.34 30.73, 24.61 19.84, 42.16 0.9 M10.19 41.05 C24.09 30.51, 34.51 15.41, 41.52 8.82 M12.73 40 C23.04 29.75, 32.5 17.05, 42.04 6.27 M18.7 39.97 C24.33 34.04, 31.81 23.11, 39.53 11.45 M16.68 41.38 C22.74 34.76, 28.9 26.87, 41.25 14.15 M21.31 42.04 C29.39 32.34, 35.23 26.75, 41.49 18.69 M22.11 40.48 C26.98 36.77, 31.09 31.69, 41.66 19 M29.26 43.22 C32.85 35.24, 38.45 31.76, 43.06 24.19 M28 41.04 C33.58 36.09, 37.35 30.52, 41.45 25.6 M32.21 40.09 C35.08 39.45, 37.58 37.35, 41.4 31.58 M33.45 40.91 C36.15 37.67, 38.34 35.89, 41.48 32.16 M38.58 40.97 C39.31 40.1, 40.14 38.53, 41.33 37.43 M38.57 41.22 C39.52 40.23, 40.21 39.18, 41.76 37.64" stroke="#228be6" stroke-width="0.5" fill="none"></path><path d="M0.37 0.9 C12.62 -0.41, 28.29 -0.71, 41.03 -0.23 M0.04 -0.41 C12.57 -0.28, 25.49 0.21, 40.01 -0.15 M41.67 -1.46 C41.08 13.63, 38.61 26.77, 39.22 39.14 M39.3 -0.01 C39.02 12.07, 39.81 23.73, 39.36 39.3 M41.05 41.87 C32.25 39.16, 23.06 39.68, -0.63 39.26 M40.37 39.63 C26.18 40.32, 12.88 40.62, 0.38 40.37 M0.99 38.35 C-0.46 33.53, -1.65 24.51, 1.11 -0.15 M0.61 39.43 C0.29 28.71, 0.8 17.82, 0.87 0.6" stroke="#000000" stroke-width="1" fill="none"></path></g><g stroke-linecap="round" transform="translate(130 170) rotate(0 20 20)"><path d="M0 0 C0 0, 0 0, 0 0 M0 0 C0 0, 0 0, 0 0 M-0.22 6.05 C0.74 3.83, 2.47 3.56, 4.61 0.36 M-0.01 6.16 C1.17 4.45, 2.69 3.03, 4.82 0.65 M0.63 12.85 C3.31 7.28, 4.43 4.19, 11.94 -1.16 M0.44 11.89 C2.13 8.42, 5.24 5.75, 10.92 0.75 M0.47 17.94 C6.17 13.38, 11.73 3.04, 16.1 -1.1 M0 18.52 C3.39 14.65, 7.83 8.09, 15.08 0.24 M-0.28 22.45 C4.95 17.15, 12.17 11.41, 20.69 -0.73 M0.76 23.43 C4.39 19.39, 8.98 14.06, 21.82 -0.26 M0.19 28.59 C9.83 21.23, 16.89 10.58, 24.63 -0.12 M0.98 30.45 C7.92 19.05, 17.97 9.17, 26.71 0.7 M0.04 36.93 C10.77 22.09, 21.16 10.59, 30.09 -0.71 M0.67 35.89 C5.77 30.03, 13.14 22.69, 31.01 -0.71 M2.27 41.38 C14.48 26.89, 28.05 8.92, 36.54 0.52 M1.08 41.73 C11.7 30.21, 20.8 17.31, 37.57 0.08 M7.59 39.54 C13.52 34.32, 24.28 23.44, 41.6 0.56 M5.7 41.34 C17.44 28.52, 28.19 16.31, 40.74 2 M12.16 42.55 C25.24 29.58, 33.72 15.26, 43.41 7.75 M11.1 41.75 C19.11 33.22, 24.68 25.52, 40.86 7.08 M15.7 41.08 C24.99 33.29, 29.25 24.08, 39.38 12.49 M17.11 41.05 C26.54 30.79, 34.73 20.66, 42.08 13.61 M23.81 41.89 C27.7 34.1, 35.73 25.71, 39.96 17.87 M22.24 41.34 C27.13 36.9, 30.64 31.77, 40.27 20.16 M29.62 41.98 C32.36 36.65, 39.59 30.37, 40.21 26.75 M27.44 42.29 C33.54 34.93, 39.03 29.09, 41.62 25.04 M32.52 40.68 C37.23 37.76, 40.47 34.28, 40.94 31.96 M33.34 41.28 C35.27 38.31, 38.66 35.72, 41.52 31.96 M38.03 41.22 C39.48 39.71, 40.22 38.41, 41.54 37.49 M38.27 41.49 C39.5 39.92, 40.66 38.9, 41.76 37.51" stroke="#228be6" stroke-width="0.5" fill="none"></path><path d="M0.9 -0.54 C14.06 1.9, 28.15 0.95, 39.77 0.49 M-0.41 -0.41 C10.48 -0.48, 22.08 0, 39.85 0.16 M38.54 1.04 C41.38 10.92, 41.86 23.9, 39.14 39.76 M39.99 -0.97 C40.15 11.79, 40.29 23.31, 39.3 39.29 M41.87 41.4 C28.49 41.56, 17.95 39.58, -0.74 40.84 M39.63 39.86 C24.54 40.39, 9.31 40.53, 0.37 39.06 M-1.65 39.51 C1.81 26.64, 1.03 17.74, -0.15 -0.46 M-0.57 40.07 C0.11 30.75, 0.28 21.2, 0.6 0.52" stroke="#000000" stroke-width="1" fill="none"></path></g><g stroke-linecap="round" transform="translate(130 130) rotate(0 20 20)"><path d="M0 0 C0 0, 0 0, 0 0 M0 0 C0 0, 0 0, 0 0 M-0.61 5.84 C0.69 4.03, 3.94 2.1, 4.99 0.04 M-0.5 6.42 C0.61 5.11, 2.01 3.32, 5.28 0.27 M0.94 12.41 C2.73 5.95, 7.02 4.06, 9.51 -0.87 M-0.02 11.51 C3.27 7.65, 7.34 3.66, 11.42 0.58 M-0.63 18.83 C6.63 12.7, 8.07 7.45, 14.2 -0.49 M-0.05 17.7 C4 14.34, 5.35 10.49, 15.53 0.06 M-1.37 22.92 C5.38 18.17, 11.71 11.02, 20.6 -1.95 M-0.39 23.96 C7.48 16.13, 14.07 8.56, 21.07 0.54 M-1.89 31.13 C12.04 16.76, 22.65 4.96, 25.84 1.09 M-0.03 29.67 C8.41 19.49, 18.4 8.6, 26.66 0.81 M-0.21 36.92 C10.36 21.66, 24.29 6.41, 31.28 -2.01 M-1.25 36 C7.38 28.54, 14.53 19.81, 31.28 0.75 M1.81 40.51 C14.85 26.75, 24.36 13.48, 37.14 -0.17 M2.17 41.65 C14.93 26.13, 26.31 12.09, 36.7 -0.45 M4.61 40.1 C15.85 34.35, 21.39 24.91, 40.4 1.84 M6.41 41.06 C16.48 29.34, 27.19 18.21, 41.84 2.19 M13.65 42.6 C20.19 32.33, 25.33 27.81, 42.34 5.64 M12.86 41.31 C22.15 28.83, 32.31 17.5, 41.67 6.74 M16.81 42.48 C22.6 33.39, 27 25.76, 40.42 14.82 M16.78 42.01 C25.85 30.89, 35.03 21.44, 41.54 14.14 M23.66 39.26 C30.87 32.17, 37.46 23.39, 39.14 18.48 M23.11 40.91 C27.66 35.56, 31.51 30.91, 41.43 20.72 M28.37 40.42 C32.07 38.87, 34.82 33.39, 42.77 27.12 M28.69 41.91 C31.94 36.93, 36.72 31.02, 41.06 26.26 M33.11 41.79 C35.9 39.5, 38.11 35.53, 41.32 31.86 M33.71 40.42 C35.33 39.29, 37.33 36.92, 41.32 32.09 M38.28 41.29 C38.93 39.93, 39.79 39.2, 41.61 37.64 M38.55 41.39 C39.48 40.03, 40.95 38.54, 41.63 37.54" stroke="#228be6" stroke-width="0.5" fill="none"></path><path d="M-0.54 -0.33 C14.7 -0.82, 26.46 -0.41, 40.49 -0.44 M-0.41 -0.64 C7.95 0.02, 16.85 0.02, 40.16 0.08 M41.04 0.98 C38.91 17.4, 39.56 31.02, 39.76 39.99 M39.03 0.55 C39.54 8.69, 39.08 15.31, 39.29 39.76 M41.4 39.54 C33.08 40.43, 22.83 39.63, 0.84 41.77 M39.86 40.07 C25.79 40.22, 11.48 40.22, -0.94 39.92 M-0.49 41.77 C-1.88 29.45, 0.91 16.78, -0.46 -1.08 M0.07 39.79 C0.34 31.15, 0.62 22.97, 0.52 0.88" stroke="#000000" stroke-width="1" fill="none"></path></g><g stroke-linecap="round" transform="translate(170 210) rotate(0 20 20)"><path d="M0 0 C0 0, 0 0, 0 0 M0 0 C0 0, 0 0, 0 0 M-0.76 6.45 C1.57 4.41, 2.45 2.61, 5.36 -0.09 M0.07 6.65 C1.17 5.06, 2.49 2.97, 4.63 0.09 M1.05 11.02 C4.85 7.17, 7.17 1.48, 10.57 -0.78 M0.26 11.35 C3.79 7.7, 7.23 4.49, 10.64 -0.79 M-2.05 18.27 C5.36 12.8, 8.72 8.57, 14.85 -1.59 M-0.53 19.07 C3.5 13.2, 7.07 9.45, 15.77 0.67 M0.88 24.58 C7.03 16.42, 11.5 11.82, 21.55 -0.11 M1.22 23.63 C7.88 14.41, 15.59 7.52, 20.38 0.81 M1.32 31.86 C7.76 23.7, 9.94 15.18, 26.86 -0.88 M0.87 31.15 C9.11 19.93, 18.05 8.68, 25.82 0.25 M-1.96 36.64 C8.46 27.43, 11.61 23.02, 31.71 1.75 M0.06 35.95 C7.19 28.95, 13.34 21.56, 31.59 -0.6 M2.75 41.47 C10.68 30.98, 22.74 19.28, 36.6 -1.55 M0.53 40.26 C15.17 25.31, 27.03 12.12, 37.63 0.35 M6.18 42.11 C16.25 28.45, 28.22 16.14, 39.59 3.27 M5.64 40.43 C15.03 31.75, 24.61 21.47, 40.63 1.33 M12.86 42.28 C21.52 29.48, 35.67 15.24, 39.76 7.9 M11.55 41.79 C18.03 33.27, 25.94 25.63, 40.99 6.11 M18.46 40.55 C22.18 34.95, 28.34 29.31, 41.1 13.24 M17.93 40.64 C26.65 31.18, 34.34 20.72, 41.09 13.62 M21.12 39.74 C26.46 36.71, 31.82 32.31, 39.45 20.97 M21.77 41.72 C27.63 36.48, 30.26 32.33, 41.56 20.6 M28.3 41.92 C30.34 39.41, 35.34 33.16, 43.12 25.41 M27.55 40.36 C31.42 36.01, 37.17 31.41, 42.41 25.61 M32.59 41.13 C35.52 39.14, 36.72 36.15, 42.28 32.39 M33.14 41.21 C35.73 37.64, 38.88 34.21, 40.79 31.52 M38.74 41.75 C39.16 40.62, 40.45 38.96, 42.01 37.79 M38.08 41.28 C39.63 39.73, 40.88 38.4, 41.37 37.67" stroke="#228be6" stroke-width="0.5" fill="none"></path><path d="M-1.79 0.07 C10.72 -0.73, 21.81 -0.85, 39.71 0.03 M0.98 0.84 C10.67 0.49, 23.3 -0.75, 40.73 -0.39 M38 -1.39 C39.92 8.34, 41.04 20.21, 41.37 38.72 M39.07 0.52 C40.65 9.9, 39.48 19.08, 40.03 39.69 M41.22 40.74 C28.74 40.08, 19.1 40.84, 0.74 40.76 M39.88 40.49 C25.71 39.72, 13.94 39.13, 0.49 40.55 M-1.59 41.22 C-1.05 28.43, -0.33 17.74, -0.08 1.73 M-0.06 39.12 C-1.03 26.01, -0.29 10.3, 0.33 0.44" stroke="#000000" stroke-width="1" fill="none"></path></g><g stroke-linecap="round" transform="translate(170 170) rotate(0 20 20)"><path d="M0 0 C0 0, 0 0, 0 0 M0 0 C0 0, 0 0, 0 0 M-0.21 6.9 C0.86 4.67, 2.16 3.18, 4.54 0.02 M-0.01 6.52 C1.91 4.19, 3.33 1.5, 4.71 0.69 M-0.89 12.66 C2.3 8.14, 3.64 6.37, 9.89 0.55 M-0.56 12.28 C4.02 7.37, 9.06 2.41, 9.88 0.16 M-0.29 18.69 C3.71 12.96, 8.96 9.53, 13.7 -0.74 M0.5 18.17 C3.69 12.64, 9.01 8.09, 15.96 0.04 M0.76 25.07 C4.79 17.33, 12.36 11.41, 21.22 1.05 M-0.18 24.17 C5.07 17.43, 12.67 9.44, 22.14 -0.88 M1.39 32.42 C7.15 20.25, 12.59 14.05, 25.07 1.21 M0.67 30.63 C8.82 19.98, 16.96 9.23, 26.21 -0.61 M-0.49 38.73 C6.79 25.42, 18.81 17.02, 33.75 -1.86 M-1.18 37.29 C7.3 27.67, 15.44 18.78, 31.4 -0.27 M1.9 40.26 C14.06 29.29, 25 14.98, 35.07 1.64 M0.7 41.59 C10.82 29.2, 22.68 19.07, 36.97 0.45 M7.17 39.91 C15.32 30.42, 24.83 19.03, 43.11 0.44 M5.49 41.41 C19.52 27.94, 31.99 12.04, 41.17 2.27 M13.39 39.01 C23.82 30.08, 32.78 16.13, 42.48 5.52 M12.9 40.29 C21.1 31.29, 30.17 19.69, 40.7 6.03 M16.29 41.42 C22.45 35.43, 28.6 26.76, 41.17 14.9 M16.37 41.89 C25.11 31.35, 32.86 23, 41.55 12.85 M21.51 40.01 C27.38 36.73, 31.86 30.88, 42.24 18.2 M23.49 41.9 C29.01 33.59, 35.66 27.42, 41.87 19.18 M28.31 40.78 C34.57 36.7, 37.09 31.34, 41.43 25.75 M26.76 40.62 C30.95 37.95, 34.9 34.05, 41.63 25.23 M33.57 40.91 C36.52 37.17, 38.47 36.43, 41.75 32.46 M33.64 40.55 C35.75 38.08, 38 34.75, 40.89 31.77 M38.81 41.16 C39.74 40.35, 40.14 39.38, 41.91 37.79 M38.34 41.4 C39.16 40.33, 40.19 38.74, 41.78 37.63" stroke="#228be6" stroke-width="0.5" fill="none"></path><path d="M0.07 -0.82 C12.16 -0.92, 25.02 0.07, 40.03 -0.3 M0.84 -0.73 C13.17 0.1, 24.59 0.34, 39.61 -0.43 M38.61 -0.03 C38.05 12.61, 39.63 24.41, 38.72 38.6 M40.52 0.93 C40.6 8.91, 40.58 18.32, 39.69 39.63 M40.74 39.26 C26.04 40.39, 13.12 40.99, 0.76 40.74 M40.49 39.18 C31.52 40.84, 22.68 40.45, 0.55 39.93 M1.22 38.86 C0.35 28.5, 1.38 17.78, 1.73 1.19 M-0.88 39.18 C0.04 25.83, -1.29 12.14, 0.44 -1" stroke="#000000" stroke-width="1" fill="none"></path></g><g stroke-linecap="round" transform="translate(170 130) rotate(0 20 20)"><path d="M0 0 C0 0, 0 0, 0 0 M0 0 C0 0, 0 0, 0 0 M0.24 5.92 C1.19 4.07, 2.88 2.81, 4.65 0.94 M-0.14 6.6 C1.23 4.35, 2.24 2.75, 5.32 0.08 M0.75 11.73 C1.6 7.73, 5.21 5.38, 11.21 1.54 M0.37 11.84 C4.23 8.24, 8.03 2.28, 10.82 -0.6 M0.13 18.6 C2.64 15.56, 7.45 7.14, 14.55 0.16 M-0.4 17.62 C3.67 13.29, 8.72 8.76, 15.33 0 M1.25 22.78 C4.28 19.71, 9.12 14.04, 22.38 -0.45 M0.36 23.14 C7.93 16.23, 14.3 7.64, 20.45 -0.27 M1.95 30.42 C7.11 18.07, 18.27 8.58, 27.16 1.11 M0.16 30.5 C8.99 18.91, 17.76 9.04, 25.35 -0.01 M1.6 34.9 C4.89 30.72, 13.05 23.62, 30.13 -1.32 M0.15 37.06 C11.77 23.55, 24.12 8.16, 31.72 0.03 M0.7 42.45 C12.33 30.85, 20.66 16.4, 38.26 -0.1 M2.03 40.1 C9.33 32.85, 18.85 22.65, 37.08 -0.15 M4.97 41.32 C17.13 28.73, 27.38 17.26, 40.27 2.63 M6.47 42.16 C20.83 27.08, 32.71 11.14, 42.11 1.74 M10.12 42.53 C19.44 33.5, 23.75 25.96, 40.11 7.15 M11.4 40.85 C20.89 31.35, 27.77 21.29, 40.62 6.55 M17.16 40.76 C27.22 30.5, 34.62 20.58, 42.83 13.81 M17.62 41.81 C25.04 31.55, 34.69 20.87, 40.78 12.44 M21.78 41.74 C27.1 37.67, 29.82 32.35, 39.47 20.52 M23.67 41.28 C29.66 33.36, 37.77 25.05, 40.45 20.46 M27.18 43.28 C34.15 34.67, 39.85 29.07, 41.77 24.63 M27.02 41.11 C33.7 35.59, 39.14 29.53, 41.25 25.54 M33.34 41.66 C34.78 38.44, 39.19 35.99, 41.83 32.07 M32.99 40.85 C36.08 37.48, 38.31 34.38, 41.13 31.85 M38.22 41.71 C39.62 39.85, 40.86 39.05, 41.91 37.53 M38.46 41.09 C39.61 39.91, 40.22 39.03, 41.74 37.49" stroke="#228be6" stroke-width="0.5" fill="none"></path><path d="M-0.82 -0.82 C9.84 -0.95, 21.94 0.01, 39.7 0.32 M-0.73 0.52 C12.83 -1.05, 25.41 -0.72, 39.57 -0.12 M39.97 -1.95 C40.69 11.61, 40.97 22.67, 38.6 38.57 M40.93 0.7 C39.4 11.73, 39.65 21.79, 39.63 40.42 M39.26 39.73 C24.62 40.63, 9.68 40.9, 0.74 38.12 M39.18 39.75 C29.2 39.36, 17.13 40.75, -0.07 39.77 M-1.14 40.14 C-0.11 31.33, 0.24 22.06, 1.19 1.05 M-0.82 40.39 C-0.05 23.56, 0.36 9.43, -1 -0.68" stroke="#000000" stroke-width="1" fill="none"></path></g><g stroke-linecap="round" transform="translate(210 210) rotate(0 20 20)"><path d="M0 0 C0 0, 0 0, 0 0 M0 0 C0 0, 0 0, 0 0 M0.2 6.37 C1.7 5.42, 2.71 4.17, 4.94 -0.34 M-0.64 6.53 C1.03 4.69, 1.73 3.7, 4.84 0.32 M1.58 12.65 C3.18 6.38, 9.78 2.38, 11.03 -0.15 M-0.62 11.63 C4.18 8.05, 6.61 4.41, 10.13 0.02 M-2 19.36 C4.57 11.01, 12.84 4.85, 17.29 1.58 M-0.97 17.55 C4.31 13.23, 9.5 5.89, 16.19 -0.32 M-1.47 24.01 C6.5 16.77, 16.51 9.4, 21.57 -1.8 M1.08 24.09 C6.31 16.31, 13.47 7.69, 20.3 -0.15 M1.81 29.71 C6.27 20.16, 16.23 11.27, 25.44 1.54 M-0.09 30.64 C7.75 22.11, 14.25 13.21, 26.55 0.54 M0.4 37.17 C11.17 25.12, 22.05 12.3, 33.8 -1 M0.5 36 C10.91 24.53, 19.76 14.31, 32.55 0.59 M-0.51 41.62 C14.35 26.03, 30.42 9.97, 38.62 1.59 M0.66 40.58 C12.56 27.27, 23.46 14.37, 36.03 0.14 M7.82 41.19 C22.34 24.21, 32.92 11.98, 41.85 -0.48 M7.07 41.08 C17.73 27.65, 30.21 13.97, 41.86 1.6 M13.36 40.7 C17.78 33.25, 26.98 21.55, 39.77 5.51 M13.02 41.73 C23.04 29.21, 33.12 17.09, 41.47 7.38 M17.5 39.72 C24.48 34.14, 29.34 30.38, 39.75 11.53 M17.71 40.76 C24.18 33.56, 31.96 23.49, 41.73 14.07 M23.28 39.09 C27.14 35.12, 30.1 31.81, 40.01 21.44 M22.6 40.33 C26.08 34.96, 30.78 31.75, 41.77 19.42 M27.1 41.07 C31.76 37.87, 36.53 33.02, 43.2 24.05 M28.16 41.05 C32.72 35.23, 36.43 29.5, 40.68 24.85 M34.27 39.93 C35.99 37.65, 37.72 37.42, 40.08 32.79 M33.84 41.19 C36.9 36.98, 39.93 34.27, 41.39 32.03 M38.2 41.68 C39.18 40.29, 39.88 39.58, 41.53 37.02 M38.38 41.5 C39.13 40.31, 39.88 39.49, 41.45 37.54" stroke="#228be6" stroke-width="0.5" fill="none"></path><path d="M-0.07 1.42 C10.11 0.79, 17.71 -1.72, 39.56 -1.16 M-0.96 -0.27 C15.92 0.53, 30.01 0.45, 39.21 -0.8 M38.88 -0.67 C39.15 9.51, 40.18 18.58, 40.36 40.37 M40.99 -0.32 C40.41 13.69, 40.14 27.39, 39.1 40.04 M39.06 39.71 C29.67 39.45, 19.62 39.91, 1.97 41.67 M39.29 40.73 C30.54 39.77, 21.74 40.19, -1 39.3 M-0.37 41.37 C-0.89 26.66, -1.04 15.63, -1.86 1.05 M0.67 40.03 C-0.59 23.9, 0.14 9.42, 0.61 0.37" stroke="#000000" stroke-width="1" fill="none"></path></g><g stroke-linecap="round" transform="translate(210 170) rotate(0 20 20)"><path d="M0 0 C0 0, 0 0, 0 0 M0 0 C0 0, 0 0, 0 0 M-0.91 6.23 C2.09 4.61, 4.29 2.59, 4.96 -0.29 M-0.08 6.56 C0.99 5.56, 2.11 4.05, 5 0.37 M-1.3 11.56 C0.99 8.01, 4.64 8.18, 9.05 -1.44 M-0.57 11.56 C4.7 7.74, 7.15 3.36, 10.78 -0.23 M-0.46 18.7 C5.22 13.24, 11.81 4.61, 17.05 1.6 M0.56 18.26 C4.92 11.07, 10.6 5.97, 14.7 -0.31 M0.66 23.27 C8.82 14.3, 17.35 3.59, 21.21 -0.68 M-0.2 24.71 C8.03 15.32, 13.02 8.38, 22.05 0.74 M1.81 31.22 C8.36 20.27, 20.61 6.53, 27.8 0.96 M-0.74 30.55 C8.64 19.91, 18.35 9.84, 26.12 0.86 M-2.22 35.95 C10.66 27.88, 17.75 15.9, 31.31 1.25 M0.49 37.08 C9.21 27.77, 16.46 17.46, 32.37 -0.95 M0.33 39.07 C12.47 25.25, 24.85 11.82, 37.67 0.19 M0.64 41.36 C16.07 24.47, 29.32 10.99, 37.22 -0.18 M5.18 42.66 C21.22 26.38, 33.49 9.94, 43.19 2.59 M6.58 40.96 C16.44 30.27, 24.23 18.77, 41.02 2.1 M11.63 41.15 C21.19 28.83, 30.98 19.26, 42.85 5.37 M12.59 41.16 C21.7 29.57, 31.32 18.35, 41.51 7.06 M16.79 41.33 C23.88 36.19, 31.22 27.19, 43.11 14.37 M17.66 41.41 C23.63 32.62, 30.09 26.52, 40.65 14.19 M23.8 40.89 C27.89 33.97, 31.86 32.05, 41.67 20.92 M21.86 41.3 C25.81 37.61, 30.64 33.2, 41.51 20.36 M29.5 40.54 C29.24 38.9, 36.26 32.4, 40.99 26.92 M27.09 41.04 C33.03 35.82, 37.72 29.36, 41.9 26.28 M32.94 41.58 C36.8 37.6, 38.53 35.66, 40.07 32.63 M33.36 40.9 C36.99 36.9, 39.86 34.24, 40.75 31.47 M38.17 41.02 C39.35 40.54, 39.52 39.11, 41.74 37.63 M38.15 41.38 C39.03 40.7, 39.83 39.95, 41.76 37.42" stroke="#228be6" stroke-width="0.5" fill="none"></path><path d="M-2 -1.36 C7.89 -0.91, 16.32 1.81, 41.01 0.61 M-0.5 0.83 C15.63 0.52, 31.19 0.33, 39.57 -0.7 M39.07 0 C39 6.97, 39.93 17.66, 38.8 40.13 M39.57 0.73 C39.96 9.09, 40.81 16.83, 40.5 40.23 M41.64 38.6 C30.33 40.88, 21.46 40.5, -0.39 38.67 M40.36 40.99 C32.23 39.97, 22.06 40.11, -0.25 40.19 M0.48 38.58 C-0.81 22.81, -0.17 9.71, 0.16 -1.49 M-0.53 39.92 C-0.11 23.99, 0.78 8.51, -0.82 -0.58" stroke="#000000" stroke-width="1" fill="none"></path></g><g stroke-linecap="round" transform="translate(210 130) rotate(0 20 20)"><path d="M0 0 C0 0, 0 0, 0 0 M0 0 C0 0, 0 0, 0 0 M-0.62 6.47 C0.42 4.91, 3.26 2.25, 5.69 -0.29 M0.02 6.79 C1.17 4.35, 2.25 3.11, 4.75 0.54 M1.2 12.28 C3.69 7.87, 5.97 3.03, 10.57 -1.47 M0.04 12.78 C2.29 8.17, 6.46 5.54, 11.37 -0.74 M-1.98 19.26 C3.85 13.55, 8.51 9.13, 14.63 -0.01 M0.1 18.06 C5.56 13.3, 10.41 6.86, 14.72 1.02 M-1.24 25.24 C4.53 16.19, 14.16 12.14, 21.44 0.33 M0.63 23.35 C5.63 17.53, 11.33 10.76, 22.21 -0.54 M-1.88 30.56 C10.86 21.36, 20.09 7.63, 26.17 2.1 M0.66 29.5 C9.83 20.54, 18.18 9.11, 26.69 -0.45 M1.38 35.51 C9.45 26.85, 19.34 13.14, 30.08 -2.07 M-0.65 36.92 C7.35 27.94, 15.51 17.76, 31.8 0.64 M0.05 42.11 C13.44 25.98, 24.74 14.11, 37.29 -0.86 M0.85 40.54 C9.31 32.99, 16.89 23.93, 37.46 -0.55 M8 43.29 C18.41 27.41, 31.05 15.84, 42.79 0.11 M6.74 41.11 C19.77 27.29, 31.2 12.92, 41.18 1.52 M10.2 39.61 C19.08 33.69, 27.48 25.3, 41.92 6.57 M12.27 40.98 C21.82 29.85, 30.54 21.07, 42.05 7.52 M18.06 40.16 C24.49 32.62, 31.37 22.24, 40.25 13.14 M18.03 41.13 C25.14 33.25, 31.25 25.2, 41.94 14.01 M22.8 41.97 C26.93 36.17, 32.8 26.23, 42.47 20.9 M22.75 41.66 C28.41 35.38, 32.62 27.86, 40.86 18.96 M28.26 43.02 C33.31 36.94, 36.11 31.41, 43.09 27.26 M28.56 40.89 C31.21 37.77, 35.88 32.47, 41.01 24.84 M32.65 41.03 C36.01 39.38, 37.82 37.06, 41.99 31.45 M33.51 41.15 C35.49 38.1, 39.44 33.94, 41.27 31.87 M38.52 41.67 C38.9 39.85, 40.03 39.43, 41.12 37.34 M38.1 41.13 C39.2 40.38, 39.71 39.58, 41.57 37.32" stroke="#228be6" stroke-width="0.5" fill="none"></path><path d="M-1.75 -1.64 C14.88 -0.13, 26.32 0.69, 40.87 -2 M-0.1 0.99 C9.78 0.45, 19.46 0.53, 39.33 -0.5 M39.86 0.11 C39.13 13.94, 38.11 29.66, 41.97 39.07 M40.07 0.62 C39.24 12.07, 38.91 24.47, 39.44 39.57 M41.25 40.62 C26.1 40.79, 8.5 38.55, -1.36 41.64 M39.36 40.39 C30.61 39.56, 20.74 40.19, -0.46 40.36 M-1.73 40.6 C-0.81 24.44, 1.33 8.13, -1.89 0.48 M-0.08 40.13 C0.24 30.1, 1.06 21.3, -0.96 -0.53" stroke="#000000" stroke-width="1" fill="none"></path></g><g stroke-linecap="round" transform="translate(130 90) rotate(0 20 20)"><path d="M0 0 C0 0, 0 0, 0 0 M0 0 C0 0, 0 0, 0 0 M-0.37 6.46 C1.81 4.53, 3.81 2.35, 4.23 0.3 M-0.36 6.75 C0.89 4.9, 2.96 2.93, 4.89 0.14 M0.24 11.7 C3.3 9.38, 6.07 7.73, 11.47 1.37 M0.45 11.98 C2.57 8.85, 6.76 4.23, 10.09 -0.18 M0.88 19.05 C5.85 14.28, 6.83 7.74, 17.29 0.33 M-0.56 17.74 C4.06 12.03, 11.11 6.18, 15.62 -0.07 M-0.93 24.21 C3.37 19.13, 9.12 11.61, 22.71 -0.53 M0.77 24.31 C7.32 13.87, 15.53 6.32, 20.56 -0.59 M-0.38 29.15 C7.85 19.51, 18.03 9.52, 28.22 1.83 M-0.25 30.67 C9.36 20.89, 15.87 11.6, 25.54 -0.11 M-0.1 35.39 C8.14 28.52, 10.98 20.68, 31.72 -0.63 M-1.07 36.3 C7.77 27.51, 16.56 17.46, 31.56 -1.04 M0.15 40.77 C13.72 27.65, 24.74 15, 36.49 1.47 M0.5 41.34 C16.4 23.98, 30.53 7.93, 36.67 0.66 M6.37 39.74 C16.92 27.01, 30.42 12.69, 42.03 2.4 M6.46 41.39 C18.84 25.41, 33.04 9.47, 40.91 0.42 M10.1 39.22 C19.84 33.22, 26.66 24.35, 40.39 8.73 M12.26 40.73 C22.82 29.29, 31.5 18.14, 41.73 6.8 M18.5 42.61 C27.14 30.96, 32.92 22.43, 40.99 12.01 M16.15 40.7 C23.27 36.13, 27.47 29.77, 40.94 13.65 M22.66 40.33 C28.34 33.4, 35.08 28.01, 42.34 21.44 M23.5 41.75 C27.6 35.7, 30.96 32.53, 41.45 19.12 M29.25 41.97 C32.84 34.22, 37.81 29.2, 41.61 24.91 M27.57 41.87 C30.85 36.88, 33.46 32.59, 41.01 26.16 M32.99 41.72 C35.93 37.42, 39.09 35.1, 41.45 32.73 M33.63 40.4 C36.72 37.21, 39.61 33.53, 40.63 31.45 M38.53 41.25 C39.46 40.04, 40.09 39.22, 41.78 37.95 M38.41 41.16 C39.18 40.58, 39.84 39.53, 41.77 37.7" stroke="#228be6" stroke-width="0.5" fill="none"></path><path d="M-0.89 -1.09 C7.76 -1.39, 19.33 -0.95, 38.21 0.01 M-0.75 -0.02 C12.06 -0.88, 25.02 -0.23, 40.39 0.91 M39.4 -1.29 C39.93 14.01, 41.7 25.72, 40.89 38.03 M40.02 0.96 C38.81 10.85, 40.72 23.15, 40.08 40.84 M38.02 38.85 C30.03 39, 21.84 40.49, 0.58 41.2 M39.73 39.83 C28.27 39.86, 15.08 40.07, 0.25 39.78 M-0.82 38.72 C-0.95 31.29, 0.01 22.87, 0.32 0.17 M0.52 40.49 C-1.05 24.8, -0.72 7.7, -0.12 -0.01" stroke="#000000" stroke-width="1" fill="none"></path></g><g stroke-linecap="round" transform="translate(170 90) rotate(0 20 20)"><path d="M0 0 C0 0, 0 0, 0 0 M0 0 C0 0, 0 0, 0 0 M-0.53 5.64 C1.62 4.71, 3.42 2.08, 4.89 0.62 M-0.34 6.64 C1.77 4.29, 3.08 2.19, 5.12 0.66 M-0.2 12.68 C3.31 10.67, 6.04 6.95, 9.33 -1.6 M0.46 12.45 C4.37 8.54, 7.26 4.03, 10.65 -0.66 M-0.73 16.54 C2.22 13.69, 9.83 7.29, 13.86 1.71 M-0.74 19.29 C4.6 12.38, 9.27 8.22, 15.37 0.96 M0.53 23.66 C7.36 18.04, 10.99 12.49, 22.53 1.21 M0.09 23.38 C5.57 16.27, 13.08 9.2, 20.63 0.87 M-0.8 30.95 C9.56 19.84, 18.2 7.73, 25.64 0.72 M0.63 31.29 C4.67 23.04, 11.26 18.16, 27.06 0.93 M0.48 35.5 C8.33 28.93, 13.38 20.22, 32.56 0.47 M-0.19 36.61 C5.72 30.25, 12.24 21.63, 32.46 -0.22 M0.53 42.42 C11.68 30.83, 18.85 21.29, 38.23 -0.34 M1.65 41.74 C12.56 28.3, 22.45 17.74, 36.04 0.71 M4.5 40.04 C14.31 29.38, 24.52 20.39, 41.15 2.92 M6.79 42.28 C12.87 33.68, 22.38 24.49, 40.77 2.2 M13.37 42.64 C22.69 29.96, 31.83 19.52, 42.82 6.5 M11.67 41.78 C23.22 27.02, 33.97 14.79, 42.34 7.21 M17.25 41.34 C25.32 30.77, 36.14 20.65, 39.7 13.86 M17.25 41.74 C26.06 30.85, 35.23 19.4, 41.39 12.89 M22.7 41.54 C28.7 38.02, 30.86 33.01, 42.04 19.25 M22.79 41.14 C28.59 32.84, 37.08 24.05, 41.86 19.22 M27.64 41.85 C28.67 38.05, 34.68 35.3, 42.59 23.54 M28.06 40.5 C31.88 38.01, 35.01 34.47, 42.02 24.96 M32.88 39.8 C36.99 38.75, 38.19 34.3, 42.1 32.84 M33.18 40.91 C35.72 38.27, 37.51 36.53, 41.71 31.94 M38.61 41.72 C39.43 39.92, 41.11 37.81, 41.93 37.96 M38.32 41.46 C38.83 40.57, 39.9 39.49, 41.45 37.38" stroke="#228be6" stroke-width="0.5" fill="none"></path><path d="M-0.46 -1.08 C12.38 1.25, 26.8 0.17, 39.57 1.16 M0.52 0.88 C11.78 -1.12, 22.87 0.15, 39.92 -0.94 M38.64 -0.37 C39.44 13.14, 42.15 27.69, 40.61 41.81 M40.83 0 C39.98 13.46, 39.79 26.62, 39.3 39.05 M40 39.2 C28.79 39.95, 21.31 38.61, 0.13 38.13 M40.73 39.77 C26.99 40.46, 12.62 40.33, 0.23 39.16 M-1.4 38.96 C1.42 30.28, 1.05 22.73, -1.33 -1.73 M0.99 40.77 C0.34 27.28, 0.49 16.05, 0.19 0.82" stroke="#000000" stroke-width="1" fill="none"></path></g><g stroke-linecap="round" transform="translate(170 50) rotate(0 20 20)"><path d="M0 0 C0 0, 0 0, 0 0 M0 0 C0 0, 0 0, 0 0 M-0.15 6.38 C1.43 4.81, 2.69 4.31, 4.63 0.43 M-0.61 6.75 C0.47 5.03, 2.04 4.14, 5.26 0.75 M0.62 11.1 C4.08 9.22, 7.29 6.37, 11.7 0.21 M-0.21 12.01 C2.59 8.23, 5.72 4.14, 10.54 0.71 M-0.31 20.29 C1.44 13.47, 8.07 11.68, 13.77 1.15 M-0.42 17.95 C4.76 12.71, 9.73 7.46, 15.84 -0.05 M-0.01 22.28 C9.3 14.62, 14.31 4.16, 19.75 1.09 M1.02 24.17 C4.99 18.45, 9.41 13.68, 21.63 -0.8 M-1.61 32.38 C6.96 22.7, 17.33 10.88, 24.36 0.37 M-0.57 30.44 C10.6 19.25, 18.95 7.84, 26.9 -0.69 M-2.1 37.76 C10.27 22.95, 23.37 7.78, 33.52 -1.47 M-0.87 35.97 C7.78 25.84, 18.69 16.38, 31.5 -0.06 M1.21 40.84 C12.26 30.47, 21.84 20.76, 35.48 1.36 M1.2 41.21 C13.55 25.71, 25.76 11.72, 36.28 -0.21 M4.81 42.53 C16.66 28.21, 31.91 12.03, 42.77 3.29 M6.92 42.16 C17.59 28.38, 30.66 14.68, 41.51 1.11 M13.72 40.93 C23.95 26.68, 37.05 13.65, 39.72 5.65 M13.02 41.14 C19.91 31.46, 28.43 21.2, 41.79 7.02 M18.85 42.23 C27.11 31.53, 35.69 20.39, 42.34 12.23 M16.37 40.79 C23.96 33.35, 31.44 26.08, 42.3 13.2 M24.32 42.14 C30.94 32.94, 37.27 22.61, 41.17 20.84 M21.77 41.64 C27.32 36.15, 31.29 30.43, 41.12 20.53 M26.35 40.86 C30.45 36.94, 35.09 32.88, 42.03 27.17 M28.14 42.11 C33.24 35.56, 36.13 31.35, 42.33 25.04 M32.84 40.35 C34.72 38.03, 37.62 36.46, 40.52 31.97 M33.92 41.3 C35.76 38.13, 39.2 34.48, 41.38 32.1 M37.88 41.32 C38.99 40.46, 40.03 39.33, 41.8 37.89 M38.52 41.03 C39.01 40.31, 39.93 39.7, 41.38 37.36" stroke="#228be6" stroke-width="0.5" fill="none"></path><path d="M-0.08 1.73 C13.47 0.82, 26.3 -0.36, 38.25 -1.64 M0.33 0.44 C12.57 -0.31, 26.96 0.01, 39.9 0.99 M40.76 -1.35 C39.11 15.69, 40.13 28.55, 39.86 40.11 M39.49 0.98 C39.25 10.27, 39.32 19.91, 40.07 40.62 M40.92 38.88 C29.55 41.08, 20.34 41.29, 1.25 40.62 M39.11 39.32 C26.8 38.96, 11.44 40.24, -0.64 40.39 M-0.07 39.07 C1 30.75, 1.8 17.86, -1.73 0.6 M0.01 39.06 C0.16 28.29, -0.48 17.04, -0.08 0.13" stroke="#000000" stroke-width="1" fill="none"></path></g><g stroke-linecap="round" transform="translate(210 90) rotate(0 20 20)"><path d="M0 0 C0 0, 0 0, 0 0 M0 0 C0 0, 0 0, 0 0 M-0.29 5.75 C0.83 4.38, 3.07 2.3, 5.32 0.77 M-0.25 6.41 C1.41 3.88, 3.74 1.36, 4.87 -0.02 M-1.45 10.64 C3.51 9.2, 6.14 5.35, 9.66 1.33 M0.28 11.84 C4.23 7.75, 6.82 3.85, 10.74 -0.2 M1.31 19.71 C6.86 11.61, 9.52 6.66, 15.26 -1.08 M-1.04 17.8 C4.22 15.33, 6.65 11, 15.21 0.56 M0.21 23.47 C6.63 15.69, 14.13 9.44, 22.52 1.56 M1.05 24.89 C5.76 18.18, 9.7 14.34, 21.63 -0.76 M1.56 31.15 C9.27 18.66, 18.48 8.78, 26.38 -0.25 M-0.13 31.05 C6.12 22.6, 11.8 14.78, 25.79 0.99 M-0.84 38.23 C11.17 22.96, 23.47 11.02, 32.29 1.36 M0.22 36.04 C12.88 22.16, 25.05 7.56, 30.92 -0.77 M2.25 40.95 C11.05 30.57, 18.47 21.6, 37.58 2.08 M1.79 40.57 C9.25 32.77, 16.49 23.28, 37.52 1.09 M8.42 42.59 C17.28 29.89, 29.23 15.34, 40.39 2.98 M6.25 42.1 C16.92 31.13, 26.81 18.56, 41.3 1.38 M13.33 39.33 C19.47 34.7, 26.92 25.88, 41.97 7.82 M11.98 41.02 C19.28 31.37, 27.15 22.85, 41.6 7.31 M18.84 42.3 C25.52 32.32, 36.56 21.22, 41.5 13.8 M16.37 42.11 C21.37 34.63, 27.56 30.47, 41.31 13.69 M23.3 42.06 C24.7 34.97, 30.07 30.12, 41.8 18.21 M23.14 41.49 C29.4 32.9, 37.94 25.02, 40.7 18.89 M27.21 42.77 C34.5 34.43, 37.23 27.96, 40.95 25.46 M28.12 42.13 C32.77 36.68, 38.11 29.83, 42.04 26.35 M32.2 41.69 C36.54 37.39, 37.62 36.1, 41.2 32.77 M32.88 40.53 C34.83 39.25, 36.32 36.52, 40.91 32.12 M38.46 41.4 C38.99 40.43, 40.51 38.37, 41.83 37.64 M38.48 41.2 C39.5 39.64, 40.72 38.24, 41.66 37.35" stroke="#228be6" stroke-width="0.5" fill="none"></path><path d="M1.01 0.61 C12.34 0.37, 19.71 -1.41, 41.67 0.01 M-0.43 -0.7 C12.06 -0.53, 27 -0.49, 40 -0.4 M38.8 0.13 C38.16 10.43, 38.91 18.17, 41.45 39.54 M40.5 0.23 C39.41 14.45, 39.57 31.5, 39.3 39.48 M39.61 38.67 C23.97 40.08, 10.47 40.88, 1.97 41.54 M39.75 40.19 C28.2 40.13, 13.83 40.36, -0.71 39.59 M0.16 38.51 C1.84 31.07, -1.88 22.61, -0.17 -0.52 M-0.82 39.42 C-0.35 29.76, 0.09 18.92, -0.33 -0.94" stroke="#000000" stroke-width="1" fill="none"></path></g><g stroke-linecap="round" transform="translate(210 50) rotate(0 20 20)"><path d="M0 0 C0 0, 0 0, 0 0 M0 0 C0 0, 0 0, 0 0 M-0.73 6.76 C1.27 5.47, 2.79 4.27, 5.11 0.38 M-0.28 6.04 C1.25 4.22, 2.62 2.72, 5.36 -0.04 M1.62 10.63 C1.31 10.86, 5.02 5.44, 11.29 0.26 M-0.26 11.91 C3.05 8.58, 6.35 5.61, 10.33 0.54 M-1.93 19.82 C5.13 10.47, 9.36 3.79, 16.77 -1.5 M-0.04 18.64 C3.02 14.27, 7.02 10.12, 14.88 0.3 M2.17 23.15 C7.13 19.38, 9.93 9.35, 21.34 1.51 M0.23 24.98 C8.48 14.31, 16.5 6.45, 20.28 0.71 M0.89 28.99 C8.8 20.12, 16.35 12.23, 24.88 0.03 M-0.9 29.5 C8.95 20.56, 19.48 8.68, 26.29 0 M-0.43 38.36 C12.07 24.78, 25.22 8.32, 32.99 0.85 M-0.05 36.32 C5.54 28.31, 12.65 20.4, 31.42 0.29 M2.61 39.4 C12.36 31.03, 20.28 18.66, 38.8 0.93 M2.24 40.38 C10.83 31.24, 19.56 20.27, 36.62 1.25 M6.39 41.67 C18.27 28.26, 31.34 10.34, 39.85 0.99 M6.6 41.15 C19.43 26.12, 31.69 11.37, 41.21 1.99 M12.97 42 C18.8 34.12, 24.22 26.91, 40.43 6.82 M11.53 40.84 C21.25 31.13, 31.08 21.44, 41.39 7.9 M18.27 42.53 C25.75 31.81, 32.08 21.8, 42.37 12.02 M17.76 41.88 C26.37 31.3, 34.69 20.52, 42.06 13.71 M22.27 39.25 C30.17 31.95, 37.87 26.59, 42.8 20.67 M23.52 41.84 C28.95 32.44, 36.69 26.73, 40.66 19.57 M26.77 40.09 C32.19 35.44, 38.88 28.36, 41.68 26.31 M28.34 40.97 C33.51 36, 37.87 29.33, 41.89 24.5 M33.46 40.94 C36.11 38.6, 38.14 34.84, 42.17 30.93 M32.76 40.72 C34.95 38.96, 37.35 36.01, 40.89 32.01 M38.25 40.91 C39.66 40.15, 40.89 39.17, 42.03 37.79 M38.27 41.11 C39.27 40.12, 40.14 39.12, 41.43 37.58" stroke="#228be6" stroke-width="0.5" fill="none"></path><path d="M-1.35 -1.01 C14.9 -0.15, 26.96 -0.29, 40.11 -0.87 M0.98 -0.47 C9.19 -0.19, 17.76 0.27, 40.62 -0.6 M38.88 -0.85 C41.08 11.81, 41.29 25.78, 40.62 41.01 M39.32 0.82 C38.96 12.39, 40.24 25.18, 40.39 39.81 M39.07 40.73 C32.63 41.52, 21.63 38.26, 0.6 39.5 M39.06 40.24 C26.51 39.6, 13.49 39.92, 0.13 40.08 M-1.92 38.93 C-0.53 30.45, -1.16 23.2, -0.54 -1.64 M0.34 39.71 C-0.29 29.39, 0.35 20.9, 0.49 -0.65" stroke="#000000" stroke-width="1" fill="none"></path></g><g stroke-linecap="round" transform="translate(210 10) rotate(0 20 20)"><path d="M0 0 C0 0, 0 0, 0 0 M0 0 C0 0, 0 0, 0 0 M0.16 7.1 C1.19 3.88, 2.14 3.11, 4.92 -0.39 M-0.53 6.32 C1.31 4.4, 3.61 2.63, 5.11 0.72 M1.47 12.05 C4.17 7.9, 7.41 3.23, 9.51 -1.55 M0.13 11.72 C2.13 9.14, 5.74 5.59, 10.68 -0.78 M1.33 17.98 C7.09 13.49, 11.49 6.98, 16.07 -1.36 M-0.83 17.92 C3.89 13.85, 7.03 10.47, 14.95 -0.54 M2.24 25.62 C6.91 15.12, 13.42 9.19, 21.65 1.57 M-0.44 23.68 C5.85 16.68, 13.26 9.57, 20.52 0.83 M-0.16 29.95 C6.36 23.98, 13.48 13.19, 25.08 0.1 M-0.32 29.54 C8.49 21.28, 16.96 10.85, 26.13 0.62 M-0.64 38.09 C11.77 24.17, 20.15 11.55, 32.54 1.41 M-0.46 37.28 C6.9 29.98, 14.04 21.4, 31.08 -1.08 M2.27 42.04 C15.13 28.72, 25.4 13.97, 36.92 -1.32 M1.15 40.06 C9.72 30.74, 20.61 19.39, 36 0.95 M5.22 43.08 C16.82 28.19, 27.11 18.77, 40.71 2.63 M6.57 41.16 C16.69 30.84, 25.07 20.51, 41.84 2.01 M11.73 39.57 C19 29.54, 30.44 19.5, 40.34 8.89 M11.68 41.21 C22.99 28.55, 33.47 15.41, 41.3 7.23 M18.32 42.97 C20.53 33.44, 27.52 30.79, 42.96 14.7 M17.44 40.65 C23.35 35, 27.86 28.36, 41.67 13.7 M22.85 40.4 C25.37 38.32, 28.88 32.04, 42.23 19.58 M22.25 41.65 C27.99 35.68, 31.73 30.73, 41.76 19.51 M28.1 42.76 C33.41 35.23, 36.75 33.02, 39.79 26.37 M26.73 40.64 C30.65 36.43, 34.77 33.07, 41.44 26.23 M33.76 42 C33.88 39.93, 37.89 37.42, 40.69 32.85 M33.73 41.41 C36.19 37.99, 38.59 35.25, 41.58 31.7 M38.12 41.67 C39.51 39.35, 40.49 38.28, 41.97 37.59 M38.35 41.27 C39.46 39.84, 40.91 38.46, 41.4 37.55" stroke="#228be6" stroke-width="0.5" fill="none"></path><path d="M0.89 -1.97 C14.4 -1.27, 31.15 -0.06, 41.92 -1.91 M0.08 0.84 C10.15 -1.16, 21.04 -1.35, 39.42 -0.56 M40.58 1.2 C40.27 11.03, 40.81 20.77, 39.67 41.98 M40.25 -0.22 C39.31 10.76, 39.79 21.04, 39.36 39.53 M40.32 40.17 C30.55 41.61, 15.7 40.98, 0.98 38.58 M39.88 39.99 C24.07 39.13, 10.11 38.86, 0.55 39.82 M-1.43 39.53 C-1.61 26.3, 2.12 11.91, -0.46 1.35 M0.42 40.88 C0.74 28.26, -0.24 15.65, 0.07 0.24" stroke="#000000" stroke-width="1" fill="none"></path></g><g transform="translate(10.8817138671875 265.08094787597656) rotate(0 110 12.5)"><text x="0" y="18" font-family="Virgil, Segoe UI Emoji" font-size="20px" fill="#000000" text-anchor="start" style="white-space: pre;" direction="ltr"> 1 + 2 + 3 + 4+ 5+ n</text></g><g transform="translate(268.80157470703125 16.132614135742188) rotate(0 20.8944091796875 126.00827026367188)" stroke="none"><path fill="#000000" d="M 1.57,-2.08 Q 1.57,-2.08 2.36,-1.53 3.16,-0.97 4.59,0.38 6.01,1.75 7.15,3.31 8.28,4.88 9.26,6.61 10.24,8.35 10.83,9.58 11.42,10.82 11.93,11.82 12.44,12.83 13.39,14.79 14.34,16.74 14.84,17.70 15.34,18.66 16.31,20.65 17.29,22.64 18.09,24.19 18.90,25.75 19.56,27.36 20.22,28.98 20.83,30.52 21.43,32.06 22.10,33.95 22.78,35.85 23.40,37.77 24.01,39.68 24.31,40.72 24.60,41.76 24.84,43.06 25.07,44.36 25.30,45.67 25.54,46.98 25.78,48.53 26.03,50.08 26.22,51.66 26.41,53.23 26.56,54.75 26.71,56.26 26.77,57.82 26.83,59.39 26.85,60.89 26.86,62.40 26.86,63.88 26.86,65.36 26.78,67.20 26.71,69.03 26.71,70.52 26.71,72.01 26.75,73.14 26.79,74.26 26.83,75.34 26.87,76.43 26.85,78.40 26.84,80.38 26.63,81.52 26.43,82.67 25.91,84.67 25.39,86.67 25.11,87.70 24.83,88.74 24.53,89.86 24.23,90.98 23.91,92.18 23.60,93.37 23.27,94.59 22.95,95.81 22.63,97.04 22.31,98.28 21.98,99.70 21.64,101.11 21.31,102.49 20.98,103.86 20.73,105.29 20.48,106.73 20.16,108.27 19.84,109.81 19.65,111.03 19.45,112.25 19.20,113.93 18.94,115.62 18.97,116.69 19.00,117.76 18.47,116.73 17.94,115.70 19.12,115.77 20.30,115.83 21.46,116.38 22.62,116.92 23.61,117.61 24.60,118.31 25.58,119.30 26.55,120.29 27.62,121.25 28.68,122.22 29.52,123.00 30.36,123.77 31.33,124.46 32.31,125.15 32.85,126.08 33.39,127.02 33.56,128.33 33.72,129.64 33.56,130.83 33.39,132.02 32.74,133.01 32.09,134.01 31.17,134.60 30.26,135.19 28.56,135.64 26.85,136.10 25.76,136.26 24.66,136.42 23.14,136.84 21.62,137.26 20.29,137.71 18.97,138.17 17.92,138.55 16.87,138.93 17.36,137.88 17.84,136.82 18.95,137.42 20.05,138.01 20.56,138.96 21.08,139.90 21.76,141.60 22.44,143.29 23.10,145.34 23.77,147.39 24.55,149.50 25.34,151.60 26.11,153.51 26.89,155.41 27.68,157.38 28.48,159.34 29.21,161.00 29.95,162.67 30.64,164.06 31.34,165.44 32.06,166.88 32.78,168.31 33.93,170.18 35.09,172.05 36.26,173.63 37.44,175.22 38.61,176.97 39.78,178.72 40.74,180.30 41.69,181.87 42.45,183.41 43.20,184.96 43.79,186.51 44.38,188.06 44.53,189.16 44.68,190.25 44.77,191.84 44.86,193.42 44.91,194.84 44.95,196.26 44.97,197.64 45.00,199.03 45.03,200.27 45.05,201.51 44.99,202.92 44.92,204.34 44.38,205.90 43.84,207.47 42.86,208.77 41.89,210.07 41.12,210.88 40.35,211.69 39.47,212.86 38.59,214.03 37.56,215.10 36.52,216.17 35.46,217.32 34.40,218.48 33.42,219.73 32.43,220.98 31.25,222.40 30.07,223.82 29.31,224.87 28.54,225.91 27.71,227.01 26.89,228.11 26.08,229.34 25.28,230.57 24.52,231.68 23.76,232.80 22.96,234.00 22.15,235.21 21.13,236.62 20.11,238.04 19.06,239.41 18.01,240.78 17.36,241.85 16.71,242.91 16.04,243.92 15.36,244.93 14.33,246.07 13.30,247.22 12.04,248.39 10.78,249.55 9.98,250.31 9.18,251.07 8.64,251.58 8.10,252.09 7.96,252.64 7.83,253.18 7.53,253.66 7.22,254.14 6.79,254.49 6.35,254.84 5.82,255.04 5.29,255.24 4.73,255.25 4.16,255.27 3.62,255.10 3.08,254.94 2.62,254.61 2.17,254.28 1.84,253.83 1.51,253.37 1.34,252.83 1.17,252.29 1.19,251.73 1.20,251.16 1.39,250.63 1.59,250.10 1.94,249.66 2.29,249.22 2.77,248.92 3.24,248.61 3.79,248.48 4.34,248.34 4.90,248.38 5.46,248.43 5.98,248.65 6.50,248.87 6.92,249.25 7.34,249.62 7.62,250.11 7.89,250.61 8.00,251.16 8.11,251.71 8.03,252.27 7.96,252.83 7.71,253.34 7.46,253.84 7.06,254.24 6.66,254.64 6.16,254.89 5.65,255.14 5.10,255.22 4.54,255.30 3.98,255.19 3.43,255.09 2.94,254.81 2.45,254.53 2.07,254.12 1.69,253.70 1.47,253.18 1.24,252.66 1.20,252.10 1.15,251.54 1.15,251.54 1.15,251.54 3.27,248.31 5.39,245.09 6.24,244.36 7.09,243.63 8.11,242.73 9.13,241.83 9.77,240.95 10.41,240.07 11.04,239.15 11.67,238.23 12.63,236.87 13.58,235.51 14.64,234.03 15.70,232.54 16.51,231.34 17.32,230.13 18.14,228.92 18.96,227.71 19.69,226.70 20.41,225.70 21.31,224.34 22.21,222.99 23.10,221.81 23.99,220.63 24.97,219.47 25.95,218.30 26.61,217.41 27.26,216.52 28.23,215.27 29.20,214.01 30.28,212.80 31.36,211.58 32.28,210.64 33.20,209.70 33.91,208.87 34.61,208.05 35.44,207.15 36.26,206.24 37.18,205.15 38.09,204.06 38.30,202.78 38.51,201.51 38.54,200.27 38.56,199.03 38.59,197.66 38.61,196.28 38.64,194.92 38.66,193.55 38.65,192.20 38.65,190.85 38.51,189.72 38.37,188.60 37.86,187.23 37.35,185.86 36.69,184.39 36.03,182.93 35.19,181.34 34.36,179.75 33.28,177.98 32.21,176.21 31.63,175.24 31.06,174.26 30.06,172.20 29.07,170.13 28.37,168.66 27.67,167.19 27.01,165.74 26.35,164.30 25.60,162.67 24.84,161.03 23.86,159.20 22.89,157.37 21.85,155.56 20.82,153.75 19.64,151.74 18.47,149.73 17.45,147.97 16.44,146.20 15.65,144.88 14.87,143.55 13.96,142.22 13.05,140.88 12.09,139.87 11.13,138.86 10.89,137.36 10.65,135.87 11.40,134.62 12.14,133.38 13.34,132.70 14.54,132.02 15.63,131.64 16.72,131.26 17.76,130.88 18.81,130.49 20.24,130.13 21.67,129.76 23.14,129.48 24.62,129.19 25.85,129.53 27.08,129.88 26.04,129.06 25.01,128.23 24.24,127.47 23.48,126.70 22.20,125.37 20.92,124.03 19.92,123.03 18.93,122.03 17.69,121.80 16.45,121.58 15.39,121.01 14.32,120.45 13.74,118.70 13.16,116.95 13.37,115.71 13.58,114.46 13.97,112.92 14.36,111.38 14.59,110.12 14.82,108.86 15.07,107.41 15.32,105.96 15.53,104.31 15.74,102.66 16.03,101.34 16.32,100.02 16.60,98.46 16.87,96.90 17.18,95.66 17.48,94.42 17.79,93.19 18.09,91.95 18.40,90.74 18.70,89.52 19.01,88.34 19.32,87.16 19.92,85.16 20.52,83.16 20.99,81.52 21.45,79.87 21.61,78.15 21.76,76.43 21.80,75.35 21.83,74.27 21.87,73.14 21.91,72.02 21.91,70.53 21.90,69.04 21.82,67.23 21.73,65.41 21.70,63.97 21.67,62.52 21.62,61.09 21.56,59.67 21.47,58.29 21.37,56.92 21.16,55.48 20.95,54.04 20.70,52.63 20.44,51.22 20.07,49.70 19.69,48.19 19.37,46.84 19.05,45.49 18.55,43.49 18.05,41.50 17.48,39.70 16.90,37.90 16.22,36.03 15.54,34.15 15.02,32.68 14.50,31.21 13.97,29.74 13.43,28.26 12.69,26.68 11.94,25.11 11.04,23.24 10.15,21.38 9.57,20.28 9.00,19.19 8.12,17.32 7.23,15.45 6.73,14.45 6.23,13.45 5.60,12.28 4.97,11.11 4.19,9.59 3.41,8.06 2.51,6.67 1.62,5.28 0.78,4.30 -0.06,3.31 -0.81,2.70 -1.57,2.08 -1.80,1.87 -2.02,1.65 -2.19,1.38 -2.36,1.11 -2.46,0.81 -2.56,0.52 -2.58,0.20 -2.61,-0.10 -2.56,-0.41 -2.51,-0.73 -2.38,-1.01 -2.26,-1.30 -2.07,-1.56 -1.88,-1.81 -1.63,-2.01 -1.39,-2.21 -1.11,-2.34 -0.82,-2.48 -0.51,-2.54 -0.20,-2.60 0.10,-2.59 0.42,-2.58 0.72,-2.49 1.02,-2.40 1.30,-2.24 1.57,-2.08 1.57,-2.08 L 1.57,-2.08 Z"></path></g><g transform="translate(330 90) rotate(0 12.575543212890636 34.93206448025174)"><text x="0" y="47.86412896050348" font-family="Virgil, Segoe UI Emoji" font-size="55.89130316840277px" fill="#000000" text-anchor="start" style="white-space: pre;" direction="ltr">n</text></g></svg>