<svg version="1.1" xmlns="http://www.w3.org/2000/svg" viewBox="0 0 1045.00390625 604.9560546875" width="1045.00390625" height="604.9560546875">
  <!-- svg-source:excalidraw -->
  
  <defs>
    <style>
      @font-face {
        font-family: "Virgil";
        src: url("https://excalidraw.com/Virgil.woff2");
      }
      @font-face {
        font-family: "Cascadia";
        src: url("https://excalidraw.com/Cascadia.woff2");
      }
    </style>
  </defs>
  <rect x="0" y="0" width="1045.00390625" height="604.9560546875" fill="#FFF"></rect><g stroke-linecap="round" transform="translate(243.8125 10) rotate(0 38 49.853515625)"><path d="M0.55 -0.21 C16 2.02, 32.78 0.1, 74.07 -1.85 M0.22 -0.32 C27.42 0.03, 52.33 -0.24, 76.61 0.29 M75.83 2 C76.91 30.05, 76.66 57.78, 77.51 98.82 M75.4 -0.18 C75.55 21.84, 77.3 43.6, 76.64 98.81 M76.24 98.46 C59.77 99.21, 41 100.84, -1.77 100.81 M76.07 98.88 C46 100.27, 17.08 100.27, 0.38 99.52 M-1.78 100.43 C-2.16 67, 0.43 31.59, -0.65 0.2 M0.64 98.97 C-1.21 63.66, 0.55 27.35, 0.56 0.58" stroke="#000000" stroke-width="1" fill="none"></path></g><g transform="translate(248.8125 47.353515625) rotate(0 33 11.5)"><text x="33" y="17" font-family="Virgil, Segoe UI Emoji" font-size="20px" fill="#000000" text-anchor="middle" style="white-space: pre;" direction="ltr">T(n)</text></g><g stroke-linecap="round" transform="translate(136.01953125 163.2734375) rotate(0 44 43.91796875)"><path d="M-0.36 -1.85 C30.52 2.18, 60.89 1.82, 86.2 -1.32 M-0.62 0.77 C34.17 0.16, 69.64 -0.99, 88.55 0.83 M86.34 -1.79 C89.26 29.13, 89.25 61.89, 87.63 88.54 M88.36 -0.61 C87.86 35.25, 86.86 68.8, 88.1 88.5 M86.53 85.99 C60.1 90.06, 31.69 89.52, 1.15 88.83 M88.39 87.56 C66.25 86.76, 45.28 87.5, -0.26 87.74 M-1.33 89.81 C-2.83 56.14, -1.41 25.73, 1.66 -0.76 M0.41 87.92 C1.4 69.01, 1.17 49.39, -0.12 0.33" stroke="#000000" stroke-width="1" fill="none"></path></g><g stroke-linecap="round"><g transform="translate(240.375 109.51953125) rotate(0 -15.865234375 26.125)"><path d="M-1.03 0.49 C-6.15 9.5, -26.65 44.3, -31.63 53.01 M0.63 -0.3 C-4.56 8.47, -27.21 42.8, -32.52 51.29" stroke="#000000" stroke-width="1" fill="none"></path></g><g transform="translate(240.375 109.51953125) rotate(0 -15.865234375 26.125)"><path d="M-25.06 22.21 C-26.34 29.87, -28.28 36.19, -32.77 51.94 M-24.96 22.12 C-28.62 32.84, -31.86 43.88, -32.54 50.47" stroke="#000000" stroke-width="1" fill="none"></path></g><g transform="translate(240.375 109.51953125) rotate(0 -15.865234375 26.125)"><path d="M-7.81 33.32 C-12.83 38.36, -18.6 42.21, -32.77 51.94 M-7.71 33.23 C-17.98 39.48, -27.93 46.19, -32.54 50.47" stroke="#000000" stroke-width="1" fill="none"></path></g></g><g transform="translate(141.01953125 195.69140625) rotate(0 39 11.5)"><text x="39" y="17" font-family="Virgil, Segoe UI Emoji" font-size="20px" fill="#000000" text-anchor="middle" style="white-space: pre;" direction="ltr">n/2</text></g><g stroke-linecap="round" transform="translate(474.15234375 161.26953125) rotate(0 42.5 44.013671875)"><path d="M1.82 0.26 C31.98 1.59, 61.74 -0.67, 86.19 -0.67 M0.55 -0.75 C27.93 0.18, 58.07 0.92, 84.68 -0.33 M84.07 0.1 C85.03 32.05, 84.84 62.65, 84.95 86.53 M84.07 -0.01 C85.28 19.82, 86.11 36.91, 85.42 88.07 M84.94 86.78 C67.17 86.09, 49.2 88.79, 1.14 89.08 M85.85 87.64 C65.63 87.77, 43.93 88.2, -0.56 88.86 M0.66 89.84 C1.4 64.69, -0.88 43.2, -0.82 -1.51 M-0.47 87.06 C0.24 67.8, 1.03 49.48, 0.94 -0.69" stroke="#000000" stroke-width="1" fill="none"></path></g><g transform="translate(479.15234375 192.783203125) rotate(0 37.5 11.5)"><text x="37.5" y="17" font-family="Virgil, Segoe UI Emoji" font-size="20px" fill="#000000" text-anchor="middle" style="white-space: pre;" direction="ltr">n/2</text></g><g stroke-linecap="round"><g transform="translate(320.8125 58.43700785430474) rotate(0 75.91499416557576 50.8905807968754)"><path d="M-0.57 -1.16 C24.79 15.73, 126.37 83.57, 151.94 100.77 M1.33 0.85 C26.56 17.9, 125.83 84.67, 151.06 101.77" stroke="#000000" stroke-width="1" fill="none"></path></g><g transform="translate(320.8125 58.43700785430474) rotate(0 75.91499416557576 50.8905807968754)"><path d="M120.02 94.7 C128.49 98.49, 138.88 100.66, 149.68 99.96 M122.76 94.76 C131.33 97.5, 139.93 98.88, 151.98 102.29" stroke="#000000" stroke-width="1" fill="none"></path></g><g transform="translate(320.8125 58.43700785430474) rotate(0 75.91499416557576 50.8905807968754)"><path d="M131.51 77.69 C136.63 86.25, 143.76 93.25, 149.68 99.96 M134.24 77.75 C139.23 85.94, 144.21 92.66, 151.98 102.29" stroke="#000000" stroke-width="1" fill="none"></path></g></g><g stroke-linecap="round"><g transform="translate(181.60546875 255.2880859375) rotate(0 -13.017578125 36.267578125)"><path d="M-0.09 0.49 C-4.24 12.67, -21.16 61.11, -25.44 72.96 M-1.6 -0.29 C-5.81 11.52, -21.94 58.94, -26.08 71.06" stroke="#000000" stroke-width="1" fill="none"></path></g><g transform="translate(181.60546875 255.2880859375) rotate(0 -13.017578125 36.267578125)"><path d="M-25.86 42.05 C-25.85 49.09, -28 54.82, -27.04 69.58 M-25.74 40.43 C-26.38 52.26, -26.39 64.97, -25.16 70.21" stroke="#000000" stroke-width="1" fill="none"></path></g><g transform="translate(181.60546875 255.2880859375) rotate(0 -13.017578125 36.267578125)"><path d="M-6.44 48.68 C-11.38 54.01, -18.5 58.05, -27.04 69.58 M-6.31 47.06 C-14.5 56.26, -22.07 66.39, -25.16 70.21" stroke="#000000" stroke-width="1" fill="none"></path></g></g><g stroke-linecap="round" transform="translate(63.6289062500001 339.5224609375) rotate(0 47.5 29)"><path d="M0.47 -1.46 C39.22 0.82, 73.02 -1.37, 95.48 0.18 M-0.38 0.34 C22 0.52, 41.99 -0.16, 94.64 0.76 M95.24 -1.82 C96.67 23.92, 94.21 45.88, 94.08 58.62 M95.74 0.44 C95.33 16.54, 94.64 33.31, 95.72 57.35 M95.49 58.77 C67.5 60.5, 40.04 60.2, 1.72 58.92 M94.06 58.23 C60.15 58.88, 25.35 57.76, 0.81 58.79 M1.87 57.59 C-1.85 39.22, 1.15 20.56, 0.51 -0.95 M-0.36 58.11 C0 42.44, -0.38 25.52, 0.94 0.47" stroke="#000000" stroke-width="1" fill="none"></path></g><g stroke-linecap="round" transform="translate(800.5625 278.9833984375) rotate(0 47.5 29)"><path d="M1.75 -1.08 C30.15 0.84, 58.05 0.86, 95.81 -1.43 M0.49 0.78 C28.2 0.16, 57.42 -0.77, 94.08 0.71 M95.9 -1.69 C92.53 18.65, 92.53 36.3, 96.65 58.79 M94.28 0.2 C94.3 11.27, 94.27 25.21, 95.07 57.58 M94.74 59.52 C62.98 57.93, 33.76 59.47, -1.81 56.15 M95.97 57.67 C64.98 58.02, 35.68 57.67, -0.17 57.25 M-1.09 59.28 C1.14 43.42, 2.39 28.21, -1.24 1.57 M0.55 58.56 C-0.03 36.25, 1.03 14.38, 0.83 -0.33" stroke="#000000" stroke-width="1" fill="none"></path></g><g stroke-linecap="round" transform="translate(576.01953125 339.8818359375) rotate(0 47.5 29)"><path d="M1.42 1.9 C29.82 1.01, 62.27 1.78, 95.14 1.13 M0.16 -0.21 C27.18 1.66, 55.33 0.63, 95.46 -0.68 M96.11 -1.87 C94.59 14.22, 96.44 27.69, 94.21 57.19 M95.02 0.88 C95.22 23.04, 95.59 45.03, 94.52 57.11 M96.22 57.22 C61.35 59.94, 28.86 57.82, 1.7 56.59 M94.98 58.06 C67.13 56.31, 40.46 56.89, -0.72 57.88 M0.35 57.49 C-1.87 41.92, -2.09 24.36, -0.33 0.34 M0.67 58.71 C-0.18 42.5, -0.89 28.63, -0.68 0.97" stroke="#000000" stroke-width="1" fill="none"></path></g><g stroke-linecap="round" transform="translate(10 506.5810546875) rotate(0 47.5 29)"><path d="M-1.21 1.6 C26.71 -1.67, 52.11 -1.93, 95.74 1.09 M-0.35 0.91 C23.24 0.75, 47.97 -0.16, 94.9 -0.05 M96.69 -0.76 C96.54 13.5, 94.97 25.63, 93.37 56.28 M94.44 0.41 C93.96 14.11, 95.45 30.1, 94.1 58 M94.72 56.73 C57.39 57.96, 24.52 58.05, 0.34 58.67 M94.93 57.13 C72.98 57.67, 52.11 58.6, -0.85 57.12 M-1.43 56.95 C-0.95 42.34, -0.2 22.53, 0.54 0.86 M-0.55 57.48 C-0.38 42.79, 0.37 27.43, -0.4 0.55" stroke="#000000" stroke-width="1" fill="none"></path></g><g stroke-linecap="round" transform="translate(269.4453125 488.9521484375) rotate(0 47.5 29)"><path d="M1.56 -1.46 C19.26 0.51, 40.21 -1.98, 96.66 -0.67 M-1 0.61 C26.48 -0.02, 54.72 -0.07, 95.19 -0.32 M93.94 -1.73 C93.56 19.36, 94.49 38.2, 93.41 59.19 M95.81 0.27 C94.97 21.35, 95.75 42.69, 94.21 57.01 M96.67 56.33 C64.64 59.74, 36.64 56.16, 0.24 56.65 M94.96 58.71 C59.07 58.25, 21.32 59.24, -0.95 57.36 M0.34 58.59 C-0.98 40.73, -1.07 23.8, -1.82 1.25 M0.32 58.29 C0.93 34.51, 0.02 11.72, -0.95 0.57" stroke="#000000" stroke-width="1" fill="none"></path></g><g stroke-linecap="round" transform="translate(940.00390625 484.6748046875) rotate(0 47.5 29)"><path d="M-1.08 1.12 C34.74 -0.85, 67.98 -0.02, 93.57 -0.02 M0.78 -0.19 C25.15 0.18, 49.24 -1.39, 95.71 0.07 M93.31 -1.92 C95.45 9.99, 95.3 25.49, 95.79 56.2 M95.2 -0.8 C94.67 17.56, 96.43 36.85, 94.58 58.26 M96.52 56.9 C62.44 58.49, 31 56.07, -1.85 58.33 M94.67 58.06 C73.75 59.76, 51.81 58.75, -0.75 57.7 M1.28 58.67 C1.61 47.18, 2.09 31.28, 1.57 1.41 M0.56 57.59 C0.18 45.03, -0.21 31.57, -0.33 -0.05" stroke="#000000" stroke-width="1" fill="none"></path></g><g transform="translate(68.6289062500001 345.0224609375) rotate(0 42.5 11.5)"><text x="42.5" y="17" font-family="Virgil, Segoe UI Emoji" font-size="20px" fill="#000000" text-anchor="middle" style="white-space: pre;" direction="ltr">n/(2^2)</text></g><g transform="translate(805.5625 284.4833984375) rotate(0 42.5 11.5)"><text x="42.5" y="17" font-family="Virgil, Segoe UI Emoji" font-size="20px" fill="#000000" text-anchor="middle" style="white-space: pre;" direction="ltr">n/(2^2)</text></g><g transform="translate(581.01953125 345.3818359375) rotate(0 42.5 11.5)"><text x="42.5" y="17" font-family="Virgil, Segoe UI Emoji" font-size="20px" fill="#000000" text-anchor="middle" style="white-space: pre;" direction="ltr">n/(2^2)</text></g><g transform="translate(15 524.0810546875) rotate(0 42.5 11.5)"><text x="42.5" y="17" font-family="Virgil, Segoe UI Emoji" font-size="20px" fill="#000000" text-anchor="middle" style="white-space: pre;" direction="ltr">n/(2^3)</text></g><g transform="translate(274.4453125 506.4521484375) rotate(0 42.5 11.5)"><text x="42.5" y="17" font-family="Virgil, Segoe UI Emoji" font-size="20px" fill="#000000" text-anchor="middle" style="white-space: pre;" direction="ltr">n/(2^3)</text></g><g transform="translate(945.00390625 502.1748046875) rotate(0 42.5 11.5)"><text x="42.5" y="17" font-family="Virgil, Segoe UI Emoji" font-size="20px" fill="#000000" text-anchor="middle" style="white-space: pre;" direction="ltr">n/(2^3)</text></g><g stroke-linecap="round" transform="translate(214.05078125 331.2099609375) rotate(0 51 31.5)"><path d="M1.89 -1.53 C32.82 -0.29, 62.82 -1.07, 101.9 -0.89 M-0.53 0.91 C27.68 -0.21, 55.3 -0.1, 101.1 -0.37 M103.8 -1.28 C102.31 20.21, 102.96 44.6, 100.38 62.45 M102.64 0.63 C101.52 18.45, 102.06 35.99, 102.82 62.56 M103.23 64.79 C66.87 64.45, 32.05 65.12, -0.65 63.22 M102.88 62.51 C68.07 63.09, 32.86 63.11, 0.88 62.39 M1.64 61.83 C-0.76 46.3, -0.15 27.11, 0.44 -1.74 M0.63 62.85 C-0.15 43.55, 0.19 22.74, 0.95 0.23" stroke="#000000" stroke-width="1" fill="none"></path></g><g stroke-linecap="round" transform="translate(139.2734375 504.2802734375) rotate(0 51 31.5)"><path d="M1.43 -1.09 C38.43 -2.16, 74.51 0.27, 100.99 0.96 M-0.45 0.21 C25.38 -1.63, 49.49 -0.98, 101.27 -0.12 M103.62 0.37 C102.58 24.25, 100.9 48.08, 101.09 62.01 M101.25 -0.66 C102.38 13.42, 100.75 25.71, 102.78 63.88 M100.32 63.58 C79.48 63.02, 54.53 63.02, -1.53 62.26 M101.22 63.06 C75.13 63.1, 48.23 61.24, -0.11 63.32 M-0.77 64.11 C0.44 45.06, 1 31.81, -0.76 -1.29 M-0.76 62.99 C0.34 39.92, -0.06 17.75, 0.46 -0.17" stroke="#000000" stroke-width="1" fill="none"></path></g><g stroke-linecap="round" transform="translate(793.09765625 471.0576171875) rotate(0 51 31.5)"><path d="M-0.02 1.52 C25.9 -2.2, 50.15 -1.5, 101.95 0.99 M0.65 -0.79 C37.63 0.57, 77.17 -1.08, 101.31 0.45 M100.07 0.7 C103.04 14.35, 99.6 27.47, 103.99 61.55 M101.17 0.85 C101.56 19.77, 101.75 40.84, 101.48 62.87 M102.61 64.96 C61.86 61.37, 25.66 61.76, -0.67 64.93 M102.84 62.99 C74.56 62.59, 47.15 62.54, -0.87 62.46 M1.92 64.58 C-1.45 41.63, 1.19 15.82, -1.54 1.11 M0.66 62.34 C1.09 40.25, 0.21 18.96, 0.47 0.76" stroke="#000000" stroke-width="1" fill="none"></path></g><g stroke-linecap="round" transform="translate(803.09765625 481.0576171875) rotate(0 51 31.5)"><path d="M-0.4 0.51 C29.15 0.44, 58.55 -2.81, 101.72 0.82 M0.17 -0.77 C39.61 -0.75, 79 -0.23, 101.77 -0.46 M101.46 -1.38 C102.39 20.87, 101.57 41.07, 102.8 62.6 M102.4 0.58 C101.71 18.2, 101.81 38.13, 102.79 62.7 M101.08 62.48 C78.96 63.59, 53.44 60.13, 2 64.58 M101.79 62.86 C73.3 63.5, 46.55 64.23, 0.92 62.71 M1.69 61.71 C0.6 41.45, -1.27 21.8, 1.22 1.61 M0.28 63.73 C-1.13 39.48, -0.3 14.96, 0.07 -0.68" stroke="#000000" stroke-width="1" fill="none"></path></g><g stroke-linecap="round" transform="translate(568.5546875 531.9560546875) rotate(0 51 31.5)"><path d="M-1.53 0.08 C20.19 -0.11, 41.39 0.16, 101.89 -1.35 M-0.82 0.97 C22.54 0.16, 46.89 -0.46, 101.5 -0.89 M102.1 -0.3 C104.31 21.13, 101.56 44.13, 103.89 64.09 M101.9 0.15 C102.28 22.27, 101.53 45.14, 102.46 63.63 M101.21 64.49 C66.2 61.98, 32.95 61.19, -0.3 62.21 M101.21 62.16 C80.16 62.8, 58.33 62.94, -0.01 63.29 M-1.71 64.27 C-2.03 48.07, -0.44 31.4, -0.97 1.77 M0.34 62.08 C-0.8 44.31, -1.11 27.01, -0.59 0" stroke="#000000" stroke-width="1" fill="none"></path></g><g stroke-linecap="round" transform="translate(382.07421875 495.6474609375) rotate(0 51 31.5)"><path d="M-1.19 0.88 C33.84 -0.87, 70.72 0.07, 101.73 1.79 M-0.72 -0.8 C22.62 -1.46, 44.77 -0.94, 102.46 0.84 M100.07 -0.68 C100.67 19.59, 100.08 44.14, 103.5 62.69 M102.06 -0.42 C103.36 23.51, 101.73 47.69, 102.16 63.61 M101.65 65 C75.8 60.56, 46.5 60.79, 1.66 64.13 M102.46 62.44 C61.8 64.16, 22.46 63.09, -0.15 63.01 M-0.97 62.27 C-1.17 46.55, -1.93 33.61, 1.87 -1.61 M0.46 62.32 C-0.65 37.54, -1.15 13.95, 0.11 -0.05" stroke="#000000" stroke-width="1" fill="none"></path></g><g transform="translate(219.05078125 351.2099609375) rotate(0 46 11.5)"><text x="46" y="17" font-family="Virgil, Segoe UI Emoji" font-size="20px" fill="#000000" text-anchor="middle" style="white-space: pre;" direction="ltr">n/(2^2)</text></g><g transform="translate(144.2734375 524.2802734375) rotate(0 46 11.5)"><text x="46" y="17" font-family="Virgil, Segoe UI Emoji" font-size="20px" fill="#000000" text-anchor="middle" style="white-space: pre;" direction="ltr">n/(2^3)</text></g><g transform="translate(798.09765625 491.0576171875) rotate(0 46 11.5)"><text x="46" y="17" font-family="Virgil, Segoe UI Emoji" font-size="20px" fill="#000000" text-anchor="middle" style="white-space: pre;" direction="ltr">n/(2^3)</text></g><g transform="translate(808.09765625 501.0576171875) rotate(0 46 11.5)"><text x="46" y="17" font-family="Virgil, Segoe UI Emoji" font-size="20px" fill="#000000" text-anchor="middle" style="white-space: pre;" direction="ltr">n/(2^3)</text></g><g transform="translate(573.5546875 551.9560546875) rotate(0 46 11.5)"><text x="46" y="17" font-family="Virgil, Segoe UI Emoji" font-size="20px" fill="#000000" text-anchor="middle" style="white-space: pre;" direction="ltr">n/(2^3)</text></g><g transform="translate(387.07421875 515.6474609375) rotate(0 46 11.5)"><text x="46" y="17" font-family="Virgil, Segoe UI Emoji" font-size="20px" fill="#000000" text-anchor="middle" style="white-space: pre;" direction="ltr">n/(2^3)</text></g><g stroke-linecap="round"><g transform="translate(194.7390378340491 263.5328763496678) rotate(0 19.782230975879912 32.23811338727542)"><path d="M-0.6 -0.94 C6.23 9.67, 33.8 53.39, 40.39 64.23 M1.29 1.19 C8.08 11.93, 33.78 54.97, 39.88 65.64" stroke="#000000" stroke-width="1" fill="none"></path></g><g transform="translate(194.7390378340491 263.5328763496678) rotate(0 19.782230975879912 32.23811338727542)"><path d="M15.2 47.9 C22.28 50.43, 27.9 57.45, 40.84 63.85 M16.66 46.2 C23.1 52.43, 30.18 56.93, 40.8 66.52" stroke="#000000" stroke-width="1" fill="none"></path></g><g transform="translate(194.7390378340491 263.5328763496678) rotate(0 19.782230975879912 32.23811338727542)"><path d="M32.9 37.51 C35.56 42.58, 36.7 52.23, 40.84 63.85 M34.36 35.81 C35.92 44.79, 38.05 52.2, 40.8 66.52" stroke="#000000" stroke-width="1" fill="none"></path></g></g><g stroke-linecap="round"><g transform="translate(91.76562500000001 396.72412109375) rotate(0 -38.66938122353947 53.423828125)"><path d="M0.62 -0.15 C-12.23 17.91, -65.15 89.76, -78.16 107.49 M-0.52 -1.27 C-12.89 16.5, -62.92 87.62, -75.88 105.71" stroke="#000000" stroke-width="1" fill="none"></path></g><g transform="translate(91.76562500000001 396.72412109375) rotate(0 -38.66938122353947 53.423828125)"><path d="M-68.2 75.41 C-68.74 82.76, -72.49 90.99, -77.34 104.32 M-67.2 76.55 C-70.08 88.12, -73.67 98.09, -75.33 105.49" stroke="#000000" stroke-width="1" fill="none"></path></g><g transform="translate(91.76562500000001 396.72412109375) rotate(0 -38.66938122353947 53.423828125)"><path d="M-51.45 87.28 C-55.44 92.21, -62.72 97.94, -77.34 104.32 M-50.46 88.42 C-59.64 95.42, -69.57 100.89, -75.33 105.49" stroke="#000000" stroke-width="1" fill="none"></path></g></g><g stroke-linecap="round"><g transform="translate(518.9286579122052 263.39795572484843) rotate(0 27.20203492015918 37.71015996530652)"><path d="M0.91 0.49 C9.69 13.06, 44.7 62.92, 53.55 75.41 M-0.07 -0.3 C9.01 12.47, 46.97 64.1, 55.81 76.94" stroke="#000000" stroke-width="1" fill="none"></path></g><g transform="translate(518.9286579122052 263.39795572484843) rotate(0 27.20203492015918 37.71015996530652)"><path d="M31.87 58.54 C40.33 65.42, 49.59 73.51, 57.37 76.55 M30.14 60.69 C39 64.55, 46.01 71.26, 54.96 75.98" stroke="#000000" stroke-width="1" fill="none"></path></g><g transform="translate(518.9286579122052 263.39795572484843) rotate(0 27.20203492015918 37.71015996530652)"><path d="M48.57 46.61 C50.75 58.09, 53.74 70.66, 57.37 76.55 M46.84 48.75 C50.54 56.22, 52.31 66.68, 54.96 75.98" stroke="#000000" stroke-width="1" fill="none"></path></g></g><g stroke-linecap="round"><g transform="translate(155.1881063366155 399.7802734375) rotate(0 15.279273066549806 46.08639837072542)"><path d="M-0.6 0.9 C4.42 16.37, 24.72 76.69, 29.84 92.02 M1.28 0.32 C6.71 16.05, 27.53 78.37, 32.17 93.47" stroke="#000000" stroke-width="1" fill="none"></path></g><g transform="translate(155.1881063366155 399.7802734375) rotate(0 15.279273066549806 46.08639837072542)"><path d="M15.24 68.6 C18.44 75.72, 25 84.48, 34.15 92.39 M13.27 70.19 C19.01 75.75, 23.4 80.65, 31.5 92.96" stroke="#000000" stroke-width="1" fill="none"></path></g><g transform="translate(155.1881063366155 399.7802734375) rotate(0 15.279273066549806 46.08639837072542)"><path d="M34.76 62.29 C32.5 71.07, 33.64 81.57, 34.15 92.39 M32.8 63.88 C33.8 71.14, 33.41 77.58, 31.5 92.96" stroke="#000000" stroke-width="1" fill="none"></path></g></g><g stroke-linecap="round"><g transform="translate(844.443050948627 337.9833984375) rotate(0 2.5277381167623503 64.083251953125)"><path d="M0.49 -0.86 C1.33 20.28, 4.29 106.12, 5.04 127.73 M-0.72 1.31 C-0.03 22.53, 3.26 108.13, 4.09 129.03" stroke="#000000" stroke-width="1" fill="none"></path></g><g transform="translate(844.443050948627 337.9833984375) rotate(0 2.5277381167623503 64.083251953125)"><path d="M-8.69 101.24 C-4.39 109.46, 0.72 119.38, 3.7 129.31 M-6.55 101.33 C-4.29 110.81, 1.24 120.77, 3.13 129.46" stroke="#000000" stroke-width="1" fill="none"></path></g><g transform="translate(844.443050948627 337.9833984375) rotate(0 2.5277381167623503 64.083251953125)"><path d="M11.82 100.44 C9.99 108.99, 8.97 119.14, 3.7 129.31 M13.96 100.53 C8.73 110.11, 6.79 120.37, 3.13 129.46" stroke="#000000" stroke-width="1" fill="none"></path></g></g><g stroke-linecap="round"><g transform="translate(619.900082198627 398.8818359375) rotate(0 2.5277381167623503 64.083251953125)"><path d="M0.05 -0.26 C0.78 21.26, 4.62 106.85, 5.57 128.25 M-1.39 -1.45 C-0.86 20.37, 3.77 108.02, 4.89 129.83" stroke="#000000" stroke-width="1" fill="none"></path></g><g transform="translate(619.900082198627 398.8818359375) rotate(0 2.5277381167623503 64.083251953125)"><path d="M-7.25 103.06 C-2.27 114.24, 2.12 122.68, 3.44 130.14 M-7.49 102.14 C-3.32 109.11, -1.01 116.59, 5.46 130.38" stroke="#000000" stroke-width="1" fill="none"></path></g><g transform="translate(619.900082198627 398.8818359375) rotate(0 2.5277381167623503 64.083251953125)"><path d="M13.24 102 C10.12 113.6, 6.41 122.46, 3.44 130.14 M13.01 101.08 C11.45 108.54, 8.05 116.32, 5.46 130.38" stroke="#000000" stroke-width="1" fill="none"></path></g></g><g stroke-linecap="round"><g transform="translate(261.80859375 397.757080078125) rotate(0 15.646484375 44.43359375)"><path d="M0.02 1.15 C5.2 15.83, 26.23 74.6, 31.36 89.26 M-1.43 0.71 C3.57 15.52, 25.25 72.37, 30.45 87.34" stroke="#000000" stroke-width="1" fill="none"></path></g><g transform="translate(261.80859375 397.757080078125) rotate(0 15.646484375 44.43359375)"><path d="M13.05 64.5 C18.3 70.99, 24.31 79.7, 29.73 87.53 M11.23 64.47 C16.84 71.41, 20.54 76.97, 30.99 88.15" stroke="#000000" stroke-width="1" fill="none"></path></g><g transform="translate(261.80859375 397.757080078125) rotate(0 15.646484375 44.43359375)"><path d="M32.32 57.45 C31.37 66.25, 31.1 77.25, 29.73 87.53 M30.5 57.42 C30.96 66.07, 29.5 73.52, 30.99 88.15" stroke="#000000" stroke-width="1" fill="none"></path></g></g><g stroke-linecap="round"><g transform="translate(898.8526330515742 346.0494554432761) rotate(0 32.509230349212885 65.28349981742446)"><path d="M-0.86 -0.01 C9.75 21.66, 53.5 108.61, 64.58 130.53 M0.89 -1.07 C11.23 20.77, 52.69 110.27, 63.4 132.05" stroke="#000000" stroke-width="1" fill="none"></path></g><g transform="translate(898.8526330515742 346.0494554432761) rotate(0 32.509230349212885 65.28349981742446)"><path d="M42.01 110.26 C50.1 120.06, 59.75 126.61, 63.67 133.35 M42.1 110.05 C45.87 115.94, 50.43 119.18, 63.82 131.09" stroke="#000000" stroke-width="1" fill="none"></path></g><g transform="translate(898.8526330515742 346.0494554432761) rotate(0 32.509230349212885 65.28349981742446)"><path d="M60.54 101.46 C61.7 114.43, 64.38 124.29, 63.67 133.35 M60.63 101.24 C60.23 109.21, 60.69 114.4, 63.82 131.09" stroke="#000000" stroke-width="1" fill="none"></path></g></g><g stroke-linecap="round"><g transform="translate(674.3096643015742 406.9478929432761) rotate(0 32.509230349212885 65.28349981742446)"><path d="M-0.26 0.51 C10.74 22.38, 54.23 109.7, 65.1 131.24 M1.8 -0.26 C12.73 21.25, 53.8 107.66, 64.19 129.47" stroke="#000000" stroke-width="1" fill="none"></path></g><g transform="translate(674.3096643015742 406.9478929432761) rotate(0 32.509230349212885 65.28349981742446)"><path d="M43.66 108.57 C48.72 113.08, 51.03 116.44, 64.51 129.05 M42.75 108.89 C46.99 112.67, 51.44 118.32, 64.75 128.54" stroke="#000000" stroke-width="1" fill="none"></path></g><g transform="translate(674.3096643015742 406.9478929432761) rotate(0 32.509230349212885 65.28349981742446)"><path d="M62.19 99.75 C63.11 106.19, 61.28 111.52, 64.51 129.05 M61.27 100.07 C61.57 105.64, 61.98 113.22, 64.75 128.54" stroke="#000000" stroke-width="1" fill="none"></path></g></g><g stroke-linecap="round"><g transform="translate(311.6328125 393.725830078125) rotate(0 56.994140625 46.09765625)"><path d="M-0.29 -0.32 C18.64 14.86, 94.74 76.01, 113.66 91.32 M1.76 -1.54 C20.5 13.75, 93.55 76.73, 112.54 92.4" stroke="#000000" stroke-width="1" fill="none"></path></g><g transform="translate(311.6328125 393.725830078125) rotate(0 56.994140625 46.09765625)"><path d="M83.85 81.49 C91.55 83.99, 100.51 89.32, 110.74 90.41 M83.62 82.52 C90.03 84.83, 98.19 87.81, 111.84 93.07" stroke="#000000" stroke-width="1" fill="none"></path></g><g transform="translate(311.6328125 393.725830078125) rotate(0 56.994140625 46.09765625)"><path d="M97.1 65.82 C100.78 73.08, 105.7 83.19, 110.74 90.41 M96.87 66.84 C100.05 72.81, 105.09 79.47, 111.84 93.07" stroke="#000000" stroke-width="1" fill="none"></path></g></g><g stroke-linecap="round"><g transform="translate(571.2266412675004 215.87890580629966) rotate(0 112.18044347549323 33.235200136626425)"><path d="M-0.55 -0.49 C36.57 10.69, 186.42 55.59, 223.79 66.68 M1.36 -1.8 C38.18 9.03, 185.07 53.18, 222.54 64.67" stroke="#000000" stroke-width="1" fill="none"></path></g><g transform="translate(571.2266412675004 215.87890580629966) rotate(0 112.18044347549323 33.235200136626425)"><path d="M191.76 65.36 C204.55 64.62, 215.11 66.44, 222.38 63.5 M192.08 66.7 C203.47 66.74, 214.29 64.59, 223.45 65.09" stroke="#000000" stroke-width="1" fill="none"></path></g><g transform="translate(571.2266412675004 215.87890580629966) rotate(0 112.18044347549323 33.235200136626425)"><path d="M197.72 45.72 C208.13 52.57, 216.38 61.99, 222.38 63.5 M198.03 47.06 C207.34 54.32, 215.96 59.42, 223.45 65.09" stroke="#000000" stroke-width="1" fill="none"></path></g></g></svg>