<svg xmlns="http://www.w3.org/2000/svg" height="512" width="512"><path d="M240.687 22.538c-125.805 0-228.164 102.36-228.164 228.168 0 125.82 102.36 228.173 228.164 228.173 125.81 0 228.168-102.354 228.168-228.173 0-125.809-102.359-228.168-228.168-228.168" fill="#fff"/><path d="M232.343 254.81a953.247 953.247 0 00-6.654 14.744c-8.28 18.76-17.45 41.587-20.799 56.211-1.203 5.209-1.948 11.664-1.934 18.82 0 2.831.152 5.806.392 8.837 11.706 4.3 24.35 6.666 37.553 6.69a109.402 109.402 0 0034.375-5.603c-2.54-2.323-4.964-4.799-7.171-7.588-14.653-18.685-22.828-46.069-35.762-92.112m-54.096-92.831c-27.985 19.722-46.297 52.25-46.366 89.113.07 36.312 17.83 68.42 45.11 88.224 6.692-27.874 23.466-53.397 48.62-104.556a411.465 411.465 0 00-5.102-13.314c-6.968-17.48-17.025-37.779-26-46.972-4.576-4.802-10.129-8.952-16.262-12.495" fill="#91dc47"/><path d="M335.867 376.137c-14.439-1.81-26.355-3.993-36.78-7.67-17.533 8.705-37.278 13.623-58.186 13.623-72.343 0-130.987-58.635-130.996-131 0-39.263 17.298-74.462 44.664-98.467-7.32-1.768-14.952-2.8-22.749-2.786-38.435.362-79.008 21.633-95.9 79.079-1.579 8.362-1.203 14.685-1.203 22.178 0 113.879 92.32 206.199 206.19 206.199 69.737 0 131.341-34.651 168.648-87.647-20.178 5.029-39.583 7.434-56.2 7.485-6.228 0-12.075-.333-17.488-.994" fill="#63b132"/><path d="M297.121 336.183c1.273.63 4.159 1.66 8.175 2.8 27.018-19.834 44.576-51.783 44.646-87.892h-.011c-.102-60.199-48.817-108.907-109.03-109.026a109.292 109.292 0 00-34.23 5.565c22.138 25.234 32.783 61.295 43.08 100.74.006.019.015.033.018.047.02.032 3.295 10.954 8.917 25.444 5.583 14.47 13.536 32.385 22.21 45.44 5.696 8.75 11.96 15.037 16.225 16.882" fill="#90b4fe"/><path d="M240.907 44.893c-69.063 0-130.155 33.998-167.574 86.129 19.474-12.196 39.359-16.596 56.712-16.439 23.968.07 42.811 7.501 51.852 12.585 2.184 1.259 4.257 2.613 6.287 4.005 16.132-7.105 33.958-11.078 52.717-11.078 72.352.009 131.005 58.644 131.016 130.996h-.01c0 36.478-14.92 69.46-38.973 93.211 5.904.661 12.2 1.073 18.63 1.041 22.836.01 47.519-5.028 66.024-20.592 12.066-10.164 22.174-25.046 27.78-47.36 1.097-8.619 1.728-17.38 1.728-26.297 0-113.872-92.311-206.201-206.19-206.201" fill="#5881d8"/></svg>