<svg version="1.1" xmlns="http://www.w3.org/2000/svg" viewBox="0 0 1181.78125 457.1380615234375" width="2363.5625" height="914.276123046875">
  <!-- svg-source:excalidraw -->
  
  <defs>
    <style>
      @font-face {
        font-family: "Virgil";
        src: url("https://excalidraw.com/Virgil.woff2");
      }
      @font-face {
        font-family: "Cascadia";
        src: url("https://excalidraw.com/Cascadia.woff2");
      }
    </style>
  </defs>
  <rect x="0" y="0" width="1181.78125" height="457.1380615234375" fill="#FFF"></rect><g stroke-linecap="round" transform="translate(97.63671875 10) rotate(0 66.1640625 38.931640625)"><path d="M1.54 -1.13 C26.77 -0.78, 51.33 -2.21, 133.71 1.21 M-0.26 0.51 C28.8 1.96, 57.19 2.09, 133.03 -0.44 M132.26 1.9 C130.84 28.84, 133.65 59.18, 133.49 78.52 M132.07 -0.94 C131.74 27.09, 131.08 54.16, 133.04 77.66 M130.68 78.15 C98.83 77.86, 63.37 80.02, 0.37 79.74 M132.6 78.52 C88 79.78, 45.31 78.95, -0.11 77.7 M1.15 79.17 C0.71 61.11, -0.69 43.42, -1.21 1.46 M-0.05 78.54 C-0.25 48.98, -0.86 21.25, -0.68 0.24" stroke="#000000" stroke-width="1" fill="none"></path></g><g transform="translate(102.63671875 36.431640625) rotate(0 61 11.5)"><text x="61" y="17" font-family="Virgil, Segoe UI Emoji" font-size="20px" fill="#000000" text-anchor="middle" style="white-space: pre;" direction="ltr">T(n)</text></g><g stroke-linecap="round" transform="translate(20.64453125 153.0234375) rotate(0 34.5 19.5)"><path d="M-0.01 -1.21 C25.45 1.4, 48.41 1.02, 68.9 1.34 M-0.15 -0.68 C20.35 0.32, 40.69 0.74, 68.62 0.21 M70.4 -1.77 C69.8 7.94, 67.54 16.43, 67.61 37.43 M69.97 0.15 C69.32 9.84, 68.51 18.6, 69.78 39.9 M71 37.06 C39.9 38.11, 14.51 36.8, 1.88 40.88 M68.3 38.92 C47.51 39.22, 23.72 39.59, -0.69 38.4 M1.88 37.71 C1.8 30.69, 1.56 19.98, -0.38 1.53 M-0.33 39.75 C-0.5 26.08, -0.15 13.07, 0.97 -0.74" stroke="#000000" stroke-width="1" fill="none"></path></g><g transform="translate(25.64453125 161.0234375) rotate(0 29.5 11.5)"><text x="29.5" y="17" font-family="Virgil, Segoe UI Emoji" font-size="20px" fill="#000000" text-anchor="middle" style="white-space: pre;" direction="ltr">1</text></g><g stroke-linecap="round" transform="translate(149.76953125 153.4140625) rotate(0 36 19)"><path d="M1.04 0.09 C24.29 2.38, 52.1 -1.12, 72.71 0.07 M0.94 0.04 C19.88 -0.33, 39.17 0.08, 71.84 0.24 M70.12 0.57 C70.25 9.97, 70.29 20.87, 70.7 38.02 M72.58 0.42 C72.49 12.59, 72.71 24.98, 72.11 37.54 M71.07 39.26 C44.96 38.4, 19.91 39.94, -0.83 36.85 M71.89 38.5 C56.64 38.04, 41.08 38.84, 0.35 37.89 M-1.31 36.45 C1.08 23.91, -1.19 11.38, -0.65 -0.79 M-0.47 37.86 C0.98 29.84, 0.48 19.56, 0.13 -0.42" stroke="#000000" stroke-width="1" fill="none"></path></g><g transform="translate(154.76953125 160.9140625) rotate(0 31 11.5)"><text x="31" y="17" font-family="Virgil, Segoe UI Emoji" font-size="20px" fill="#000000" text-anchor="middle" style="white-space: pre;" direction="ltr">T(n-1)</text></g><g stroke-linecap="round" transform="translate(592.9296875 160.0703125) rotate(0 40.5 19)"><path d="M-0.83 -1.15 C21.31 -0.6, 48.02 -0.73, 82 -0.72 M0.35 -0.11 C20.05 -1.09, 39.46 -0.82, 80.23 0.37 M80.35 -0.79 C79.39 8.19, 78.72 18.86, 80.71 39.32 M81.13 -0.42 C80.97 14.88, 81.86 29, 81.82 37.31 M82.55 39.41 C60.82 39.23, 38.94 39.5, 0.7 36.5 M80.66 38.94 C49.35 36.77, 16.45 37.59, -0.98 38.58 M0.6 37.98 C-0.98 28.78, 1.26 20.51, -0.28 1.17 M-0.03 38.05 C-0.2 26.2, -0.6 11.58, 0.51 0.25" stroke="#000000" stroke-width="1" fill="none"></path></g><g transform="translate(597.9296875 167.5703125) rotate(0 35.5 11.5)"><text x="35.5" y="17" font-family="Virgil, Segoe UI Emoji" font-size="20px" fill="#000000" text-anchor="middle" style="white-space: pre;" direction="ltr">T(n-1)</text></g><g stroke-linecap="round"><g transform="translate(108.0234375 89.4609375) rotate(0 -19.75390625 26.96484375)"><path d="M0.02 0.95 C-6.64 9.93, -34.06 44.68, -40.58 53.61 M-1.42 0.4 C-7.68 9.58, -32.06 46.29, -38.43 54.98" stroke="#000000" stroke-width="1" fill="none"></path></g><g transform="translate(108.0234375 89.4609375) rotate(0 -19.75390625 26.96484375)"><path d="M-29.23 24.17 C-33.32 33.92, -33.67 39.56, -39.53 53.78 M-30.99 26.43 C-33.8 36.94, -36.17 46.82, -38.84 55.64" stroke="#000000" stroke-width="1" fill="none"></path></g><g transform="translate(108.0234375 89.4609375) rotate(0 -19.75390625 26.96484375)"><path d="M-12.36 35.86 C-20.67 42.68, -25.25 45.38, -39.53 53.78 M-14.12 38.12 C-22.88 44.62, -31.15 50.43, -38.84 55.64" stroke="#000000" stroke-width="1" fill="none"></path></g></g><g stroke-linecap="round"><g transform="translate(176.95703125 88.50390625) rotate(0 1.23046875 28.64453125)"><path d="M0.47 0.23 C0.94 9.83, 1.72 48.86, 2.05 58.33 M-0.75 -0.7 C-0.39 8.53, 0.48 46.92, 0.88 56.75" stroke="#000000" stroke-width="1" fill="none"></path></g><g transform="translate(176.95703125 88.50390625) rotate(0 1.23046875 28.64453125)"><path d="M-9.37 29.44 C-5.4 36.25, -5.04 42.29, 0.8 58.46 M-10.35 30.79 C-6.1 39.77, -1.29 50.87, 1.49 56" stroke="#000000" stroke-width="1" fill="none"></path></g><g transform="translate(176.95703125 88.50390625) rotate(0 1.23046875 28.64453125)"><path d="M10.23 28.83 C9.66 35.86, 5.46 42.04, 0.8 58.46 M9.25 30.19 C6.2 39.54, 3.7 50.87, 1.49 56" stroke="#000000" stroke-width="1" fill="none"></path></g></g><g stroke-linecap="round"><g transform="translate(231.21600457735332 60.23883538064567) rotate(0 178.89989760315532 50.11800618170308)"><path d="M-0.49 -0.21 C59.25 16.26, 297.86 82.94, 357.44 99.65 M1.46 -1.37 C61.09 15.18, 296.63 83.77, 356.31 100.89" stroke="#000000" stroke-width="1" fill="none"></path></g><g transform="translate(231.21600457735332 60.23883538064567) rotate(0 178.89989760315532 50.11800618170308)"><path d="M326.02 102.32 C331.91 101.3, 339.16 101.41, 357.23 100.05 M325.51 102.83 C333.06 102.48, 341.31 100.94, 356.63 101.83" stroke="#000000" stroke-width="1" fill="none"></path></g><g transform="translate(231.21600457735332 60.23883538064567) rotate(0 178.89989760315532 50.11800618170308)"><path d="M331.72 82.6 C336.5 85.86, 342.52 90.26, 357.23 100.05 M331.2 83.12 C337.58 87.58, 344.45 90.81, 356.63 101.83" stroke="#000000" stroke-width="1" fill="none"></path></g></g><g stroke-linecap="round"><g transform="translate(148.734375 193.2552490234375) rotate(0 -19.673828125 29.166015625)"><path d="M0.36 -0.4 C-6.23 9.46, -32.45 48.78, -38.93 58.45 M-0.9 -1.65 C-7.68 8.48, -33.33 50.01, -39.65 60.04" stroke="#000000" stroke-width="1" fill="none"></path></g><g transform="translate(148.734375 193.2552490234375) rotate(0 -19.673828125 29.166015625)"><path d="M-34.1 31.4 C-35.62 42.5, -39.17 49.69, -41.18 59.63 M-33.63 30.18 C-34.09 36.61, -35.66 44.74, -40.37 60.79" stroke="#000000" stroke-width="1" fill="none"></path></g><g transform="translate(148.734375 193.2552490234375) rotate(0 -19.673828125 29.166015625)"><path d="M-16.69 42.25 C-24.3 49.57, -34.01 52.92, -41.18 59.63 M-16.22 41.03 C-20.73 45.09, -26.33 50.71, -40.37 60.79" stroke="#000000" stroke-width="1" fill="none"></path></g></g><g stroke-linecap="round" transform="translate(71.01171875 258.3450927734375) rotate(0 33.5 21.373046875)"><path d="M1.3 -0.62 C16.89 -1.56, 34.87 -0.63, 68.69 -1.23 M0.28 0.67 C20.74 1.27, 41.08 0.01, 66.05 -0.53 M66.62 0.87 C66.22 15.32, 67.97 33.5, 68.96 44.03 M67.74 -0.57 C66.38 10.58, 66.47 21.09, 67.95 43.58 M66.02 44.02 C46.95 41.91, 26.36 40.67, -1.54 42.37 M66.31 43.53 C47.52 41.77, 26.41 42.46, 0.11 42.67 M0.99 41.72 C-1.56 31.18, -0.06 21.78, -1.37 -1.03 M-0.55 41.91 C0.32 32.23, -0.66 21.7, -0.84 -0.37" stroke="#000000" stroke-width="1" fill="none"></path></g><g transform="translate(76.01171875 267.2181396484375) rotate(0 28.5 11.5)"><text x="28.5" y="17" font-family="Virgil, Segoe UI Emoji" font-size="20px" fill="#000000" text-anchor="middle" style="white-space: pre;" direction="ltr">1</text></g><g stroke-linecap="round" transform="translate(176.015625 269.8568115234375) rotate(0 37.5 24.173828125)"><path d="M-0.49 1.21 C24.35 -0.6, 45.04 -0.77, 74.84 -0.22 M0.43 -0.24 C16.82 -0.51, 35.24 0.76, 74.52 0.85 M73.22 -1.88 C74.9 8.49, 76.45 21.88, 76.45 46.38 M75.27 -0.09 C73.9 9.69, 73.82 22.29, 74.2 48.94 M75.84 46.73 C55.1 49.18, 35.31 46.87, -1.37 48.36 M75.68 48.93 C45.09 49.6, 15.85 49.54, 0.35 48.57 M1.36 48.2 C-1.51 34.33, 2.27 19.92, -0.7 -1.57 M0.86 48.78 C0.58 32.2, -0.56 16.75, -0.65 0.88" stroke="#000000" stroke-width="1" fill="none"></path></g><g transform="translate(181.015625 281.5306396484375) rotate(0 32.5 11.5)"><text x="32.5" y="17" font-family="Virgil, Segoe UI Emoji" font-size="20px" fill="#000000" text-anchor="middle" style="white-space: pre;" direction="ltr">T(n-2)</text></g><g stroke-linecap="round"><g transform="translate(187.2421875 195.2982177734375) rotate(0 9.55859375 34.390625)"><path d="M-0.7 -0.72 C2.74 10.58, 16.85 57.06, 20.01 68.7 M1.14 1.52 C4.55 12.93, 16.26 58.68, 19.53 70.19" stroke="#000000" stroke-width="1" fill="none"></path></g><g transform="translate(187.2421875 195.2982177734375) rotate(0 9.55859375 34.390625)"><path d="M1.11 47.12 C6.67 50.52, 11.64 59.44, 17.86 72.07 M1.31 44.7 C6.66 52.02, 10.96 59.09, 19.66 69.74" stroke="#000000" stroke-width="1" fill="none"></path></g><g transform="translate(187.2421875 195.2982177734375) rotate(0 9.55859375 34.390625)"><path d="M20.93 41.79 C21.57 46.41, 21.56 56.67, 17.86 72.07 M21.13 39.38 C21.28 48.06, 20.42 56.52, 19.66 69.74" stroke="#000000" stroke-width="1" fill="none"></path></g></g><g stroke-linecap="round" transform="translate(295.90234375 275.2669677734375) rotate(0 39 23.048828125)"><path d="M-0.99 -0.02 C31.02 -0.97, 60.16 -1.09, 76.89 0.79 M-0.43 0.28 C21.72 0.64, 43.88 1.12, 77.53 0.21 M76.63 0.76 C79.33 14.2, 77.29 26.17, 77.77 44.17 M78.21 0.83 C78.21 10.64, 77.85 19.85, 78.11 45.73 M77.85 46.23 C46.72 47.79, 18.26 46.08, 1.04 45.33 M77.2 46.79 C61.12 46.1, 45.8 47.12, 0.58 45.57 M-0.67 46.83 C-0.85 34.95, 0.02 20.3, 0.67 0.82 M0.19 45.86 C-0.08 28.97, -0.36 14.23, -0.17 0.78" stroke="#000000" stroke-width="1" fill="none"></path></g><g transform="translate(300.90234375 285.8157958984375) rotate(0 34 11.5)"><text x="34" y="17" font-family="Virgil, Segoe UI Emoji" font-size="20px" fill="#000000" text-anchor="middle" style="white-space: pre;" direction="ltr">T(n-2)</text></g><g stroke-linecap="round"><g transform="translate(222.87890625 192.8294677734375) rotate(0 39.078125 38.17578125)"><path d="M-0.35 0.04 C12.83 12.82, 66.33 63.25, 79.27 75.98 M1.67 -0.98 C14.77 12.03, 65.9 64.2, 78.9 77.32" stroke="#000000" stroke-width="1" fill="none"></path></g><g transform="translate(222.87890625 192.8294677734375) rotate(0 39.078125 38.17578125)"><path d="M51.88 66.29 C59.72 67.12, 69.01 72.27, 79.78 78.29 M52.14 63.91 C61.13 69.95, 72.26 75.11, 79.23 77.2" stroke="#000000" stroke-width="1" fill="none"></path></g><g transform="translate(222.87890625 192.8294677734375) rotate(0 39.078125 38.17578125)"><path d="M66.5 51.89 C69.61 57.25, 74.26 66.98, 79.78 78.29 M66.76 49.51 C70.17 60.99, 75.79 71.57, 79.23 77.2" stroke="#000000" stroke-width="1" fill="none"></path></g></g><g stroke-linecap="round" transform="translate(540.8359375 247.2904052734375) rotate(0 28 20.1796875)"><path d="M-1.44 -0.91 C13.33 1.12, 29.98 0.02, 57.24 0.98 M0.81 0.23 C13.29 -0.14, 27.4 0.39, 55.69 0.31 M54.79 0.13 C57 15.71, 54.82 29.07, 55.49 42.12 M56.96 -0.16 C56.19 10.35, 55.35 22.64, 55.39 39.54 M55.39 41.38 C35.86 41.14, 11.75 41.95, 0.88 40.04 M56.08 40.5 C40.35 39.61, 25 40.93, -0.39 40.18 M0.99 40.73 C0.69 30.72, 1.91 21.18, -0.62 -0.72 M-0.18 39.38 C0.49 25.43, -0.53 10.01, -0.76 -0.69" stroke="#000000" stroke-width="1" fill="none"></path></g><g transform="translate(545.8359375 254.9700927734375) rotate(0 23 11.5)"><text x="23" y="17" font-family="Virgil, Segoe UI Emoji" font-size="20px" fill="#000000" text-anchor="middle" style="white-space: pre;" direction="ltr">1</text></g><g stroke-linecap="round"><g transform="translate(598.16796875 216.7630615234375) rotate(0 -7.607421875 12.6015625)"><path d="M1.19 0.53 C-1.5 4.75, -12.5 20.84, -15.4 24.99 M0.35 -0.24 C-2.57 4.19, -14.08 21.9, -16.45 26.42" stroke="#000000" stroke-width="1" fill="none"></path></g><g transform="translate(598.16796875 216.7630615234375) rotate(0 -7.607421875 12.6015625)"><path d="M-13.04 11.73 C-14.98 15.92, -15.4 22.46, -16.25 26.68 M-13.98 11.83 C-14.69 15.21, -15.21 18.52, -16.31 26.7" stroke="#000000" stroke-width="1" fill="none"></path></g><g transform="translate(598.16796875 216.7630615234375) rotate(0 -7.607421875 12.6015625)"><path d="M-4.4 16.89 C-9.41 19.32, -12.94 24.01, -16.25 26.68 M-5.33 16.99 C-7.92 19.3, -10.3 21.51, -16.31 26.7" stroke="#000000" stroke-width="1" fill="none"></path></g></g><g stroke-linecap="round" transform="translate(648.6953125 246.7630615234375) rotate(0 48 28.5)"><path d="M0.42 1.86 C22.73 -0.71, 47.32 1.46, 97.66 1.65 M0.64 0.99 C36.37 -1.23, 74.08 -0.36, 95.67 -0.44 M95.24 1.7 C95.14 18.9, 93.86 40.95, 95.59 56.92 M95.48 -0.6 C94.73 12.67, 94.76 26.89, 96.56 56.58 M96.2 57.15 C73.02 59.75, 48.31 57.86, -1.25 55.77 M95.57 57.69 C71.62 56.32, 46.07 56.94, -0.39 56.74 M-0.27 58.02 C-1.58 40.76, -0.41 22.41, -1.09 1.95 M0.18 57.67 C-0.33 38.67, -0.47 18.69, 0.28 -0.01" stroke="#000000" stroke-width="1" fill="none"></path></g><g transform="translate(653.6953125 263.7630615234375) rotate(0 43 11.5)"><text x="43" y="17" font-family="Virgil, Segoe UI Emoji" font-size="20px" fill="#000000" text-anchor="middle" style="white-space: pre;" direction="ltr">T(n-2)</text></g><g stroke-linecap="round"><g transform="translate(642.6171875 216.3450927734375) rotate(0 10.439453125 13.798828125)"><path d="M1.11 -0.12 C4.48 4.64, 17.6 23.89, 20.79 28.47 M0.24 -1.24 C3.38 3.21, 16.65 21.85, 19.79 26.8" stroke="#000000" stroke-width="1" fill="none"></path></g><g transform="translate(642.6171875 216.3450927734375) rotate(0 10.439453125 13.798828125)"><path d="M5.59 16.53 C11.93 19.11, 15.19 24.63, 20.89 28.22 M5.88 16.17 C9.28 20.04, 14.55 21.76, 20.2 26.69" stroke="#000000" stroke-width="1" fill="none"></path></g><g transform="translate(642.6171875 216.3450927734375) rotate(0 10.439453125 13.798828125)"><path d="M15.39 9.89 C18.28 14.89, 18.11 22.74, 20.89 28.22 M15.68 9.53 C16.18 15.33, 18.6 18.98, 20.2 26.69" stroke="#000000" stroke-width="1" fill="none"></path></g></g><g stroke-linecap="round" transform="translate(904.5859375 262.8997802734375) rotate(0 47.66015625 30.275390625)"><path d="M-0.18 1.53 C29.78 1.7, 60.25 2.05, 93.41 -1.24 M-0.38 0.66 C25.54 -1.17, 52.17 -0.47, 95.56 0.12 M97.21 1.77 C95.94 20.71, 94.81 43.15, 97.3 58.95 M95.66 -0.41 C95.83 21, 95.26 40.74, 94.44 60.21 M94.37 59.33 C71.38 61.51, 46.12 62.58, 0.82 58.8 M95.03 60.46 C72.17 59.42, 50.69 61, -0.46 61.27 M1.88 59.01 C-1.24 45.29, -1.52 27.61, -0.98 1.66 M-0.72 61.53 C-1.32 42.39, 0.1 25.68, 0.03 0.08" stroke="#000000" stroke-width="1" fill="none"></path></g><g transform="translate(909.5859375 280.6751708984375) rotate(0 42.5 11.5)"><text x="42.5" y="17" font-family="Virgil, Segoe UI Emoji" font-size="20px" fill="#000000" text-anchor="middle" style="white-space: pre;" direction="ltr">T(n-2)</text></g><g stroke-linecap="round"><g transform="translate(669.8238151285989 200.0638427734375) rotate(0 117.12111341026718 30.990853830982587)"><path d="M1 -0.19 C40.15 10.38, 196.49 52.26, 235.22 62.82 M0.06 -1.33 C39.11 8.95, 195.5 50.67, 234.79 61.13" stroke="#000000" stroke-width="1" fill="none"></path></g><g transform="translate(669.8238151285989 200.0638427734375) rotate(0 117.12111341026718 30.990853830982587)"><path d="M204.6 65.43 C216.09 61.24, 226.42 60.16, 232.91 62.32 M204.54 63.7 C213.01 63.93, 219.88 62.31, 234.62 61.22" stroke="#000000" stroke-width="1" fill="none"></path></g><g transform="translate(669.8238151285989 200.0638427734375) rotate(0 117.12111341026718 30.990853830982587)"><path d="M209.88 45.6 C219.55 47.94, 228.15 53.35, 232.91 62.32 M209.83 43.87 C216.95 49.19, 222.46 52.66, 234.62 61.22" stroke="#000000" stroke-width="1" fill="none"></path></g></g><g stroke-linecap="round" transform="translate(91.52734375 384.4075927734375) rotate(0 54.5 28.5)"><path d="M-0.31 -0.72 C38.43 1.2, 81.72 -0.76, 109.82 1.35 M0.39 -0.8 C30.44 0.28, 62.12 0.14, 109.2 0.64 M109.11 0.13 C111.25 18.51, 110.39 34.37, 109.51 57.95 M109.11 0.24 C109.58 20.52, 108.23 40.01, 109.42 57.22 M109.06 56.31 C80.51 57.09, 48.87 59.91, 0.42 57.77 M108.36 56.96 C79.78 56.56, 51.69 58.39, 0.53 56.52 M1.81 57.28 C-1.48 37.36, -0.52 21.78, 1.15 1.18 M0.73 57.07 C1.21 45.67, 0.62 34.65, -0.17 -0.07" stroke="#000000" stroke-width="1" fill="none"></path></g><g transform="translate(96.52734375 401.4075927734375) rotate(0 49.5 11.5)"><text x="49.5" y="17" font-family="Virgil, Segoe UI Emoji" font-size="20px" fill="#000000" text-anchor="middle" style="white-space: pre;" direction="ltr">T(n-3)</text></g><g stroke-linecap="round"><g transform="translate(181.48828125 316.4232177734375) rotate(0 -15.53736155140362 33.49218750000003)"><path d="M-0.3 0.08 C-5.45 11.53, -26.38 57, -31.49 68.07 M1.75 -0.92 C-3.55 10.27, -27.08 55.1, -32.66 66.51" stroke="#000000" stroke-width="1" fill="none"></path></g><g transform="translate(181.48828125 316.4232177734375) rotate(0 -15.53736155140362 33.49218750000003)"><path d="M-28.89 36.04 C-28.3 44.42, -31.81 53.31, -32.09 65.54 M-29.81 36.81 C-30.42 45.95, -30.82 56.93, -31.71 67.09" stroke="#000000" stroke-width="1" fill="none"></path></g><g transform="translate(181.48828125 316.4232177734375) rotate(0 -15.53736155140362 33.49218750000003)"><path d="M-10.6 45.34 C-14.61 51.32, -22.77 57.84, -32.09 65.54 M-11.52 46.12 C-18.07 52.37, -24.44 60.31, -31.71 67.09" stroke="#000000" stroke-width="1" fill="none"></path></g></g><g stroke-linecap="round" transform="translate(232.6640625 388.4583740234375) rotate(0 45.724609375 29.33984375)"><path d="M0.29 -1.86 C37.69 -0.01, 73.24 0.43, 92.24 -0.62 M0.6 0.61 C30.91 -0.6, 61.52 0.58, 91.23 0.52 M90.01 -1.24 C93.15 16.62, 92.7 30.9, 90.69 56.74 M91.36 -0.93 C92.35 12.17, 90.97 24.32, 91.54 58.85 M92.03 59.62 C57.06 58.3, 21.96 57.51, 1.82 58.18 M90.91 57.69 C71.4 60.37, 51.33 60.55, -0.33 58.86 M0.84 57.64 C-1.14 36.66, 1.19 15.58, -0.66 0.9 M0.25 58.93 C0.17 46.35, -0.46 34.65, -0.79 -0.96" stroke="#000000" stroke-width="1" fill="none"></path></g><g transform="translate(237.6640625 405.2982177734375) rotate(0 40.5 11.5)"><text x="40.5" y="17" font-family="Virgil, Segoe UI Emoji" font-size="20px" fill="#000000" text-anchor="middle" style="white-space: pre;" direction="ltr">T(n-3)</text></g><g stroke-linecap="round"><g transform="translate(235.5 317.9583740234375) rotate(0 13.609375 35.61328125)"><path d="M-0.95 -1.15 C3.67 10.67, 21.73 58.7, 26.56 70.87 M0.75 0.86 C5.87 12.85, 24.44 60.72, 28.92 72.21" stroke="#000000" stroke-width="1" fill="none"></path></g><g transform="translate(235.5 317.9583740234375) rotate(0 13.609375 35.61328125)"><path d="M7.21 48.56 C12.53 55.67, 18.16 60.11, 29.95 70.61 M9.63 50.66 C14.05 56.51, 21.44 63.98, 29.32 73.11" stroke="#000000" stroke-width="1" fill="none"></path></g><g transform="translate(235.5 317.9583740234375) rotate(0 13.609375 35.61328125)"><path d="M26.34 41.11 C27.78 49.58, 29.53 55.52, 29.95 70.61 M28.76 43.21 C27.47 51.12, 29.15 60.81, 29.32 73.11" stroke="#000000" stroke-width="1" fill="none"></path></g></g><g stroke-linecap="round"><g transform="translate(175.17578125 312.3177490234375) rotate(0 -67.1484375 35.408203125)"><path d="M-0.86 -0.49 C-23.06 11.36, -111.35 60.19, -133.62 71.93 M0.89 -1.8 C-21.37 9.68, -111.51 58.29, -134.22 70.39" stroke="#000000" stroke-width="1" fill="none"></path></g><g transform="translate(175.17578125 312.3177490234375) rotate(0 -67.1484375 35.408203125)"><path d="M-115.04 49.15 C-117.5 53.47, -126.1 58.45, -132.88 71.58 M-113.31 47.93 C-119.43 53.72, -123.6 59.17, -133.29 70.95" stroke="#000000" stroke-width="1" fill="none"></path></g><g transform="translate(175.17578125 312.3177490234375) rotate(0 -67.1484375 35.408203125)"><path d="M-105.35 67.24 C-110.48 66.71, -121.64 66.92, -132.88 71.58 M-103.61 66.02 C-111.97 67.48, -118.51 68.52, -133.29 70.95" stroke="#000000" stroke-width="1" fill="none"></path></g></g><g stroke-linecap="round" transform="translate(10 378.3685302734375) rotate(0 28.201171875 28.5859375)"><path d="M1.01 -0.48 C21.87 1.32, 43.84 -1.56, 54.53 -0.44 M0.36 0.94 C22.55 0.1, 44.39 0.57, 56.33 -0.9 M56.21 1.15 C56.13 18.15, 56.5 33.95, 57.07 58.12 M56.13 0.31 C55.36 12.59, 55.74 24.51, 56.01 57.27 M55.72 55.18 C37.81 58.9, 21.56 58.77, 0.21 58.54 M56.92 57.23 C38.51 57.01, 19 56.1, -0.48 56.47 M1.69 56.41 C-0.72 41.01, 1.72 24.1, 0.23 -0.15 M-0.37 57.99 C0.09 38.12, -1.27 20.15, -0.23 0.53" stroke="#000000" stroke-width="1" fill="none"></path></g><g transform="translate(15 394.4544677734375) rotate(0 23 11.5)"><text x="23" y="17" font-family="Virgil, Segoe UI Emoji" font-size="20px" fill="#000000" text-anchor="middle" style="white-space: pre;" direction="ltr">1</text></g><g stroke-linecap="round" transform="translate(368.38671875 383.2552490234375) rotate(0 25.5 28.794921875)"><path d="M0.64 1.63 C19.21 -0.7, 41.57 1.15, 50.83 -1.62 M0.42 0.97 C20.41 0.36, 39.44 0.67, 51.93 -0.99 M51.13 -0.44 C52.63 24.36, 50.93 44.18, 52.07 58.98 M50.69 -0.17 C49.59 17.82, 50.42 34.79, 51.13 58.12 M50.54 56.24 C35.84 58.14, 16.82 59.41, 0.92 57.26 M50.86 58.42 C37.95 58.71, 25.9 57.06, -0.05 58.35 M-1.44 58.81 C-0.39 38.41, 0.57 19.87, -0.08 1.97 M0.19 58.49 C-0.61 46.14, 0.04 35.2, -0.89 -0.49" stroke="#000000" stroke-width="1" fill="none"></path></g><g transform="translate(373.38671875 399.5501708984375) rotate(0 20.5 11.5)"><text x="20.5" y="17" font-family="Virgil, Segoe UI Emoji" font-size="20px" fill="#000000" text-anchor="middle" style="white-space: pre;" direction="ltr">1</text></g><g stroke-linecap="round" transform="translate(444.046875 387.0833740234375) rotate(0 37.546875 28.0546875)"><path d="M1.97 -2 C24.23 1.54, 48.18 1.83, 74.06 0.15 M-0.49 -0.45 C24.22 0.65, 47.33 0.24, 74.15 -0.61 M73.17 1.78 C74.4 14.6, 76.85 23.9, 75.13 57.6 M74.32 -0.21 C76.12 14.7, 75.78 30.01, 75.57 56.24 M73.43 57.5 C46.32 55.78, 19.51 55.49, 1.94 56.39 M74.29 57.03 C45.87 55.34, 17.13 56.72, 0.92 56.27 M1.13 54.66 C-0.08 39.28, 1.48 18.76, -0.53 -1.43 M-0.19 56.44 C-1.06 33.99, 0.07 12.51, 0.7 0.56" stroke="#000000" stroke-width="1" fill="none"></path></g><g transform="translate(449.046875 402.6380615234375) rotate(0 32.5 11.5)"><text x="32.5" y="17" font-family="Virgil, Segoe UI Emoji" font-size="20px" fill="#000000" text-anchor="middle" style="white-space: pre;" direction="ltr">T(n-3)</text></g><g stroke-linecap="round"><g transform="translate(362.1875 322.9622802734375) rotate(0 8.509765625 29.326171875)"><path d="M0.84 0.67 C3.68 10.45, 14.7 49.21, 17.31 58.91 M-0.17 -0.02 C2.51 9.35, 13.91 46.87, 16.51 56.93" stroke="#000000" stroke-width="1" fill="none"></path></g><g transform="translate(362.1875 322.9622802734375) rotate(0 8.509765625 29.326171875)"><path d="M0.06 33.08 C5.12 39.47, 10.77 46.43, 17.35 56.47 M-1.98 32.04 C6.47 41.85, 13.56 52.59, 16.57 57.3" stroke="#000000" stroke-width="1" fill="none"></path></g><g transform="translate(362.1875 322.9622802734375) rotate(0 8.509765625 29.326171875)"><path d="M19.8 27.48 C18.48 35.83, 17.74 44.6, 17.35 56.47 M17.76 26.44 C18.4 38.32, 17.69 51.26, 16.57 57.3" stroke="#000000" stroke-width="1" fill="none"></path></g></g><g stroke-linecap="round"><g transform="translate(374.3125 317.5989990234375) rotate(0 39.099609375 31.806640625)"><path d="M1.17 0.69 C14.01 11.05, 64.66 52.54, 77.63 63.03 M0.33 0.01 C12.91 10.44, 63.33 53.44, 76.38 64.26" stroke="#000000" stroke-width="1" fill="none"></path></g><g transform="translate(374.3125 317.5989990234375) rotate(0 39.099609375 31.806640625)"><path d="M49.36 53 C57.1 58.57, 67.85 61.12, 76.12 63.71 M48.73 53.35 C55.41 57.67, 61.94 59.19, 77.27 64.61" stroke="#000000" stroke-width="1" fill="none"></path></g><g transform="translate(374.3125 317.5989990234375) rotate(0 39.099609375 31.806640625)"><path d="M62.58 37.3 C65.84 48.46, 72.01 56.46, 76.12 63.71 M61.95 37.66 C65.15 46.03, 68.23 51.65, 77.27 64.61" stroke="#000000" stroke-width="1" fill="none"></path></g></g><g stroke-linecap="round"><g transform="translate(375.35546875 302.8802490234375) rotate(0 102.17578125 41.5859375)"><path d="M0.53 -1.17 C34.68 12.61, 170.6 68.11, 204.66 82.34 M-0.65 0.83 C33.38 14.77, 169.69 69.85, 203.88 83.44" stroke="#000000" stroke-width="1" fill="none"></path></g><g transform="translate(375.35546875 302.8802490234375) rotate(0 102.17578125 41.5859375)"><path d="M171.95 82.98 C181.02 83.58, 192.62 83.97, 204.59 85.1 M172.97 82.08 C182.76 82.41, 193.14 83.66, 204.43 83.21" stroke="#000000" stroke-width="1" fill="none"></path></g><g transform="translate(375.35546875 302.8802490234375) rotate(0 102.17578125 41.5859375)"><path d="M179.59 63.94 C186.44 69.97, 195.88 75.77, 204.59 85.1 M180.62 63.03 C187.9 69.29, 195.89 76.52, 204.43 83.21" stroke="#000000" stroke-width="1" fill="none"></path></g></g><g stroke-linecap="round" transform="translate(554.5234375 399.8724365234375) rotate(0 38.6796875 23.552734375)"><path d="M-0.88 -1.73 C21.84 -2.43, 43.75 1.01, 78.98 1.13 M0.42 -0.28 C29.17 1.43, 59.02 0.94, 77.54 0.95 M78.28 -1.21 C76.45 11.96, 77.2 25.32, 76.7 46.95 M76.89 0.66 C77.36 14.71, 77.52 31.27, 78 47.71 M75.63 47.37 C57.49 48.73, 40.85 49.26, -1.96 45.51 M77.29 46.87 C47.98 48.13, 20.89 48.18, -0.01 46.46 M0.82 45.65 C1.28 30.94, -0.15 13.83, -0.82 0.09 M-0.87 47.05 C0.02 30.51, -0.66 11.13, -0.27 0.5" stroke="#000000" stroke-width="1" fill="none"></path></g><g transform="translate(559.5234375 410.9251708984375) rotate(0 33.5 11.5)"><text x="33.5" y="17" font-family="Virgil, Segoe UI Emoji" font-size="20px" fill="#000000" text-anchor="middle" style="white-space: pre;" direction="ltr">T(n-3)</text></g><g stroke-linecap="round" transform="translate(639.89453125 360.239990234375) rotate(0 32.59375 26.51953125)"><path d="M1.42 1.38 C13.17 -0.3, 32.04 0.29, 64.14 -1.45 M0 -0.88 C15.28 0.18, 29.99 -0.36, 64.83 0.16 M64.59 -1.19 C65.58 13.38, 65.13 23.65, 65.78 53.35 M65.71 -0.32 C66.17 21.73, 64.99 41.57, 64.24 52.17 M66.44 54.48 C43.39 53.06, 24.2 54.75, -0.03 52.02 M65.04 52.3 C49.85 54.35, 35.75 53.9, -0.46 53.82 M-1.06 51.1 C0.76 31.15, 0.25 11.39, 1.4 -1.76 M0.25 53.49 C0.27 32.31, 1.01 12.27, -0.93 0.33" stroke="#000000" stroke-width="1" fill="none"></path></g><g transform="translate(644.89453125 374.259521484375) rotate(0 27.5 11.5)"><text x="27.5" y="17" font-family="Virgil, Segoe UI Emoji" font-size="20px" fill="#000000" text-anchor="middle" style="white-space: pre;" direction="ltr">1</text></g><g stroke-linecap="round" transform="translate(734.875 362.431396484375) rotate(0 47.5 28.5)"><path d="M1.64 -1.16 C34.11 -1.81, 64.23 -0.29, 93.37 -0.06 M0.89 -0.24 C23.33 1.09, 46.62 0.98, 94.9 0.88 M94.39 1.01 C93.28 19.57, 93.96 39, 95.81 57.58 M94.26 -0.33 C94.69 18.99, 95.16 39.05, 95.55 56.41 M96.95 58.97 C75.54 54.69, 54.9 56.15, 0.98 58.37 M95.49 56.06 C75.5 56.59, 55.38 56.39, 0.71 56.93 M1.97 58.2 C0.84 36.61, -0.63 13.8, -0.03 -1.87 M-0.16 57.42 C0.25 42.63, 0.44 29.42, -0.44 0.65" stroke="#000000" stroke-width="1" fill="none"></path></g><g transform="translate(739.875 379.431396484375) rotate(0 42.5 11.5)"><text x="42.5" y="17" font-family="Virgil, Segoe UI Emoji" font-size="20px" fill="#000000" text-anchor="middle" style="white-space: pre;" direction="ltr">T(n-3)</text></g><g stroke-linecap="round"><g transform="translate(711.3046875 302.802490234375) rotate(0 -16.044921875 26.326171875)"><path d="M-0.95 -0.97 C-6.51 7.53, -27.8 42.68, -32.89 51.58 M0.76 1.14 C-4.47 9.7, -25.15 43.8, -30.6 52.56" stroke="#000000" stroke-width="1" fill="none"></path></g><g transform="translate(711.3046875 302.802490234375) rotate(0 -16.044921875 26.326171875)"><path d="M-26.22 21.83 C-28.3 34.14, -28.85 42.24, -32 51.86 M-24.83 22.7 C-27.14 31.87, -28.3 42.73, -30.44 52.76" stroke="#000000" stroke-width="1" fill="none"></path></g><g transform="translate(711.3046875 302.802490234375) rotate(0 -16.044921875 26.326171875)"><path d="M-8.73 32.56 C-16.84 41.06, -23.38 45.49, -32 51.86 M-7.34 33.43 C-15.35 38.97, -22.24 46.32, -30.44 52.76" stroke="#000000" stroke-width="1" fill="none"></path></g></g><g stroke-linecap="round"><g transform="translate(734.46484375 303.392333984375) rotate(0 19.829893479923385 27.14453125)"><path d="M-0.02 -0.72 C6.3 8.16, 31.94 44.75, 38.61 53.98 M-1.49 1.52 C5.13 10.52, 33.95 46.86, 40.77 55.36" stroke="#000000" stroke-width="1" fill="none"></path></g><g transform="translate(734.46484375 303.392333984375) rotate(0 19.829893479923385 27.14453125)"><path d="M14 37.95 C23.93 45.91, 34.22 48.95, 39.16 56.93 M14.96 39.53 C21.22 43.41, 25.28 46.96, 41.06 54.61" stroke="#000000" stroke-width="1" fill="none"></path></g><g transform="translate(734.46484375 303.392333984375) rotate(0 19.829893479923385 27.14453125)"><path d="M30.05 25.17 C34.32 37.7, 38.86 45.32, 39.16 56.93 M31.02 26.75 C33.84 33.46, 34.49 39.73, 41.06 54.61" stroke="#000000" stroke-width="1" fill="none"></path></g></g><g stroke-linecap="round" transform="translate(883.7578125 372.294677734375) rotate(0 34 21.623046875)"><path d="M1.19 0.81 C21.89 -1.48, 42.22 -1.57, 68.61 -0.51 M-0.34 0.41 C26.13 0.21, 52.51 -0.75, 67.94 -0.48 M69.75 1.23 C66.74 10.87, 67.76 24.97, 66.29 42.76 M68.95 -0.2 C67.24 13.77, 67.42 25.76, 68.59 42.77 M67.42 41.83 C43.85 42.53, 22.08 42.63, -1.96 41.56 M68.05 42.6 C44.39 43.59, 19.66 43.21, 0.45 42.47 M1.63 41.32 C-0.94 25.94, 0.58 8.84, 0.71 0.42 M-0.39 43.2 C0.94 29.7, 0.48 17.59, -0.44 -0.29" stroke="#000000" stroke-width="1" fill="none"></path></g><g transform="translate(888.7578125 381.417724609375) rotate(0 29 11.5)"><text x="29" y="17" font-family="Virgil, Segoe UI Emoji" font-size="20px" fill="#000000" text-anchor="middle" style="white-space: pre;" direction="ltr">1</text></g><g stroke-linecap="round" transform="translate(988.3203125 379.435302734375) rotate(0 36.5 28)"><path d="M-1.3 1.29 C16.82 0.29, 32.64 0.87, 71.45 1.67 M-0.96 -0.31 C26.86 -0.15, 53.83 -0.24, 73.21 0.06 M72.9 1.94 C72.85 18.2, 75.09 33.48, 72.42 54.37 M72.55 0.01 C73.32 15.71, 72.66 29.63, 73.53 55.26 M73.51 56.59 C56.74 53.51, 42.73 53.43, -0.82 55.46 M72.88 55.08 C43.95 55.72, 16.72 56.79, -0.66 55.95 M0.87 56.48 C1.57 39.59, -0.15 18.68, 1.53 1.55 M0.7 56.25 C0.33 38.71, -0.39 20.2, -0.3 0.7" stroke="#000000" stroke-width="1" fill="none"></path></g><g transform="translate(993.3203125 384.435302734375) rotate(0 31.5 23)"><text x="31.5" y="40" font-family="Virgil, Segoe UI Emoji" font-size="20px" fill="#000000" text-anchor="middle" style="white-space: pre;" direction="ltr">T(n-3)</text></g><g stroke-linecap="round"><g transform="translate(934.3984375 322.349365234375) rotate(0 -4.482421875 23.69921875)"><path d="M-0.07 -0.2 C-1.8 7.73, -8.43 40.31, -9.89 48.25 M-1.56 -1.36 C-2.96 6.18, -6.34 38.21, -7.67 46.58" stroke="#000000" stroke-width="1" fill="none"></path></g><g transform="translate(934.3984375 322.349365234375) rotate(0 -4.482421875 23.69921875)"><path d="M-13.26 21.5 C-9.57 31.28, -9.07 40.74, -8.2 45.12 M-12.24 22.39 C-10.74 28.76, -10.5 33.55, -6.97 45.71" stroke="#000000" stroke-width="1" fill="none"></path></g><g transform="translate(934.3984375 322.349365234375) rotate(0 -4.482421875 23.69921875)"><path d="M3.1 23.62 C1.19 32.67, -3.88 41.41, -8.2 45.12 M4.12 24.52 C1.9 30.52, -1.58 34.83, -6.97 45.71" stroke="#000000" stroke-width="1" fill="none"></path></g></g><g stroke-linecap="round"><g transform="translate(982.6640625 324.415771484375) rotate(0 17.73046875 25.205078125)"><path d="M0.09 -0.4 C6.03 8.08, 28.83 41.69, 34.88 50.26 M-1.32 -1.65 C5.09 7.07, 31.05 43.27, 37.28 51.72" stroke="#000000" stroke-width="1" fill="none"></path></g><g transform="translate(982.6640625 324.415771484375) rotate(0 17.73046875 25.205078125)"><path d="M11.76 33.96 C17.94 40.34, 25.1 40.91, 38.18 53.16 M13.04 34.99 C19.05 40.71, 28.34 45.66, 37.19 52.56" stroke="#000000" stroke-width="1" fill="none"></path></g><g transform="translate(982.6640625 324.415771484375) rotate(0 17.73046875 25.205078125)"><path d="M28.37 21.9 C30.58 31.13, 33.83 34.54, 38.18 53.16 M29.64 22.93 C30.52 32.5, 34.69 41.16, 37.19 52.56" stroke="#000000" stroke-width="1" fill="none"></path></g></g><g stroke-linecap="round" transform="translate(1088.78125 382.650146484375) rotate(0 41.5 29.0625)"><path d="M-1.52 -0.26 C28.29 2.57, 59.71 -0.12, 82.13 -1.69 M0.68 -0.6 C30.42 -0.35, 61.07 0.79, 82.4 0.74 M83.54 -0.34 C81.33 11.86, 84.55 23.44, 83.52 56.93 M82.74 -0.48 C81.61 12.38, 82.7 25.94, 82.96 58.75 M83.23 57.19 C57.32 59.22, 34.78 56.12, -1.2 56.98 M82.92 58.98 C51.94 58.89, 20.6 59.09, 0.63 57.51 M0.02 58.75 C1.66 43.22, -1.84 28.34, -1.16 -0.55 M-0.93 58.92 C-0.11 39.87, -0.47 21.67, 0.18 -0.86" stroke="#000000" stroke-width="1" fill="none"></path></g><g transform="translate(1093.78125 399.212646484375) rotate(0 36.5 11.5)"><text x="36.5" y="17" font-family="Virgil, Segoe UI Emoji" font-size="20px" fill="#000000" text-anchor="middle" style="white-space: pre;" direction="ltr">T(n-3)</text></g><g stroke-linecap="round"><g transform="translate(1005.2734375 303.243896484375) rotate(0 51.02734375 38.5859375)"><path d="M0.26 -0.33 C17.25 12.4, 84.1 63.2, 101.22 76.06 M-1.06 -1.55 C16.37 11.32, 86.19 63.76, 103.49 77.01" stroke="#000000" stroke-width="1" fill="none"></path></g><g transform="translate(1005.2734375 303.243896484375) rotate(0 51.02734375 38.5859375)"><path d="M74.28 66.79 C79.89 71.84, 88.13 73.32, 102.24 78.96 M74 68.99 C83.82 71.22, 93.21 74.91, 103.38 76.24" stroke="#000000" stroke-width="1" fill="none"></path></g><g transform="translate(1005.2734375 303.243896484375) rotate(0 51.02734375 38.5859375)"><path d="M86.67 50.42 C89.23 59.47, 94.48 64.9, 102.24 78.96 M86.39 52.63 C92.12 60.01, 97.57 68.9, 103.38 76.24" stroke="#000000" stroke-width="1" fill="none"></path></g></g></svg>