<svg version="1.1" xmlns="http://www.w3.org/2000/svg" viewBox="0 0 708.8584533894508 655.6847720346396" width="708.8584533894508" height="655.6847720346396">
  <!-- svg-source:excalidraw -->
  
  <defs>
    <style>
      @font-face {
        font-family: "Virgil";
        src: url("https://excalidraw.com/Virgil.woff2");
      }
      @font-face {
        font-family: "Cascadia";
        src: url("https://excalidraw.com/Cascadia.woff2");
      }
    </style>
  </defs>
  <rect x="0" y="0" width="708.8584533894508" height="655.6847720346396" fill="#FFF"></rect><g stroke-linecap="round" transform="translate(232.75390625 10) rotate(0 39 28.896484375)"><path d="M1.46 -1.03 C25.19 1.48, 46.28 0.71, 78.47 0.12 M-0.9 -0.29 C17.08 -0.71, 34.97 -1.19, 78.68 0.98 M80 0.53 C77.19 13.86, 78.6 26.68, 79.65 56.81 M78.38 -0.31 C78.99 16.35, 78.73 33.74, 78.84 58.29 M77.82 58.9 C47.96 58.89, 16.16 58.55, 1.87 58.3 M78.25 57.4 C49.07 56.88, 19.87 57.28, 0.42 56.87 M1.52 56.76 C-1.05 43.1, -1.85 31.08, -0.53 -1.91 M0.59 57.96 C0.62 42.46, -0.45 25.68, -0.88 0.68" stroke="#000000" stroke-width="1" fill="none"></path></g><g transform="translate(237.75390625 26.396484375) rotate(0 34 11.5)"><text x="34" y="17" font-family="Virgil, Segoe UI Emoji" font-size="20px" fill="#000000" text-anchor="middle" style="white-space: pre;" direction="ltr">T(n)</text></g><g stroke-linecap="round"><g transform="translate(240.84380215999997 74.30859375) rotate(0 -27.716510517246704 32.24609375)"><path d="M-0.7 -0.22 C-10.29 10.83, -47.44 55.06, -56.61 65.66 M1.13 -1.38 C-8.19 9.42, -44.89 53.24, -54.52 64.14" stroke="#000000" stroke-width="1" fill="none"></path></g><g transform="translate(240.84380215999997 74.30859375) rotate(0 -27.716510517246704 32.24609375)"><path d="M-44.33 34.1 C-46.14 46.03, -53.95 56.53, -55.71 64.34 M-43.65 35.27 C-48.52 45.3, -50.83 56.95, -55.49 63.61" stroke="#000000" stroke-width="1" fill="none"></path></g><g transform="translate(240.84380215999997 74.30859375) rotate(0 -27.716510517246704 32.24609375)"><path d="M-28.75 47.45 C-36.35 54.27, -50.02 59.76, -55.71 64.34 M-28.07 48.63 C-38.56 53.9, -46.46 60.76, -55.49 63.61" stroke="#000000" stroke-width="1" fill="none"></path></g></g><g stroke-linecap="round"><g transform="translate(313.05499139940565 71.68284919223873) rotate(0 25.74326341866538 35.94373165388063)"><path d="M0.3 -0.44 C8.7 11.42, 42.48 58.65, 50.9 70.75 M-1.01 -1.72 C7.75 10.29, 44.86 59.14, 53.31 71.69" stroke="#000000" stroke-width="1" fill="none"></path></g><g transform="translate(313.05499139940565 71.68284919223873) rotate(0 25.74326341866538 35.94373165388063)"><path d="M27.75 53.87 C35.01 59.43, 45.81 64.67, 52.81 73.37 M27.99 55.23 C36.51 60.8, 46.18 66.38, 54.27 72.08" stroke="#000000" stroke-width="1" fill="none"></path></g><g transform="translate(313.05499139940565 71.68284919223873) rotate(0 25.74326341866538 35.94373165388063)"><path d="M44.39 41.85 C45.92 51.56, 51.04 60.9, 52.81 73.37 M44.62 43.22 C47.3 53, 51.07 62.85, 54.27 72.08" stroke="#000000" stroke-width="1" fill="none"></path></g></g><g stroke-linecap="round" transform="translate(342.8984375 147.61328125) rotate(0 36 28.5)"><path d="M-0.62 -1.14 C23.77 -2.28, 49.82 -0.1, 70.61 1.85 M0.88 -0.96 C19.1 -0.21, 37.86 0.23, 71.22 0.13 M70.07 -0.44 C70.77 12.47, 73.1 22.54, 73.28 57.55 M71.64 0.7 C71.69 14.3, 70.72 27.46, 71.51 56.12 M73.8 57.58 C50.99 58.74, 28.94 55.14, 0.27 57.43 M71.57 57.77 C50.26 56.84, 29.31 56.51, -1 57.52 M-1.1 57.73 C-0.31 40.6, 0.35 21.74, 0.76 0.42 M0.88 56.93 C-0.67 45.91, -0.86 33.02, 0.17 0.82" stroke="#000000" stroke-width="1" fill="none"></path></g><g transform="translate(347.8984375 164.61328125) rotate(0 31 11.5)"><text x="31" y="17" font-family="Virgil, Segoe UI Emoji" font-size="20px" fill="#000000" text-anchor="middle" style="white-space: pre;" direction="ltr">T(n-1)</text></g><g stroke-linecap="round" transform="translate(159.91015625 154.62890625) rotate(0 26 20.431640625)"><path d="M-0.87 1.53 C14.79 0.6, 31.14 -0.06, 50.01 1.03 M-0.55 0.37 C15.59 0.2, 31.48 -0.7, 52.38 0.21 M53.77 -0.15 C51.29 9.97, 50.9 16.34, 52.35 42.5 M51.98 0.03 C51.25 15.3, 51.78 30.81, 51.28 40 M50.21 41.62 C39.11 41.44, 23.19 40.03, -0.84 41.28 M51.61 41.05 C33.08 40.47, 13.18 41.51, 0.74 40.45 M-1.32 41.88 C-1.19 28.88, 0.22 20.14, 0.37 -1.52 M-0.08 41.86 C0.15 30.42, -1.02 19.13, -0.66 0.19" stroke="#000000" stroke-width="1" fill="none"></path></g><g transform="translate(164.91015625 162.560546875) rotate(0 21 11.5)"><text x="21" y="17" font-family="Virgil, Segoe UI Emoji" font-size="20px" fill="#000000" text-anchor="middle" style="white-space: pre;" direction="ltr">n</text></g><g stroke-linecap="round"><g transform="translate(345.0390625 210.09765625) rotate(0 -21.173828125 26.16796875)"><path d="M-0.99 1.04 C-8 9.63, -34.43 43.94, -41.39 52.68 M0.69 0.54 C-6.45 9.26, -34.43 42.2, -41.84 50.74" stroke="#000000" stroke-width="1" fill="none"></path></g><g transform="translate(345.0390625 210.09765625) rotate(0 -21.173828125 26.16796875)"><path d="M-29.56 24.25 C-34.16 31.75, -36.53 40.84, -40.64 51.45 M-30.95 22.68 C-34.16 31.79, -37.1 39.06, -40.99 49.85" stroke="#000000" stroke-width="1" fill="none"></path></g><g transform="translate(345.0390625 210.09765625) rotate(0 -21.173828125 26.16796875)"><path d="M-13.97 37.6 C-24.21 40.25, -32.08 44.63, -40.64 51.45 M-15.36 36.03 C-22.99 41.21, -30.47 44.59, -40.99 49.85" stroke="#000000" stroke-width="1" fill="none"></path></g></g><g stroke-linecap="round" transform="translate(263.02734375 261.94921875) rotate(0 28.5 20.224609375)"><path d="M-0.58 0 C17.23 -1.9, 36.6 1.26, 58.02 1.31 M-0.39 0.91 C12.3 -0.09, 26.05 0.23, 56.68 -0.23 M56.42 0.06 C55.93 14.08, 58.35 25.75, 58.93 42.1 M57.37 0.55 C57.09 10.99, 56.12 20.87, 56.9 41.3 M56.32 39.61 C45.97 40.19, 33.18 41.43, 1.87 38.88 M56.74 40.19 C41.78 41.55, 25.34 39.98, -0.08 39.61 M-0.11 41.57 C-2.15 27.17, 1.48 15.86, 0.19 1.83 M0.31 39.58 C0.69 26.02, -0.95 14.19, -0.31 0.02" stroke="#000000" stroke-width="1" fill="none"></path></g><g transform="translate(268.02734375 269.673828125) rotate(0 23.5 11.5)"><text x="23.5" y="17" font-family="Virgil, Segoe UI Emoji" font-size="20px" fill="#000000" text-anchor="middle" style="white-space: pre;" direction="ltr">n-1</text></g><g stroke-linecap="round"><g transform="translate(415.8984375 197.67186490341322) rotate(0 22.99767988352113 24.76758317329339)"><path d="M-0.5 0.41 C7.18 8.69, 38.04 40.93, 45.9 49.3 M1.44 -0.42 C8.97 8.08, 37.44 42.49, 44.9 50.72" stroke="#000000" stroke-width="1" fill="none"></path></g><g transform="translate(415.8984375 197.67186490341322) rotate(0 22.99767988352113 24.76758317329339)"><path d="M19.41 35.9 C25.67 41.39, 35.31 42.86, 44.56 50.14 M19.62 36.67 C29.36 40.82, 38.81 46.59, 44.7 51.39" stroke="#000000" stroke-width="1" fill="none"></path></g><g transform="translate(415.8984375 197.67186490341322) rotate(0 22.99767988352113 24.76758317329339)"><path d="M34.96 22.5 C36.79 31.7, 42.04 36.96, 44.56 50.14 M35.17 23.27 C38.87 32.55, 42.33 43.49, 44.7 51.39" stroke="#000000" stroke-width="1" fill="none"></path></g></g><g stroke-linecap="round" transform="translate(441.58984375 248.20703125) rotate(0 47 28.5)"><path d="M0.82 -0.03 C22.23 0.37, 39.96 -0.68, 92.62 0.63 M-0.4 -0.1 C26.23 -0.49, 53.19 0.84, 93.86 -0.11 M94.98 -1.8 C93.07 17.49, 93.04 36.98, 92.03 56.92 M93.53 0.22 C93.13 12.08, 94.28 22.91, 93.42 56.68 M93.73 58.46 C58.52 57.45, 19.51 55.54, 1.97 55.73 M94.75 56.6 C71.66 55.69, 49.06 57.13, 0.37 57.38 M-1.56 58.83 C0.23 43.84, -0.81 28.88, -0.86 -1.28 M-0.65 56.76 C-0.11 39.2, 0.03 21.07, -0.21 0.73" stroke="#000000" stroke-width="1" fill="none"></path></g><g transform="translate(446.58984375 265.20703125) rotate(0 42 11.5)"><text x="42" y="17" font-family="Virgil, Segoe UI Emoji" font-size="20px" fill="#000000" text-anchor="middle" style="white-space: pre;" direction="ltr">T(n-2)</text></g><g transform="translate(10 120.8984375) rotate(0 74 12.5)"><text x="0" y="18" font-family="Virgil, Segoe UI Emoji" font-size="20px" fill="#000000" text-anchor="start" style="white-space: pre;" direction="ltr">n units of time</text></g><g transform="translate(446.91015625 131.1015625) rotate(0 96 12.5)"><text x="0" y="18" font-family="Virgil, Segoe UI Emoji" font-size="20px" fill="#000000" text-anchor="start" style="white-space: pre;" direction="ltr">Calls itself with n-1</text></g><g stroke-linecap="round"><g transform="translate(531.234375 310.44921875) rotate(0 13.30078125 24.95703125)"><path d="M0.08 -0.61 C4.59 7.44, 22.98 41.02, 27.54 49.33 M-1.34 1.69 C3.05 10.41, 22.35 42.47, 27.08 50.56" stroke="#000000" stroke-width="1" fill="none"></path></g><g transform="translate(531.234375 310.44921875) rotate(0 13.30078125 24.95703125)"><path d="M4.2 34.2 C11.85 40.11, 19.16 43.1, 26.64 50 M4.89 31.92 C8.75 36.75, 13.42 40.32, 26.57 51.01" stroke="#000000" stroke-width="1" fill="none"></path></g><g transform="translate(531.234375 310.44921875) rotate(0 13.30078125 24.95703125)"><path d="M20.83 24.33 C22.9 33.62, 24.52 39.98, 26.64 50 M21.53 22.06 C22 28.77, 23.33 34.32, 26.57 51.01" stroke="#000000" stroke-width="1" fill="none"></path></g></g><g stroke-linecap="round" transform="translate(520.9155419726312 376.26442043678185) rotate(0 41.07202122376401 25.66669886675504)"><path d="M-1.87 -0.54 C22.94 1.25, 49.54 -0.7, 81.51 -0.78 M-0.16 -0.44 C20.55 -0.82, 41.65 0.34, 82.66 -0.7 M83.91 -1.63 C82.33 11.56, 83.83 22.25, 83.46 51.19 M82.68 -0.54 C81.59 20.85, 82.18 40.52, 81.21 52.06 M82.31 52.93 C57.06 53.5, 26.57 53.25, -1.14 51.96 M81.43 51.04 C55.79 51.1, 30.99 52.16, 0.96 52.33 M1.37 52.32 C1.11 30.4, 0.04 11.59, -0.85 0.37 M-0.57 52.07 C0.54 34.9, 0.72 19.29, -0.18 0.7" stroke="#000000" stroke-width="1" fill="none"></path></g><g stroke-linecap="round" transform="translate(402.92886196622544 464.65426196575163) rotate(0 50.705871693723736 28.963420174365183)"><path d="M0.17 1.6 C34.93 1.56, 64.46 1.31, 100.27 0.63 M-0.71 -0.29 C31.02 -1.41, 63.6 -0.35, 102.37 0.99 M102.78 0.99 C103 21.09, 101.93 44.32, 100.56 58.3 M100.85 0.74 C101.08 18.4, 101.25 37.62, 101.23 58.63 M103.03 57.71 C65.9 57.51, 33.89 57.33, -0.84 59.59 M101.73 58.63 C71.07 58.54, 40.39 58.73, -0.53 56.93 M1.98 59.89 C-1.87 34.93, 1.41 15.1, -1.72 0.2 M-0.05 57.73 C-0.83 37.07, -1.01 15.69, 0.61 -0.13" stroke="#000000" stroke-width="1" fill="none"></path></g><g transform="translate(525.9155419726312 389.4311193035369) rotate(0 36 11.5)"><text x="36" y="17" font-family="Virgil, Segoe UI Emoji" font-size="20px" fill="#000000" text-anchor="middle" style="white-space: pre;" direction="ltr">T(1)</text></g><g transform="translate(407.92886196622544 481.1176821401168) rotate(0 45.5 11.5)"><text x="45.5" y="17" font-family="Virgil, Segoe UI Emoji" font-size="20px" fill="#000000" text-anchor="middle" style="white-space: pre;" direction="ltr">1</text></g><g stroke-linecap="round"><g transform="translate(608.4863589050724 436.44210536014486) rotate(0 24.149441071027468 27.62587640881111)"><path d="M-1.08 0.68 C6.96 9.89, 39.46 45.3, 47.77 54.3 M0.55 0 C8.43 9.4, 38.6 46.05, 46.55 55.34" stroke="#000000" stroke-width="1" fill="none"></path></g><g transform="translate(608.4863589050724 436.44210536014486) rotate(0 24.149441071027468 27.62587640881111)"><path d="M21.72 39.43 C25.65 45.23, 33.08 48.23, 46.95 56.46 M19.77 39.38 C28.09 45.18, 36.61 50.1, 46.15 56.33" stroke="#000000" stroke-width="1" fill="none"></path></g><g transform="translate(608.4863589050724 436.44210536014486) rotate(0 24.149441071027468 27.62587640881111)"><path d="M37.45 26.26 C37.18 35.35, 40.51 41.77, 46.95 56.46 M35.51 26.2 C39.02 36, 42.77 44.92, 46.15 56.33" stroke="#000000" stroke-width="1" fill="none"></path></g></g><g stroke-linecap="round"><g transform="translate(530.1310417494001 420.603701651734) rotate(0 -13.40784510360453 20.726036102803278)"><path d="M-0.62 0.94 C-4.97 7.64, -21.6 33.67, -26.05 40.46 M1.26 0.39 C-3.19 7.18, -21.66 34.35, -26.59 41.47" stroke="#000000" stroke-width="1" fill="none"></path></g><g transform="translate(530.1310417494001 420.603701651734) rotate(0 -13.40784510360453 20.726036102803278)"><path d="M-18.88 18.85 C-23.92 23.97, -23.77 32.88, -24.87 39.75 M-20.75 17.69 C-21.43 24.73, -23.88 30.2, -26.64 42.2" stroke="#000000" stroke-width="1" fill="none"></path></g><g transform="translate(530.1310417494001 420.603701651734) rotate(0 -13.40784510360453 20.726036102803278)"><path d="M-4.95 28.39 C-14.24 30.55, -18.33 36.56, -24.87 39.75 M-6.82 27.23 C-11.12 31.67, -17.24 34.63, -26.64 42.2" stroke="#000000" stroke-width="1" fill="none"></path></g></g><g stroke-linecap="round" transform="translate(640.8584533894508 506.16525680420193) rotate(0 29 23.239086393590924)"><path d="M0.42 0.04 C19.16 -2.05, 38.51 0.99, 57.53 1.75 M0.74 -0.57 C16.75 -0.26, 31.96 -1.28, 57.59 0.69 M58.9 -1.72 C59.44 15.83, 56.62 35, 58.36 45.14 M58.79 -0.05 C58.9 14.99, 57.91 30.19, 57.65 45.93 M56.8 46.52 C41.1 45.85, 22.76 44.36, -0.97 46.11 M58.86 45.74 C40.21 47.58, 22.66 46.85, 0.16 46.2 M-1.18 46.59 C2.31 34.65, 0.01 21.15, -1.78 0.43 M-0.79 45.86 C-0.58 31.77, 0.52 16.62, 0.07 -0.14" stroke="#000000" stroke-width="1" fill="none"></path></g><g transform="translate(645.8584533894508 516.9043431977929) rotate(0 24 11.5)"><text x="24" y="17" font-family="Virgil, Segoe UI Emoji" font-size="20px" fill="#000000" text-anchor="middle" style="white-space: pre;" direction="ltr">T(0)</text></g><g transform="translate(157.06239189894166 487.9497570274332) rotate(0 107 12.5)"><text x="0" y="18" font-family="Virgil, Segoe UI Emoji" font-size="20px" fill="#000000" text-anchor="start" style="white-space: pre;" direction="ltr">1 unit of time at T(1)</text></g><g transform="translate(422.3261926984012 620.6847720346396) rotate(0 118.5 12.5)"><text x="0" y="18" font-family="Virgil, Segoe UI Emoji" font-size="20px" fill="#000000" text-anchor="start" style="white-space: pre;" direction="ltr">No work done when T(0)</text></g><g stroke-linecap="round" transform="translate(315.9767326786441 353.44957699966625) rotate(0 39 22.346408506007492)"><path d="M-1.48 1.78 C20.98 0.04, 42.64 1.42, 79.02 1.91 M0.09 0.36 C28.19 1.4, 57.89 -0.48, 77.89 0.31 M76.33 -0.45 C78 9.9, 77.73 22.91, 79.11 44.73 M78.75 0.29 C78.44 14.71, 77.66 28.82, 78.94 44.58 M76.1 46.35 C47.03 45.39, 17.74 44.15, 1.06 44.32 M77.92 43.76 C53.79 43.45, 31.95 43.96, 0.06 44.08 M0.11 43.56 C-1.33 27.44, 0.96 13.86, -1.26 0.81 M0.19 43.81 C-0.81 27.99, -1.11 9.42, 0.68 0.41" stroke="#000000" stroke-width="1" fill="none"></path></g><g transform="translate(320.9767326786441 363.29598550567374) rotate(0 34 11.5)"><text x="34" y="17" font-family="Virgil, Segoe UI Emoji" font-size="20px" fill="#000000" text-anchor="middle" style="white-space: pre;" direction="ltr">n-2</text></g><g stroke-linecap="round"><g transform="translate(447.30349676088395 304.1313333094138) rotate(0 -23.168379234178303 24.058110990119587)"><path d="M0.44 -0.21 C-7.52 7.56, -39.23 38.95, -46.83 46.98 M-0.79 -1.37 C-9.03 6.48, -40.61 39.49, -48.04 47.92" stroke="#000000" stroke-width="1" fill="none"></path></g><g transform="translate(447.30349676088395 304.1313333094138) rotate(0 -23.168379234178303 24.058110990119587)"><path d="M-36.77 19.44 C-42.59 32.57, -45.29 42.72, -46.79 46.87 M-35.86 20.05 C-38.64 26.41, -41.14 31.54, -47.49 47.13" stroke="#000000" stroke-width="1" fill="none"></path></g><g transform="translate(447.30349676088395 304.1313333094138) rotate(0 -23.168379234178303 24.058110990119587)"><path d="M-21.71 33.38 C-33.22 41.34, -41.56 46.26, -46.79 46.87 M-20.81 33.99 C-26.79 37.41, -32.38 39.68, -47.49 47.13" stroke="#000000" stroke-width="1" fill="none"></path></g></g></svg>