<svg version="1.1" xmlns="http://www.w3.org/2000/svg" viewBox="0 0 534.505859375 629.8519287109375" width="534.505859375" height="629.8519287109375">
  <!-- svg-source:excalidraw -->
  
  <defs>
    <style>
      @font-face {
        font-family: "Virgil";
        src: url("https://excalidraw.com/Virgil.woff2");
      }
      @font-face {
        font-family: "Cascadia";
        src: url("https://excalidraw.com/Cascadia.woff2");
      }
    </style>
  </defs>
  <rect x="0" y="0" width="534.505859375" height="629.8519287109375" fill="#FFF"></rect><g stroke-linecap="round" transform="translate(60.880859375 10) rotate(0 31.5 20.9375)"><path d="M-1.13 0.95 C23.37 -1.35, 48.07 0.44, 63.1 -1.99 M0.46 -0.63 C21.28 0.32, 44.07 -0.25, 63.24 0.91 M61.29 -0.68 C62.87 15.49, 62.83 32.58, 61.78 41.57 M63.87 0.61 C62.22 15.74, 64.12 29.61, 63.27 42.82 M64.86 40.85 C49.99 43.46, 35.27 42.22, -1.46 40.04 M63.97 41.18 C41.84 42.58, 22.03 41.17, 0.74 41.82 M-1 42.32 C-0.69 28.67, -0.83 12.97, -1.48 1.56 M0.24 41.66 C-0.22 31.52, 0.12 20.93, -0.42 -0.11" stroke="#000000" stroke-width="1" fill="none"></path></g><g stroke-linecap="round" transform="translate(132.8515625 98.76953125) rotate(0 44.123046875 17)"><path d="M-1.47 -1.4 C28.35 -0.71, 56.3 1.96, 86.39 -1.58 M0.56 -0.66 C32.48 -0.9, 64.75 0.24, 87.28 -0.96 M88.99 -0.84 C87.57 10.45, 87.22 20.18, 86.85 35.73 M87.35 -0.04 C88.11 11.29, 88.85 21.37, 88.8 33.21 M88.67 35.74 C57.09 35.54, 25.74 33.33, -1.81 34.74 M89.02 33.46 C57.48 34.93, 28.55 34.99, 0.82 33.2 M1.1 33.45 C0.79 23.48, -1.55 16.52, -0.31 -0.4 M-0.13 33.75 C0.39 26.55, 0.47 20.66, -0.68 -0.62" stroke="#000000" stroke-width="1" fill="none"></path></g><g stroke-linecap="round" transform="translate(37.9375 173.74609375) rotate(0 46 28.5)"><path d="M-1.4 0.45 C28.16 1.18, 60.3 -1.18, 90.42 1.43 M-0.66 -0.32 C20.36 -1.37, 42.58 -1.48, 91.04 -0.17 M91.16 -1 C92.93 21.21, 93.06 43.73, 93.73 57.16 M91.96 -0.38 C92.38 21.63, 91.99 43.1, 91.21 57.46 M93.74 56.36 C65.1 55.71, 34.48 55.38, 0.74 57.87 M91.46 56.54 C61 58.61, 29.45 58.53, -0.8 56.83 M-0.55 57.84 C-1.36 37.68, 1.3 21.06, -0.4 -1.95 M-0.25 57.61 C-0.18 36.78, 0.82 14.48, -0.62 0.82" stroke="#000000" stroke-width="1" fill="none"></path></g><g stroke-linecap="round" transform="translate(10 96.58203125) rotate(0 31.5 20.9375)"><path d="M1.63 0.7 C14.09 1.35, 24.88 1.16, 63.17 0.11 M0.75 -0.74 C19.87 -0.71, 40.83 0.63, 63.44 0.35 M64.24 1.8 C64.14 17.44, 61.17 31.24, 63.25 43.46 M62.55 -0.75 C63.76 14.71, 62.68 28.75, 63.67 41.21 M61.88 43.27 C45.78 40.9, 25.56 43.9, 0.46 40.88 M64 42.64 C43.32 41.95, 25.07 42.33, -0.5 42.74 M0.81 40.47 C-0.97 26.87, -0.14 9.17, -0.84 -0.37 M-0.66 41.82 C-0.15 28.39, 0.48 14.44, 0.9 -0.02" stroke="#000000" stroke-width="1" fill="none"></path></g><g stroke-linecap="round" transform="translate(208.76171875 187.4921875) rotate(0 42.5 28)"><path d="M0.46 -0.99 C19.68 -1.92, 38.25 1.3, 86.52 -1.69 M-0.5 0.87 C30.06 -0.77, 57.93 -0.29, 84.3 -0.5 M84.16 -0.37 C85.71 18.99, 84.67 37.19, 84.89 55.58 M85.9 -0.02 C84.33 21.17, 85.14 41.52, 85.99 56.68 M84.58 55.9 C63.25 54.37, 42.17 58.2, -1.91 55 M84.82 56.44 C62.34 55.25, 41.12 56.35, 0.91 55.18 M0.6 55.59 C-1.43 38.58, 1.41 17.12, 1.57 1.09 M0.32 56.17 C-0.68 43.49, 0.69 31.86, 0.11 -0.97" stroke="#000000" stroke-width="1" fill="none"></path></g><g stroke-linecap="round" transform="translate(304.203125 271.75390625) rotate(0 68 28.5)"><path d="M1.98 1.36 C48.31 -0.18, 98.89 -0.97, 135.9 0.44 M-0.96 -0.5 C27.31 -1.53, 55.21 -1.47, 136.44 -0.38 M137.82 -1.63 C137.14 12.02, 136.57 27.87, 135.59 55.12 M136.78 0.55 C135.37 21.78, 136.46 42.92, 136.17 56.58 M136.23 55.06 C106.56 58.04, 73.24 57.75, -1.96 58.82 M135.79 56.79 C97.13 56.93, 58.05 57.34, -0.36 57.63 M-0.64 57.87 C2.16 42.5, -1.76 25.54, 0.31 1.32 M-0.99 57.82 C0.23 37.93, 0.75 16.96, -0.71 -0.01" stroke="#000000" stroke-width="1" fill="none"></path></g><g stroke-linecap="round" transform="translate(75.046875 268.7156982421875) rotate(0 56 28.5)"><path d="M1.63 -1.65 C33.29 -0.43, 68.26 1.78, 113.15 0.37 M-0.97 -0.5 C40.09 1.68, 79.91 0.7, 111.22 -0.35 M112.16 -1.55 C112.39 17.84, 113.39 36.65, 110.7 55.1 M112.69 -0.43 C113.17 13.53, 112.26 27.31, 111.52 56.55 M113.57 58.51 C67.49 55.12, 24.36 55.38, -0.47 56.45 M111.21 56.06 C73.18 57.25, 33.28 58.54, 0.13 57.37 M1.7 58.29 C-0.18 44.34, 0.95 31.87, 1.44 1.51 M-0.19 56.75 C-0.46 37.67, -0.01 17.81, 0.59 -0.32" stroke="#000000" stroke-width="1" fill="none"></path></g><g transform="translate(65.880859375 18.4375) rotate(0 26.5 11.5)"><text x="26.5" y="17" font-family="Virgil, Segoe UI Emoji" font-size="20px" fill="#000000" text-anchor="middle" style="white-space: pre;" direction="ltr">T(n)</text></g><g transform="translate(137.8515625 103.76953125) rotate(0 39 11.5)"><text x="39" y="17" font-family="Virgil, Segoe UI Emoji" font-size="20px" fill="#000000" text-anchor="middle" style="white-space: pre;" direction="ltr">T(n-1)</text></g><g transform="translate(213.76171875 192.4921875) rotate(0 37.5 11.5)"><text x="37.5" y="17" font-family="Virgil, Segoe UI Emoji" font-size="20px" fill="#000000" text-anchor="middle" style="white-space: pre;" direction="ltr">T(n-2)</text></g><g transform="translate(309.203125 288.75390625) rotate(0 63 11.5)"><text x="63" y="17" font-family="Virgil, Segoe UI Emoji" font-size="20px" fill="#000000" text-anchor="middle" style="white-space: pre;" direction="ltr">T(n-3)</text></g><g stroke-linecap="round"><g transform="translate(62.443359375 51.6492919921875) rotate(0 -7.0703125 22.08203125)"><path d="M-1.11 -0.6 C-3.47 6.78, -11.4 35.51, -13.5 43.1 M0.51 1.7 C-2.01 9.3, -11.65 37.19, -14.11 44.08" stroke="#000000" stroke-width="1" fill="none"></path></g><g transform="translate(62.443359375 51.6492919921875) rotate(0 -7.0703125 22.08203125)"><path d="M-15.39 21.97 C-16.29 29.86, -13.08 35.94, -14.12 42.14 M-14.61 21.21 C-13.54 27.58, -13.99 33.28, -14.53 45.04" stroke="#000000" stroke-width="1" fill="none"></path></g><g transform="translate(62.443359375 51.6492919921875) rotate(0 -7.0703125 22.08203125)"><path d="M-0.42 27.21 C-6.57 33.11, -8.66 37.33, -14.12 42.14 M0.36 26.45 C-2.65 31.4, -7.13 35.69, -14.53 45.04" stroke="#000000" stroke-width="1" fill="none"></path></g></g><g stroke-linecap="round"><g transform="translate(122.447265625 51.7664794921875) rotate(0 15.99609375 22.59375)"><path d="M-0.21 1.06 C5.16 8.92, 25.71 38.92, 31.26 46.15 M-1.79 0.57 C4.06 8.19, 27.81 37.07, 33.58 44.54" stroke="#000000" stroke-width="1" fill="none"></path></g><g transform="translate(122.447265625 51.7664794921875) rotate(0 15.99609375 22.59375)"><path d="M11.71 28.92 C16.62 35.12, 18.96 38.07, 31.68 44.14 M9 30.39 C16.15 34.26, 24.41 38.91, 33.03 45.46" stroke="#000000" stroke-width="1" fill="none"></path></g><g transform="translate(122.447265625 51.7664794921875) rotate(0 15.99609375 22.59375)"><path d="M26.49 17.09 C28.06 25.86, 27.16 31.41, 31.68 44.14 M23.79 18.55 C26.62 26.07, 30.48 34.24, 33.03 45.46" stroke="#000000" stroke-width="1" fill="none"></path></g></g><g stroke-linecap="round"><g transform="translate(130.8077392578125 130.84745474171467) rotate(0 -21.08710786472065 19.496621750236415)"><path d="M-1.13 -0.77 C-8.29 5.46, -35.76 31.63, -42.76 38.25 M0.48 1.45 C-6.29 7.74, -33.49 32.92, -40.35 39.4" stroke="#000000" stroke-width="1" fill="none"></path></g><g transform="translate(130.8077392578125 130.84745474171467) rotate(0 -21.08710786472065 19.496621750236415)"><path d="M-28.6 12.83 C-32.47 20.18, -35.33 30.52, -41.47 40.2 M-26.49 12.93 C-32.69 22.54, -36.99 32.37, -39.71 39.34" stroke="#000000" stroke-width="1" fill="none"></path></g><g transform="translate(130.8077392578125 130.84745474171467) rotate(0 -21.08710786472065 19.496621750236415)"><path d="M-15.2 27.19 C-23.38 29.9, -30.45 35.73, -41.47 40.2 M-13.08 27.28 C-24.15 31.66, -33.34 36.24, -39.71 39.34" stroke="#000000" stroke-width="1" fill="none"></path></g></g><g stroke-linecap="round"><g transform="translate(211.591796875 139.8289794921875) rotate(0 11.859375 22.806640625)"><path d="M0.42 0.67 C4.47 8.13, 19.24 38.26, 23.11 45.75 M-0.82 -0.02 C3.73 7.57, 21.56 39.53, 25.5 47.35" stroke="#000000" stroke-width="1" fill="none"></path></g><g transform="translate(211.591796875 139.8289794921875) rotate(0 11.859375 22.806640625)"><path d="M7.46 29.2 C10.55 33.44, 14.14 38.44, 25.73 47.85 M6.01 30.81 C12.13 35.92, 18.93 42.14, 26.03 46.88" stroke="#000000" stroke-width="1" fill="none"></path></g><g transform="translate(211.591796875 139.8289794921875) rotate(0 11.859375 22.806640625)"><path d="M22.96 20.9 C23.01 26.85, 23.49 33.52, 25.73 47.85 M21.51 22.51 C22.05 30.44, 23.34 39.62, 26.03 46.88" stroke="#000000" stroke-width="1" fill="none"></path></g></g><g stroke-linecap="round"><g transform="translate(207.88251554341127 243.9686344766135) rotate(0 -17.639386692005274 9.742672507787006)"><path d="M0.71 0.68 C-5.24 3.96, -30.01 16.1, -35.96 19.34 M-0.37 -0.01 C-5.91 3.49, -27.74 17.78, -33.6 20.8" stroke="#000000" stroke-width="1" fill="none"></path></g><g transform="translate(207.88251554341127 243.9686344766135) rotate(0 -17.639386692005274 9.742672507787006)"><path d="M-19.69 4.09 C-24.67 10.17, -26.88 14.77, -33.78 19.18 M-20.88 5.95 C-25.75 11.04, -30.33 15.95, -32.71 21.39" stroke="#000000" stroke-width="1" fill="none"></path></g><g transform="translate(207.88251554341127 243.9686344766135) rotate(0 -17.639386692005274 9.742672507787006)"><path d="M-12.66 15.94 C-19.56 18.77, -23.73 20.06, -33.78 19.18 M-13.84 17.8 C-21.11 18.79, -28.12 19.63, -32.71 21.39" stroke="#000000" stroke-width="1" fill="none"></path></g></g><g stroke-linecap="round"><g transform="translate(295.9298215271765 244.49210566385602) rotate(0 17.3058851897423 12.652811914165738)"><path d="M0.14 -0.38 C5.64 3.92, 28.18 21.91, 33.9 26.31 M-1.24 -1.62 C4.57 2.31, 30.43 20.43, 36.23 24.71" stroke="#000000" stroke-width="1" fill="none"></path></g><g transform="translate(295.9298215271765 244.49210566385602) rotate(0 17.3058851897423 12.652811914165738)"><path d="M14.95 17.77 C25.04 20.84, 32.31 22.63, 34.71 26.15 M15.64 18.69 C22.02 20.11, 28.64 22.32, 36.71 24.18" stroke="#000000" stroke-width="1" fill="none"></path></g><g transform="translate(295.9298215271765 244.49210566385602) rotate(0 17.3058851897423 12.652811914165738)"><path d="M23.48 5.84 C30.42 13.4, 34.49 19.66, 34.71 26.15 M24.17 6.76 C27.77 12.07, 31.56 18.23, 36.71 24.18" stroke="#000000" stroke-width="1" fill="none"></path></g></g><g stroke-linecap="round" transform="translate(291.396484375 389.8570556640625) rotate(0 35 25.4921875)"><path d="M0.86 -0.31 C19.18 -0.52, 41.75 0.41, 70.04 0.84 M-0.2 -0.2 C18.58 0.98, 37.48 0.05, 69.26 0.62 M68.47 -1.45 C68.13 14.4, 71.22 27.47, 69.54 52.38 M69.03 0.82 C70.11 9.92, 70.57 21.77, 69.49 50.5 M71.43 49.81 C46.52 49.91, 18.65 51.2, 1.88 51.1 M69.18 51.81 C47.18 50.36, 25.81 50.01, -0.83 51.12 M0.27 49.52 C-1.23 41.19, -1.96 30.67, 1.21 -1.33 M-0.42 50.27 C-1.17 33.64, 0.19 17.16, -0.74 -0.07" stroke="#000000" stroke-width="1" fill="none"></path></g><g transform="translate(296.396484375 402.8492431640625) rotate(0 30 11.5)"><text x="30" y="17" font-family="Virgil, Segoe UI Emoji" font-size="20px" fill="#000000" text-anchor="middle" style="white-space: pre;" direction="ltr">T(2)</text></g><g stroke-linecap="round"><g transform="translate(348.212890625 331.4273681640625) rotate(0 -10.58984375 26.701171875)"><path d="M0.83 0.09 C-2.65 8.79, -17.85 43.8, -21.69 52.55 M-0.19 -0.91 C-3.81 7.89, -19.63 44.57, -22.9 53.64" stroke="#000000" stroke-width="1" fill="none"></path></g><g transform="translate(348.212890625 331.4273681640625) rotate(0 -10.58984375 26.701171875)"><path d="M-21.83 24.09 C-23.53 30, -23.65 39.41, -23.82 52.17 M-22.56 25.42 C-23.08 32.55, -22.48 41.52, -22.65 54.02" stroke="#000000" stroke-width="1" fill="none"></path></g><g transform="translate(348.212890625 331.4273681640625) rotate(0 -10.58984375 26.701171875)"><path d="M-3.59 31.4 C-9.57 35.73, -13.94 43.44, -23.82 52.17 M-4.32 32.73 C-10.12 37.91, -14.87 44.73, -22.65 54.02" stroke="#000000" stroke-width="1" fill="none"></path></g></g><g stroke-linecap="round" transform="translate(193.287109375 478.2008056640625) rotate(0 39.5 23.619140625)"><path d="M-0.9 0.11 C26.61 -1.9, 51.76 1.3, 77.29 -0.25 M0.82 0.96 C27.02 -1.23, 54.42 0.11, 78.07 0.04 M77.39 -0.93 C77.34 10.45, 80.36 24.53, 80.45 45.49 M78.31 -0.84 C79.59 12.88, 79.55 23.79, 78.62 47.84 M80.98 46.33 C62.47 49, 45.46 46.81, 1.1 45.52 M79.73 47.29 C48.75 48.07, 19.41 47.89, 0.76 47.24 M1.73 46.29 C-0.53 37.77, -0.27 24.14, 1.27 -1.21 M0.87 46.57 C0.18 29.37, 0.51 14.01, -0.87 0.2" stroke="#000000" stroke-width="1" fill="none"></path></g><g transform="translate(198.287109375 489.3199462890625) rotate(0 34.5 11.5)"><text x="34.5" y="17" font-family="Virgil, Segoe UI Emoji" font-size="20px" fill="#000000" text-anchor="middle" style="white-space: pre;" direction="ltr">log(2)</text></g><g stroke-linecap="round"><g transform="translate(289.3723683647696 451.3471108120053) rotate(0 -13.815845160366791 13.392527383923209)"><path d="M1.04 -0.57 C-3.67 4.07, -23.08 23.27, -27.87 27.73 M0.12 1.75 C-4.79 6.07, -24.17 21.86, -28.94 26.1" stroke="#000000" stroke-width="1" fill="none"></path></g><g transform="translate(289.3723683647696 451.3471108120053) rotate(0 -13.815845160366791 13.392527383923209)"><path d="M-20.31 9.01 C-21.04 14.85, -26.67 21.69, -30.11 27.24 M-20.04 9.53 C-23.1 14.81, -24.33 18.39, -28.75 26.71" stroke="#000000" stroke-width="1" fill="none"></path></g><g transform="translate(289.3723683647696 451.3471108120053) rotate(0 -13.815845160366791 13.392527383923209)"><path d="M-11.8 19.06 C-15.32 21.66, -23.76 25.2, -30.11 27.24 M-11.54 19.58 C-17.04 22, -20.75 22.65, -28.75 26.71" stroke="#000000" stroke-width="1" fill="none"></path></g></g><g stroke-linecap="round" transform="translate(366.697265625 483.8341064453125) rotate(0 34.669921875 24.501953125)"><path d="M1.77 0.62 C19.53 0.62, 38.43 -1.75, 70.4 -1.5 M-0.38 0.72 C18.9 -0.16, 37.54 0.66, 69.2 0.85 M71.17 0.08 C68.23 13.69, 70.33 24.34, 70.39 49.08 M69.76 -0.89 C69.03 18.88, 68.69 36.23, 68.63 48.5 M71.17 50.12 C50.6 49.21, 28.89 46.68, -1.01 50.77 M68.94 48.21 C51.47 49.58, 31.48 49.28, 0.16 48.66 M1.25 48.87 C1.75 34.05, 1.7 16.85, -0.75 -0.98 M0.95 48.24 C-0.6 37.07, -0.83 25.31, 0.75 0.18" stroke="#000000" stroke-width="1" fill="none"></path></g><g transform="translate(371.697265625 495.8360595703125) rotate(0 29.5 11.5)"><text x="29.5" y="17" font-family="Virgil, Segoe UI Emoji" font-size="20px" fill="#000000" text-anchor="middle" style="white-space: pre;" direction="ltr">T(1)</text></g><g stroke-linecap="round"><g transform="translate(355.224609375 443.4239501953125) rotate(0 6.162109375 19.91796875)"><path d="M-0.46 1.2 C1.72 7.84, 9.8 34.51, 11.98 40.96 M1.5 0.78 C3.59 7.63, 9.09 32.68, 10.85 39.43" stroke="#000000" stroke-width="1" fill="none"></path></g><g transform="translate(355.224609375 443.4239501953125) rotate(0 6.162109375 19.91796875)"><path d="M1.35 21.45 C3.77 26.17, 4.42 30.79, 9 37.75 M-1.44 22.56 C4.53 27.59, 8.8 34.28, 11.79 39.53" stroke="#000000" stroke-width="1" fill="none"></path></g><g transform="translate(355.224609375 443.4239501953125) rotate(0 6.162109375 19.91796875)"><path d="M15.22 18.13 C14.8 23.49, 12.57 28.8, 9 37.75 M12.43 19.25 C13.27 25.44, 12.39 33.36, 11.79 39.53" stroke="#000000" stroke-width="1" fill="none"></path></g></g><g stroke-linecap="round" transform="translate(313.115234375 567.7542724609375) rotate(0 36.56640625 22.033203125)"><path d="M-1.02 -0.28 C26.77 -0.17, 50.13 1.75, 71.59 0.76 M0.19 0.47 C20.78 1.27, 41.84 0.33, 72.95 -0.66 M73.77 -1.18 C73.82 12.77, 73.15 24.31, 72.55 43.48 M72.72 -0.85 C73.29 14.44, 72.38 28.74, 72.52 44.29 M71.92 45.53 C50.48 44.98, 22.7 46.2, 0.46 45.28 M72.54 44.24 C46.03 44.49, 18.17 43.45, -0.5 44.68 M1.49 43.69 C1.18 29.77, -0.91 19.85, 1.62 -0.6 M0.64 44.2 C1.16 30.18, 0.18 16.36, -0.37 -0.74" stroke="#000000" stroke-width="1" fill="none"></path></g><g transform="translate(318.115234375 577.2874755859375) rotate(0 31.5 11.5)"><text x="31.5" y="17" font-family="Virgil, Segoe UI Emoji" font-size="20px" fill="#000000" text-anchor="middle" style="white-space: pre;" direction="ltr">log(1)</text></g><g stroke-linecap="round"><g transform="translate(377.130859375 534.5433349609375) rotate(0 -5.908203125 16.693359375)"><path d="M0.56 0.92 C-1.58 6.62, -10.33 28.2, -12.52 33.67 M-0.61 0.36 C-2.38 5.72, -8.6 26.5, -10.18 31.7" stroke="#000000" stroke-width="1" fill="none"></path></g><g transform="translate(377.130859375 534.5433349609375) rotate(0 -5.908203125 16.693359375)"><path d="M-9.81 12.97 C-10.5 18.58, -10.11 24.99, -11.15 31.73 M-11.09 14.29 C-11.04 19.76, -10.42 26.07, -10.77 30.97" stroke="#000000" stroke-width="1" fill="none"></path></g><g transform="translate(377.130859375 534.5433349609375) rotate(0 -5.908203125 16.693359375)"><path d="M1.79 16.48 C-2.66 21, -6.03 26.27, -11.15 31.73 M0.5 17.8 C-3.25 22.11, -6.45 27.27, -10.77 30.97" stroke="#000000" stroke-width="1" fill="none"></path></g></g><g stroke-linecap="round" transform="translate(444.505859375 563.4222412109375) rotate(0 40 28.21484375)"><path d="M0.41 0.03 C15.82 -1.86, 35.39 -1.13, 80.9 0.17 M0.91 0.67 C22.22 0.35, 43.27 0.3, 79.59 -0.16 M81.65 -1.86 C82.2 16.22, 79.06 33.08, 78.19 56.32 M80.03 -0.21 C79.35 13.06, 79.31 28.31, 80.75 56.06 M81.34 55.82 C55.48 56.21, 33.06 59.05, -0.82 56.03 M79.26 56.38 C63.39 55.79, 45.84 56.71, 0.55 56.79 M-0.32 54.67 C-1.21 41.85, -0.72 32.26, -0.03 -0.91 M-0.85 55.5 C0.66 43.01, 1.01 29.7, 0.9 0.75" stroke="#000000" stroke-width="1" fill="none"></path></g><g transform="translate(449.505859375 579.1370849609375) rotate(0 35 11.5)"><text x="35" y="17" font-family="Virgil, Segoe UI Emoji" font-size="20px" fill="#000000" text-anchor="middle" style="white-space: pre;" direction="ltr">T(0)</text></g><g stroke-linecap="round"><g transform="translate(436.267578125 533.8402099609375) rotate(0 11.646484375 15.689453125)"><path d="M-0.04 -0.75 C3.84 4.19, 19.66 25.52, 23.45 30.69 M-1.52 1.47 C2.19 7.07, 18.73 26.94, 22.59 31.86" stroke="#000000" stroke-width="1" fill="none"></path></g><g transform="translate(436.267578125 533.8402099609375) rotate(0 11.646484375 15.689453125)"><path d="M4.63 22.05 C10.09 23.99, 14.7 26.52, 22.86 32.38 M5.05 21.42 C11.85 26.61, 19.53 30.2, 22.73 30.92" stroke="#000000" stroke-width="1" fill="none"></path></g><g transform="translate(436.267578125 533.8402099609375) rotate(0 11.646484375 15.689453125)"><path d="M15.02 13.64 C17.28 18.24, 18.61 23.41, 22.86 32.38 M15.45 13.02 C18.33 21.38, 22.03 28.18, 22.73 30.92" stroke="#000000" stroke-width="1" fill="none"></path></g></g><g transform="translate(80.046875 273.7156982421875) rotate(0 51 23)"><text x="51" y="17" font-family="Virgil, Segoe UI Emoji" font-size="20px" fill="#000000" text-anchor="middle" style="white-space: pre;" direction="ltr">     </text><text x="51" y="40" font-family="Virgil, Segoe UI Emoji" font-size="20px" fill="#000000" text-anchor="middle" style="white-space: pre;" direction="ltr">log(n-2)</text></g><g transform="translate(15 105.01953125) rotate(0 26.5 11.5)"><text x="26.5" y="17" font-family="Virgil, Segoe UI Emoji" font-size="20px" fill="#000000" text-anchor="middle" style="white-space: pre;" direction="ltr">log(n)</text></g><g transform="translate(42.9375 190.74609375) rotate(0 41 11.5)"><text x="41" y="17" font-family="Virgil, Segoe UI Emoji" font-size="20px" fill="#000000" text-anchor="middle" style="white-space: pre;" direction="ltr">log(n-1)</text></g></svg>