<svg version="1.1" xmlns="http://www.w3.org/2000/svg" viewBox="0 0 670.30078125 654.671875" width="670.30078125" height="654.671875">
  <!-- svg-source:excalidraw -->
  
  <defs>
    <style>
      @font-face {
        font-family: "Virgil";
        src: url("https://excalidraw.com/Virgil.woff2");
      }
      @font-face {
        font-family: "Cascadia";
        src: url("https://excalidraw.com/Cascadia.woff2");
      }
    </style>
  </defs>
  <rect x="0" y="0" width="670.30078125" height="654.671875" fill="#FFF"></rect><g stroke-linecap="round" transform="translate(45.8046875 10) rotate(0 60 38.060546875)"><path d="M-1.56 -1.66 C33.8 1.03, 66.34 -1.53, 119.83 1.43 M-0.52 -0.63 C43.42 -0.48, 88.49 0.86, 120.94 0.71 M118.04 0.97 C117.45 25.75, 118.08 49, 119.78 74.53 M120.7 -0.95 C119.81 17.65, 120.53 33.88, 120.77 76.93 M120.23 74.82 C92.74 78.18, 67.83 77.22, -1.44 76.5 M119.05 76.17 C92.1 76.44, 64.25 76.43, -0.92 76.13 M-1.65 78.07 C-1.66 47.61, -2.4 24.46, -1.84 -0.93 M-0.62 76.15 C-0.86 46.02, -0.93 16.41, 0.98 -0.03" stroke="#000000" stroke-width="1" fill="none"></path></g><g transform="translate(50.8046875 35.560546875) rotate(0 55 11.5)"><text x="55" y="17" font-family="Virgil, Segoe UI Emoji" font-size="20px" fill="#000000" text-anchor="middle" style="white-space: pre;" direction="ltr">T(n)</text></g><g stroke-linecap="round" transform="translate(10 137.85546875) rotate(0 44.5 35.15625)"><path d="M0.01 1 C21.95 1.05, 39.34 2.77, 87.89 -1.87 M-0.47 0.96 C19.39 1.56, 36.39 0.84, 88.81 0.01 M88.93 0.04 C90.48 18.39, 89.69 40.34, 87.81 69.18 M89.33 -0.02 C87.76 17.76, 89.15 37.61, 88.52 70.38 M89.86 69.17 C54.56 69.24, 21.09 69.07, 1.81 71.83 M89.55 70.65 C57.78 69.17, 26.67 69.37, -0.65 69.4 M-1.89 70.54 C1.45 50.77, 0.84 34.78, 0.3 0.75 M-0.31 70.42 C0.43 45.07, 0.45 22.47, -0.65 -0.62" stroke="#000000" stroke-width="1" fill="none"></path></g><g transform="translate(15 160.51171875) rotate(0 39.5 11.5)"><text x="39.5" y="17" font-family="Virgil, Segoe UI Emoji" font-size="20px" fill="#000000" text-anchor="middle" style="white-space: pre;" direction="ltr">1</text></g><g stroke-linecap="round" transform="translate(162.91015625 141.17578125) rotate(0 60.59765625 41.638671875)"><path d="M-1.28 -0.75 C30.33 -0.22, 65.63 2.21, 122.18 1.17 M-0.16 -0.41 C26.1 -0.61, 51.96 -1.32, 120.74 -0.09 M122.58 -1.68 C121.18 32.93, 120.7 66.23, 122.1 81.96 M121.16 -0.97 C120.92 19.59, 120.28 37.18, 122.08 82.31 M122.06 83.79 C96.51 84.91, 68.74 82.8, -1.33 83.63 M121.45 83.65 C84.5 83.13, 46.11 83.47, 0.53 82.88 M-0.8 81.28 C-0.27 60.79, -0.67 40.28, -0.66 -0.68 M0.14 83.27 C0.6 53.83, 0.67 25.76, -0.06 -0.81" stroke="#000000" stroke-width="1" fill="none"></path></g><g transform="translate(167.91015625 170.314453125) rotate(0 55.5 11.5)"><text x="55.5" y="17" font-family="Virgil, Segoe UI Emoji" font-size="20px" fill="#000000" text-anchor="middle" style="white-space: pre;" direction="ltr">T(n/2)</text></g><g stroke-linecap="round" transform="translate(277.00390625 260.24609375) rotate(0 55.5 44.421875)"><path d="M-0.8 -0.9 C27.47 -0.06, 57.73 -2.58, 109.99 -1.23 M-0.34 0.49 C24.78 1.19, 51.02 0.36, 111.04 -0.39 M109.38 0.31 C111.62 27.35, 111.92 53.48, 111.24 89.62 M111.89 0.47 C110.57 23.57, 110.65 48.45, 111.74 89.2 M109.25 89.41 C89.9 87.45, 65.37 89.97, 1.93 89.09 M110.13 88.82 C79.94 89.39, 48.5 89.66, 0.5 89.29 M0.69 89.36 C-0.28 55.3, 1.96 19.21, 1.37 1.37 M0.53 89.58 C-0.36 64.91, 0.37 39.04, -0.21 -0.95" stroke="#000000" stroke-width="1" fill="none"></path></g><g transform="translate(282.00390625 292.16796875) rotate(0 50.5 11.5)"><text x="50.5" y="17" font-family="Virgil, Segoe UI Emoji" font-size="20px" fill="#000000" text-anchor="middle" style="white-space: pre;" direction="ltr">T(n/2^2)</text></g><g stroke-linecap="round" transform="translate(379.7421875 394.08984375) rotate(0 66.58984375 55.21484375)"><path d="M1.93 0.25 C30.31 -0.55, 62.48 -2.49, 133.14 -0.32 M0.5 0.45 C40.73 -1.1, 79.35 0, 133.44 -0.48 M134.55 1.37 C133.48 36.34, 134.49 73.72, 134.65 109.73 M132.97 -0.95 C134.12 43.27, 132.84 86.52, 133.26 110.32 M133.18 109.87 C106.73 109.18, 78.76 109.64, -1.76 111.04 M133.68 109.96 C102.9 111.12, 73.42 111.5, -0.97 111.12 M1.02 108.64 C-0.08 85.29, 1.41 59.55, -0.01 0.83 M-0.42 110.78 C0.12 83.27, 0.26 55.93, 0.41 -0.64" stroke="#000000" stroke-width="1" fill="none"></path></g><g transform="translate(384.7421875 436.8046875) rotate(0 61.5 11.5)"><text x="61.5" y="17" font-family="Virgil, Segoe UI Emoji" font-size="20px" fill="#000000" text-anchor="middle" style="white-space: pre;" direction="ltr">T(n/2^3)</text></g><g stroke-linecap="round" transform="translate(550.30078125 553.1875) rotate(0 55 45.7421875)"><path d="M-1.06 1.68 C32.43 -2.64, 66.66 -2.4, 111.88 0.84 M0.13 -0.05 C39.01 -0.5, 77.68 -0.19, 110.49 0.98 M110.75 1.95 C110.06 32.1, 110.01 63.15, 110.64 92.56 M110.09 0.61 C110.3 24, 109.68 46.72, 109.67 91.87 M110.86 92.16 C69.68 91.4, 30.71 94.13, -0.84 92.07 M110.29 92.29 C80.76 91, 51.41 91.68, 0.18 91.78 M1.73 91.91 C0.52 62.08, 1.46 37.4, 0.41 1.93 M0.33 91.92 C-0.72 56.03, -1.02 19.51, 0.52 0.19" stroke="#000000" stroke-width="1" fill="none"></path></g><g transform="translate(555.30078125 586.4296875) rotate(0 50 11.5)"><text x="50" y="17" font-family="Virgil, Segoe UI Emoji" font-size="20px" fill="#000000" text-anchor="middle" style="white-space: pre;" direction="ltr">T(n/2^k)</text></g><g stroke-linecap="round" transform="translate(103.15234375 290.66796875) rotate(0 37.5 27.30078125)"><path d="M1.09 1.18 C20.47 0.57, 38.57 -1.61, 74.08 -1.3 M-0.3 0.89 C29.67 0.07, 59.37 0.23, 74.09 0.78 M75.04 0.9 C75.51 16.87, 75.53 31.21, 73.22 56.47 M75.9 0.3 C74.94 19.87, 75.55 38.64, 75.26 53.86 M75.53 52.92 C57.22 52.86, 36.92 52.77, 0.16 54.78 M74.27 53.93 C59.87 54.51, 44.44 55.18, -0.96 53.86 M1.76 54.67 C0.75 39.45, 1.27 23.44, -0.65 0.96 M0.57 53.77 C-1.18 42.86, -0.18 28.83, -0.85 -0.7" stroke="#000000" stroke-width="1" fill="none"></path></g><g transform="translate(108.15234375 305.46875) rotate(0 32.5 11.5)"><text x="32.5" y="17" font-family="Virgil, Segoe UI Emoji" font-size="20px" fill="#000000" text-anchor="middle" style="white-space: pre;" direction="ltr">1</text></g><g stroke-linecap="round"><g transform="translate(192.05078125 223.75) rotate(0 -11.888671875 32.150390625)"><path d="M0.22 0.35 C-3.9 11.21, -19.8 54.01, -23.75 64.84 M-1.13 -0.51 C-5.48 10.01, -20.85 52.33, -24.69 63" stroke="#000000" stroke-width="1" fill="none"></path></g><g transform="translate(192.05078125 223.75) rotate(0 -11.888671875 32.150390625)"><path d="M-24.14 33.04 C-23.88 44.77, -23.04 56.14, -23.76 61.22 M-23.76 33.91 C-24.24 44.64, -24.19 57.05, -25.13 63.26" stroke="#000000" stroke-width="1" fill="none"></path></g><g transform="translate(192.05078125 223.75) rotate(0 -11.888671875 32.150390625)"><path d="M-4.85 40.04 C-11.87 49.15, -18.33 57.87, -23.76 61.22 M-4.47 40.9 C-12.58 48.92, -20.12 58.58, -25.13 63.26" stroke="#000000" stroke-width="1" fill="none"></path></g></g><g stroke-linecap="round" transform="translate(206.17578125 394.1484375) rotate(0 42.5 34.78515625)"><path d="M-1.38 0.89 C26.12 0.74, 48.73 -2.29, 86.76 0.12 M-0.21 0.2 C21.85 0.17, 42.95 -0.07, 84.95 0.04 M86.05 1.93 C86.13 20.81, 83.56 38.97, 84.29 70.22 M85.35 -0.38 C85.87 23.81, 86.06 44.74, 85.1 68.67 M86.95 71.5 C50.68 70.66, 21.05 68.1, -1.07 71.29 M85.46 69.23 C56.2 70.1, 25.95 69.45, -0.78 68.77 M-0.31 71.18 C0.42 51.89, 1 32.93, -1.86 1.95 M-0.42 69.5 C1.32 45.74, 0.31 21.96, 0.32 -0.83" stroke="#000000" stroke-width="1" fill="none"></path></g><g transform="translate(211.17578125 416.43359375) rotate(0 37.5 11.5)"><text x="37.5" y="17" font-family="Virgil, Segoe UI Emoji" font-size="20px" fill="#000000" text-anchor="middle" style="white-space: pre;" direction="ltr">1</text></g><g stroke-linecap="round"><g transform="translate(287.65234375 351.859375) rotate(0 -7.748046875 20.38671875)"><path d="M-0.21 0.23 C-3.15 6.86, -14.33 32.83, -16.68 39.66 M-1.78 -0.7 C-4.45 6.05, -12.47 33.98, -14.59 40.61" stroke="#000000" stroke-width="1" fill="none"></path></g><g transform="translate(287.65234375 351.859375) rotate(0 -7.748046875 20.38671875)"><path d="M-15.42 16.86 C-17.22 29.08, -14.2 33.84, -13.87 39.77 M-16.04 17.86 C-14.96 24.4, -14.5 30.83, -13.83 40.71" stroke="#000000" stroke-width="1" fill="none"></path></g><g transform="translate(287.65234375 351.859375) rotate(0 -7.748046875 20.38671875)"><path d="M-1.14 21.17 C-8.38 31.72, -10.78 34.84, -13.87 39.77 M-1.75 22.18 C-4.9 27.38, -8.64 32.54, -13.83 40.71" stroke="#000000" stroke-width="1" fill="none"></path></g></g><g stroke-linecap="round"><g transform="translate(77.8984375 90.00390625) rotate(0 -11.998046875 22.181640625)"><path d="M-0.83 -0.56 C-4.76 6.79, -20.32 35.67, -24.25 43.28 M0.94 1.77 C-3.11 9.29, -20.95 37.35, -25.33 44.24" stroke="#000000" stroke-width="1" fill="none"></path></g><g transform="translate(77.8984375 90.00390625) rotate(0 -11.998046875 22.181640625)"><path d="M-20.85 19.19 C-23.22 24.96, -21.52 32.14, -24.17 45.69 M-20.55 18.89 C-20.34 25.06, -22.07 31.41, -25.23 43.75" stroke="#000000" stroke-width="1" fill="none"></path></g><g transform="translate(77.8984375 90.00390625) rotate(0 -11.998046875 22.181640625)"><path d="M-6.28 28.42 C-12.14 31.84, -14 36.76, -24.17 45.69 M-5.97 28.12 C-9.49 32.1, -14.9 36.12, -25.23 43.75" stroke="#000000" stroke-width="1" fill="none"></path></g></g><g stroke-linecap="round"><g transform="translate(163.04296875 86.0859375) rotate(0 9.71484375 25.826171875)"><path d="M-0.76 -0.64 C2.75 7.89, 17.24 43.4, 20.44 51.95 M1.05 1.64 C4.54 9.72, 16.72 41.68, 20.02 49.99" stroke="#000000" stroke-width="1" fill="none"></path></g><g transform="translate(163.04296875 86.0859375) rotate(0 9.71484375 25.826171875)"><path d="M0.76 30.93 C7 32.91, 9.44 38.16, 21.74 49.58 M1.62 28.53 C4.75 32.93, 8.46 38.86, 20.24 49.01" stroke="#000000" stroke-width="1" fill="none"></path></g><g transform="translate(163.04296875 86.0859375) rotate(0 9.71484375 25.826171875)"><path d="M18.35 24.08 C20.25 27.66, 18.3 34.62, 21.74 49.58 M19.21 21.69 C18.52 27.44, 18.47 34.83, 20.24 49.01" stroke="#000000" stroke-width="1" fill="none"></path></g></g><g stroke-linecap="round"><g transform="translate(281.31640625 227.76171875) rotate(0 7.169921875 15.025390625)"><path d="M-0.84 -0.94 C1.53 3.95, 10.75 23.99, 13.46 29.12 M0.92 1.18 C3.73 6.21, 13.33 25.19, 15.71 30.17" stroke="#000000" stroke-width="1" fill="none"></path></g><g transform="translate(281.31640625 227.76171875) rotate(0 7.169921875 15.025390625)"><path d="M2.36 17.45 C5.24 22.98, 9.12 25.32, 14.06 30.7 M2.92 17.88 C7.69 21.99, 9.72 24.55, 16.22 29.65" stroke="#000000" stroke-width="1" fill="none"></path></g><g transform="translate(281.31640625 227.76171875) rotate(0 7.169921875 15.025390625)"><path d="M12.57 12.4 C13 19.07, 14.44 22.62, 14.06 30.7 M13.13 12.83 C15.04 18.41, 14.18 22.4, 16.22 29.65" stroke="#000000" stroke-width="1" fill="none"></path></g></g><g stroke-linecap="round"><g transform="translate(388.453125 353.2265625) rotate(0 10.52734375 19.75)"><path d="M-0.62 0.05 C2.8 6.36, 16.55 32.2, 20.08 38.65 M1.25 -0.96 C5.08 5.41, 19.24 32.96, 22.28 39.74" stroke="#000000" stroke-width="1" fill="none"></path></g><g transform="translate(388.453125 353.2265625) rotate(0 10.52734375 19.75)"><path d="M6.27 22.56 C9.05 27.45, 13.44 30.73, 22.19 38.4 M5.62 24.53 C11.28 30.4, 17.83 34.96, 22.74 39.55" stroke="#000000" stroke-width="1" fill="none"></path></g><g transform="translate(388.453125 353.2265625) rotate(0 10.52734375 19.75)"><path d="M20.03 15.85 C19.27 22.42, 20.07 27.44, 22.19 38.4 M19.38 17.82 C19.88 26.23, 21.26 33.3, 22.74 39.55" stroke="#000000" stroke-width="1" fill="none"></path></g></g><g stroke-linecap="round"><g transform="translate(511.11328125 508.04296875) rotate(0 18.830078125 20.32421875)"><path d="M1.02 0.68 C7.18 7.36, 31.17 33.87, 37.21 40.56 M0.09 -0.01 C6.04 6.82, 29.99 35.01, 36.02 42.06" stroke="#000000" stroke-width="1" fill="none"></path></g><g transform="translate(511.11328125 508.04296875) rotate(0 18.830078125 20.32421875)"><path d="M13.05 27.64 C19.5 31.87, 27.61 36.16, 36.54 41.53 M11.82 27.63 C17.33 30.68, 22.56 34.67, 35.84 42.75" stroke="#000000" stroke-width="1" fill="none"></path></g><g transform="translate(511.11328125 508.04296875) rotate(0 18.830078125 20.32421875)"><path d="M27.47 15.34 C29.38 23.6, 32.91 31.81, 36.54 41.53 M26.24 15.34 C28.83 21.06, 31.05 27.62, 35.84 42.75" stroke="#000000" stroke-width="1" fill="none"></path></g></g></svg>